<svg width="152" height="152" fill="none" xmlns="http://www.w3.org/2000/svg"><rect width="152" height="152" rx="25" fill="#FF3F4A"/><path d="M53 34.01h21.149c4.516-.071 9.03.216 13.5.86a25.754 25.754 0 018.203 2.746 22.983 22.983 0 018.999 9.34 29.47 29.47 0 013.081 13.907 24.462 24.462 0 01-1.622 10.759 24.642 24.642 0 01-6.131 9.019c-5.17 4.44-12.865 6.65-23.088 6.627h-4.673V118H53V34.01zm19.418 14.01v25.067h4.535c1.665.163 3.346-.01 4.94-.513a12.35 12.35 0 004.336-2.406A14.1 14.1 0 0089 60.382c-.2-2.123-.51-3.193-.999-4.882-.488-1.689-1.244-2.761-2.5-4-1.256-1.239-2.5-2-4-2.5-1.705-.475-3-1-5.032-.98h-4.05z" fill="#FF3F4A"/><path d="M53 34.01h21.149c4.516-.071 9.03.216 13.5.86a25.754 25.754 0 018.203 2.746 22.983 22.983 0 018.999 9.34 29.47 29.47 0 013.081 13.907 24.462 24.462 0 01-1.622 10.759 24.642 24.642 0 01-6.131 9.019c-5.17 4.44-12.865 6.65-23.088 6.627h-4.673V118H53V34.01zm19.418 14.01v25.067h4.535c1.665.163 3.346-.01 4.94-.513a12.35 12.35 0 004.336-2.406A14.1 14.1 0 0089 60.382c-.2-2.123-.51-3.193-.999-4.882-.488-1.689-1.244-2.761-2.5-4-1.256-1.239-2.5-2-4-2.5-1.705-.475-3-1-5.032-.98h-4.05z" fill="#fff"/></svg>