<svg width="28" height="28" viewBox="0 0 28 28" fill="none" xmlns="http://www.w3.org/2000/svg"><path d="M26.5 21.03V24c-.13.17-.31.22-.53.22h-1.22v1.7c0 .23-.03.42-.2.57h-3.9c-.19-.14-.24-.32-.23-.53v-1.73h-1.4l.01 1.77c0 .22-.07.38-.25.5h-3.85c-.19-.14-.25-.3-.24-.53v-1.74h-1.38v1.74c0 .22-.06.39-.24.52H9.22c-.19-.11-.26-.27-.25-.49v-1.76H7.58v1.7c0 .22-.03.41-.22.55h-3.9c-.18-.15-.22-.34-.21-.56v-1.71h-1.3c-.33 0-.45-.13-.45-.45v-2.46c0-.41.11-.53.52-.53h1.21v-3.96H1.97c-.35 0-.47-.11-.47-.46v-2.49c0-.35.12-.47.47-.47h1.29v-.9a.36.36 0 0 1 .36-.36.38.38 0 0 1 .37.36v13.24h2.83V3.55a1.42 1.42 0 0 0-2.84.17v6.76c0 .3-.13.48-.36.48-.23 0-.37-.17-.37-.48V9.46H2c-.38 0-.5-.12-.5-.5V6.54c0-.39.1-.5.5-.5h1.25v-.29l.01-2.17c.02-1.1.95-2.04 2.01-2.07 1.22-.04 2.22.8 2.29 1.96.04.75.01 1.51.02 2.27v.3h1.4V3.83c0-.2 0-.42.04-.63a2.16 2.16 0 0 1 2.24-1.7c.97.01 1.9.82 2 1.8.07.79.03 1.59.05 2.39v.32h1.38V5.7c.01-.8-.03-1.58.05-2.37a2.1 2.1 0 0 1 2-1.83 2.14 2.14 0 0 1 2.24 1.76c.03.2.04.4.04.6v2.15h1.4v-.33c0-.74-.02-1.48.02-2.22.06-1.16 1.06-2 2.28-1.96 1.07.03 2 .98 2.01 2.07.02.73 0 1.47 0 2.2l.02.26h1.2c.22-.01.4.04.54.2v2.98c-.12.2-.29.26-.51.25h-1.23v3.95H26c.22 0 .38.06.5.25v2.97c-.16.18-.35.21-.57.2h-1.18v3.96h1.22c.23-.01.4.05.53.24Zm-7.46-.26h1.39v-.88c0-.21.14-.34.35-.36.2-.01.36.15.39.37v5.85H24V3.59a1.42 1.42 0 0 0-1.7-1.32c-.7.14-1.14.7-1.14 1.45v14.01c0 .1 0 .21-.02.32a.34.34 0 0 1-.36.27.34.34 0 0 1-.35-.3c-.02-.11-.02-.22-.02-.32v-.86h-1.38v3.93Zm-6.48 4.98V3.9c0-.14 0-.29-.02-.44a1.42 1.42 0 0 0-1.59-1.2c-.8.14-1.24.7-1.24 1.56v21.94h2.85Zm5.73 0V3.66c-.05-1.04-1.03-1.7-1.96-1.32-.57.24-.88.74-.88 1.46V25.75h2.84Zm2.12-16.27h-1.36v3.92h1.36V9.48Zm-7.08-.02v3.94h1.34V9.46h-1.34ZM8.95 20.77v-3.92H7.6v3.92h1.36Zm5.72 0v-3.92h-1.34v3.93h1.34ZM8.96 13.4V9.47H7.6v3.93h1.36Zm4.36-6.62V8.7h1.35V6.78h-1.35Zm7.09 0h-1.37V8.7h1.37V6.79ZM8.96 14.17H7.6v1.92h1.36v-1.92Zm5.71 1.93v-1.93h-1.34v1.93h1.34Zm4.37 0h1.36v-1.93h-1.36v1.92Zm-4.37 7.37v-1.9h-1.34v1.9h1.34ZM7.59 8.7h1.36V6.8H7.6V8.7Zm0 14.76h1.36v-1.9H7.6v1.9Zm12.81-1.9h-1.37v1.9h1.37v-1.9Zm5.34-5.47v-1.93h-.98v1.93h.98Zm-23.5-1.93v1.92h1v-1.92h-1Zm1-5.45V6.79h-1V8.7h1Zm21.52-1.92V8.7h1V6.8h-1ZM2.26 21.56v1.9h.98v-1.9h-.99Zm23.5 1.9v-1.9h-1v1.9h1Z" fill="#FF3F4A"/><path d="M5.4 22.15a.34.34 0 0 1 .37.36.35.35 0 0 1-.36.37.34.34 0 0 1-.35-.36c0-.23.13-.37.35-.37ZM5.4 7.37a.36.36 0 0 1 .37.36.35.35 0 0 1-.33.38c-.22 0-.37-.13-.38-.35 0-.23.14-.39.34-.4ZM22.6 22.88a.35.35 0 0 1-.37-.37.34.34 0 0 1 .33-.36c.23-.01.37.12.38.34 0 .23-.14.38-.35.39ZM22.58 7.37a.35.35 0 0 1 .36.37c0 .22-.13.36-.34.37a.35.35 0 0 1-.37-.36.36.36 0 0 1 .35-.38ZM11.13 7.37a.37.37 0 0 1 .27.62.36.36 0 0 1-.25.12.35.35 0 0 1-.37-.36.36.36 0 0 1 .35-.38ZM11.5 22.51a.36.36 0 0 1-.63.25.36.36 0 0 1-.09-.26.34.34 0 0 1 .35-.35.36.36 0 0 1 .37.36ZM16.86 7.37a.36.36 0 0 1 .36.38.35.35 0 0 1-.37.36.36.36 0 0 1-.35-.36.37.37 0 0 1 .36-.38ZM16.86 22.15a.34.34 0 0 1 .36.37.36.36 0 0 1-.5.33.36.36 0 0 1-.22-.34.36.36 0 0 1 .36-.36Z" fill="#FF3F4A"/></svg>