<svg width="53" height="44" viewBox="0 0 53 44" fill="none" xmlns="http://www.w3.org/2000/svg"><path d="M28.34 17.18c.4-.52.77-.99 1.15-1.45.32-.4.69-.42 1-.04a38.45 38.45 0 0 1 4.56 6.66 5.48 5.48 0 0 1-.16 5.72 5.77 5.77 0 0 1-9.9-.24c-.15-.25-.3-.35-.59-.35-3.35.02-6-2.67-5.8-6.01a7.1 7.1 0 0 1 .79-2.52c.99-2.1 2.41-3.91 3.82-5.73l.55-.7c.39-.48.77-.5 1.14-.01l3.17 4.29.27.38Zm1.67-.2-.42.53C28.26 19.25 26.93 21 26 23c-.27.6-.53 1.25-.55 1.9a4.55 4.55 0 0 0 5.66 4.55c2.62-.64 4.15-3.53 3.2-5.81-1.03-2.46-2.67-4.5-4.3-6.64Zm-5.66 9.3a3.15 3.15 0 0 1-.07-.43c0-.55-.05-1.1.04-1.64a9.64 9.64 0 0 1 1.5-3.39c.54-.89 1.14-1.74 1.76-2.68l-3.21-4.47c-1.56 2.01-3.05 3.93-4.1 6.14a4.39 4.39 0 0 0-.45 2.75 4.65 4.65 0 0 0 4.53 3.72Z" fill="#fff"/><path d="M29.84 28.68a3.7 3.7 0 0 1-3.47-3.56c0-.44.23-.72.59-.73.36-.01.56.25.6.71a2.5 2.5 0 0 0 2.35 2.38c.46.04.71.27.68.63-.03.36-.31.57-.75.57Z" fill="#fff"/><path d="M25.73 43.73c-1.57-.27-2.85-1.19-4.19-1.95-1.78-1.02-3.57-2.02-5.32-3.08a14.18 14.18 0 0 1-6.85-10.17c-.13-.81-.19-1.63-.18-2.45V9.03c0-1.82.9-2.7 2.71-2.8 4.25-.27 8.21-1.4 11.61-4.08.46-.36.88-.76 1.3-1.16 1-.96 2.4-.97 3.38.01 2.67 2.65 5.95 4.1 9.6 4.8 1.18.22 2.4.32 3.6.44 1.5.14 2.4 1.08 2.41 2.59v5.72c0 .57-.22.86-.65.86-.43 0-.66-.29-.66-.85V8.92c0-.96-.28-1.3-1.22-1.36a26.35 26.35 0 0 1-7.2-1.43A18.09 18.09 0 0 1 27.37 2c-.58-.57-1.14-.59-1.7-.03-2.83 2.8-6.3 4.35-10.15 5.09-1.3.25-2.63.35-3.95.5-.68.09-1.06.45-1.06 1.13 0 6.18-.09 12.36.05 18.54.09 3.6 1.75 6.61 4.45 9.01 1.4 1.25 3.1 2.03 4.68 2.98 1.45.86 2.92 1.67 4.37 2.52 1.62.95 3.24.95 4.86.01 2.34-1.35 4.7-2.67 7.02-4.05a12.94 12.94 0 0 0 6.54-11.55V17.9c.02-.5.28-.82.68-.8.4 0 .65.3.64.78-.01 3.27.1 6.55-.1 9.8a13.28 13.28 0 0 1-4.53 9.2A20.6 20.6 0 0 1 36 39.14c-1.97 1.2-4 2.3-5.98 3.47-.85.52-1.79.9-2.76 1.12h-1.53Z" fill="#fff"/><path d="M40.34 19.04c0 2.52.06 5.04 0 7.55a10.42 10.42 0 0 1-5 8.94c-2.5 1.6-5.12 3-7.7 4.47-.67.4-1.42.48-2.1.1-2.87-1.65-5.8-3.2-8.54-5.05-2.54-1.71-3.9-4.3-4.27-7.36-.07-.72-.1-1.44-.08-2.15v-7.68c0-.31.06-.6.38-.68.2-.05.51-.02.65.1.15.15.22.45.23.68.02 2.73-.01 5.46.02 8.2a9.55 9.55 0 0 0 5.02 8.68l6.87 3.97c.44.25.87.28 1.32.02 2.44-1.42 4.93-2.78 7.33-4.26a9.23 9.23 0 0 0 4.58-8.12c.07-5.06.02-10.12.03-15.19 0-.37-.14-.49-.48-.53-4.32-.59-8.3-2.01-11.8-4.67-.24-.18-.4-.16-.62.01a24.08 24.08 0 0 1-11.84 4.66c-.31.04-.43.18-.43.5.02 1.13.01 2.27.01 3.4 0 .52-.24.8-.66.79-.4-.01-.61-.28-.62-.8V11.1c0-.96.54-1.52 1.52-1.64 3.3-.44 6.42-1.4 9.29-3.11.7-.42 1.37-.9 2.04-1.38.69-.49 1.32-.52 1.98-.01a23.13 23.13 0 0 0 10.95 4.43l.55.08c.87.14 1.37.72 1.38 1.6v7.97Z" fill="#fff"/></svg>