<svg xmlns="http://www.w3.org/2000/svg" viewBox="0 0 792.5 104.5"><g data-name="Слой 2"><g data-name="Слой 1"><path d="M595.5 104.5a9.2 9.2 0 0 1-.7-4q0-31.2.2-62.3c0-4.5 0-4.7 4.5-4.6h1.8c5.8-.1 6 .1 6.8 5.8a.8.8 0 0 0 1-.4c8.6-10.2 25.5-9 31.7 5.6a41.7 41.7 0 0 1-.4 34.3 19.2 19.2 0 0 1-32 4.6v13.2c0 2.6.7 5.3-.5 7.8Zm12.9-43.2c0 1.5 0 3.1.2 4.7a56.3 56.3 0 0 0 1.1 5.7c1.3 5 4.2 7.7 8.9 8a9.6 9.6 0 0 0 9.9-6.9 37.6 37.6 0 0 0-.2-23.6c-1.6-4.4-4.3-6-9-6-4.5 0-7.4 2-9 6.2a33.2 33.2 0 0 0-2 11.9ZM792.5 43.4a7.3 7.3 0 0 1-5 .9c-2.6-.3-5.1-.3-7.7-.5s-3.3 1.2-3.3 3.4l.2 37.6c0 4.1 0 4.3-4.1 4.3-1.5 0-3 .2-4.4.3-4 .2-5.6-1.1-5.2-5.2.9-11.4.1-22.8.4-34.3.1-6 0-6-5.9-5.9l-7 .1c-1.8 0-2.6-.6-2.6-2.3a2.6 2.6 0 0 0 0-.3c-.5-7 .3-7.9 7.3-8h33.6c1.5 0 3 0 3.7 1.6Z" style="fill:#0c0c0e"/><path d="M434 32a36.4 36.4 0 0 1 3.6 21.3c-1.4 1.1-2.8 2.1-4.1 3.3-7.7 6.9-15.4 13.7-23 20.7-1.8 1.6-3.4 1.9-5.6.7a80.2 80.2 0 0 0-9-4.4c-2.7-1.1-3.2-2.9-2.5-5.4.6-2.3 1.4-4.7 1.9-7 .7-3.3 2-6.6 2.1-10.2-1.6.4-2 1.5-2.5 2.4l-21.7 32.1c-2.4 3.6-2.7 3.7-6.6 2a323 323 0 0 0-10.7-4.1c-4.5-1.7-4.6-2-3.4-6.7l4.4-17.3h-.7l-13.3 17.1A35.8 35.8 0 0 1 336 57l2.7-2.7 17.9-21.5c4.9-6 3.6-5.8 10.3-2.3l1.6.8c8.9 4.4 8.4 2.4 6.2 12.6-.7 2.9-1.6 5.8-1.5 9.6 1.4-1.7 2.4-2.8 3.2-4L400 16.7c1.3-1.7 2.5-3 4.9-2 4.7 2 9.4 3.9 14.2 5.7 1.9.7 2.3 1.9 1.9 3.7-1 3.8-2 7.5-2.6 11.4s-2.6 7.2-2 11c0 0-.1-.5-.4 0h.5c5.6-5 11.5-9.8 17.5-14.5Z" style="fill:#fbcf08"/><path d="M476.7 35.4v50.4c0 2.5-.8 3.7-3.4 3.4a31.7 31.7 0 0 0-4.2 0c-3 0-4-.9-4-4 .7-20.3.2-40.7.3-61v-8.6c0-2.4 1.2-3.4 3.5-3.2a60 60 0 0 0 11.2 0c2.5-.1 3.6.9 4.3 3.3 4.4 16.6 9 33.2 13.6 49.7l.8 2.4 10.4-37c1.4-5 2.9-9.9 4-15 .7-2.5 1.9-3.5 4.6-3.3a104.5 104.5 0 0 0 10.6 0c2.5-.2 3.6.5 3.6 3.2v70.2c0 2.3-.7 3.6-3.3 3.3a41 41 0 0 0-5.3.3c-3.6.1-4.8-1-4.7-4.6.5-15.5.1-31 .2-46.4a5.6 5.6 0 0 0-.6-3.2l-6.1 22.2-7.8 28.8c-.6 2.1-1.7 3.2-4 3a15.6 15.6 0 0 0-2.4 0c-5.7.2-6.2-.2-7.6-5.7-3.2-12.5-6.6-25-10-37.6-.8-3.5-1.8-7-2.8-10.6ZM50.8 51v34.7c0 2.8-.8 3.7-3.5 3.4a55.7 55.7 0 0 0-6.2 0c-3.7.1-4-.1-4-4V26.3c0-2.5-.6-3.6-3.4-3.2-2.5.4-5.2 0-7.6.5-10.1 2-14.6 12.3-9.6 21.7 2.4 4.6 6.4 7.6 10.6 10.3 7.4 4.9 7 3.7 2.3 10.7L16 86.3a5.5 5.5 0 0 1-5.4 2.9c-2.8-.2-5.6 0-8.5-.1-.7 0-1.5.4-2-.3-.4-.8.3-1.5.7-2 4.6-6.9 9.2-13.8 14-20.5 1.6-2.3 1.7-3.6-.9-5.4C6 55.2 1 47.8 1 37.7.9 25.5 9 16 21.5 13.3c4.8-1 9.8-.5 14.7-.7 3.7-.1 7.5 0 11.2-.2 2.5 0 3.5.6 3.5 3.3V51ZM416.5 46.6c-.7-4 1.2-7.4 1.9-11S420 27.8 421 24c.4-1.8 0-3-1.9-3.7L405 14.8c-2.4-1-3.6.2-4.8 2l-23.6 32.6-3.2 4c-.2-3.8.7-6.7 1.4-9.6 2.2-10.2 2.7-8.2-6.2-12.6l-1.5-.7c-6.8-3.6-5.5-3.7-10.4 2.2l-17.9 21.5c-.8 1-1.8 1.8-2.7 2.7C333 37.3 341.1 22 356 10A51.6 51.6 0 0 1 433 29a25.5 25.5 0 0 1 1 3c-6 4.7-11.9 9.5-17.5 14.6ZM159.5 56.5v18.8c0 2.4.4 3.8 3.3 3.3 1.9-.4 2.7.7 2.7 2.5v18.2c0 1.7-.7 2.5-2.5 2.4h-7.7c-1.8 0-2.4-.6-2.4-2.4l.1-8c0-1.5-.6-2.2-2.3-2.2H126c-1.8 0-2.4.8-2.3 2.5v7.6c.1 1.7-.3 2.6-2.2 2.5h-8c-1.7 0-2.3-.7-2.3-2.3V80.6c0-1.2.3-2.2 1.8-2 2.3.4 3-1.1 3.6-3a91 91 0 0 0 4-25.6c.3-4.4.3-8.8.2-13.2 0-2.4 1-3.3 3.4-3.3h32.2c2.3 0 3.4.9 3.3 3.3v19.7Zm-31.5 22h16c1.5 0 2.1-.4 2.1-2V46.2c0-1.5-.5-2.2-2-2.1h-9.5c-1.4 0-2.2.5-2.2 2 0 11-1 21.7-4.4 32.6ZM342.9 76.5l13.3-17 .7-.1c-1.4 5.8-2.8 11.6-4.4 17.3-1.2 4.6-1 5 3.4 6.6a323 323 0 0 1 10.7 4.2c4 1.7 4.2 1.6 6.6-2L395 53.3c.6-.8 1-2 2.6-2.3-.2 3.6-1.5 6.9-2.2 10.2-.5 2.4-1.2 4.7-1.9 7-.7 2.5-.1 4.2 2.5 5.3a80.2 80.2 0 0 1 9 4.5c2.2 1.2 3.8.9 5.6-.8l23-20.6 4-3.3a46.8 46.8 0 0 1-23.4 40.5A51.4 51.4 0 0 1 344 79.2a4.7 4.7 0 0 1-1.1-2.7ZM544 48.7v-8.2a4.3 4.3 0 0 1 3-4.3 40 40 0 0 1 27.8-1.8c5.9 1.9 8.8 6.2 9.5 12.2 1.1 10 .1 20.2.6 30.3 0 3 .1 6 .4 9 .2 2.3-.3 3.4-2.8 3.2a37.8 37.8 0 0 0-6.2 0c-3 .3-5.1-.3-5-4.2a23.3 23.3 0 0 1-15.4 5A16.5 16.5 0 0 1 540 76.2a16 16 0 0 1 9.3-18.4 40.3 40.3 0 0 1 18.1-3.3c3.7 0 4.4-.8 3.8-4.4-.8-4.5-3.2-6.6-7.9-6.7a35.5 35.5 0 0 0-16.4 3.9Zm27.3 21a34.5 34.5 0 0 1 0-3.8c.2-2-.5-2.8-2.6-2.7a46.1 46.1 0 0 0-7.6.7c-3 .7-5.7 1.9-7 4.9s-.4 7.3 2 9.2c3.3 2.8 7.1 2.3 10.8 1s4.4-2.8 4.3-7v-2.3ZM213.5 74.6V83a4 4 0 0 1-2.8 4 37.7 37.7 0 0 1-27 1.4 19.3 19.3 0 0 1-12.8-12.2 41.1 41.1 0 0 1 .1-29.6 23 23 0 0 1 35-10c4.6 3.6 6.4 8.5 7.4 14 .8 4.2.5 8.5.6 12.8.1 2.3-.9 2.9-3 2.9l-25.4-.1c-2.7-.1-3.3.8-3 3.4a11 11 0 0 0 10.2 9.7 31 31 0 0 0 17.1-3Zm-22.6-18.3h3.5c7 0 6.9-.4 5.2-7.2-1.2-4.8-5.3-7-10-5.8-4 1-8.1 7.4-7.3 11.3a2 2 0 0 0 2.4 1.7h6.2ZM729.2 66.2h-13c-2 0-2.6.8-2.4 2.7.8 6.2 4.5 9.8 10.8 10.5a30.3 30.3 0 0 0 17.4-3.5c2.4-1.2 3.2-.8 2.8 1.8a9.4 9.4 0 0 0 0 1.8c.2 6.1-.5 7.1-6.4 8.9a39.6 39.6 0 0 1-18.4 1.3c-10-1.8-16.4-7.3-18.9-17.3-2.2-9-2-17.6 1.5-26.2a23 23 0 0 1 33.3-10.7c6.5 4 8.5 10.5 9.2 17.5.3 3.5.2 7 .3 10.6.1 2-.8 2.7-2.8 2.7h-13.3Zm-6.8-10h3.5c6.5 0 7-.7 5.1-7-1.4-5-5.2-7.1-10-6-4.3 1.1-8.1 7.3-7.3 11.6.3 1.3 1.3 1.3 2.2 1.4h6.5ZM105.9 61.3v25c0 2.1-.7 3-2.9 2.9a72.9 72.9 0 0 0-7.6 0c-2.2 0-3-.8-3-3l.1-16.1c0-3.8-.2-4-3.9-4-3.3 0-6.7.2-10 0-2.6-.2-3.7.5-3.6 3.4.2 5.5 0 11 .1 16.4 0 2.4-.6 3.5-3.2 3.3a52.6 52.6 0 0 0-5.6.3c-4 .1-5.3-1.1-5-5.3.3-4.5.2-9 .2-13.5V37.5c0-3.8.4-4 4-3.8a45.7 45.7 0 0 0 6.2-.1c2.3-.2 3.5.5 3.4 3L75 52.3c0 2.5.7 3.5 3.4 3.4 3.7-.2 7.4-.2 11.2 0 2.2.1 3-.8 3-2.9V37.1c-.2-2.7.6-4 3.6-3.6a26.2 26.2 0 0 0 6.2 0c3-.3 3.6.9 3.6 3.7-.2 8-.1 16-.1 24ZM236.8 57.8c5.1-7 10.3-14 15.2-21a6.9 6.9 0 0 1 6.7-3.2h9.4l-3.9 5.4c-4.1 5.7-8.2 11.5-12.5 17-1.8 2.3-1.6 4 0 6.3L268.6 86l2 3.1h-13.9c-1.5 0-2.1-1.2-2.9-2.2L237 63.6c-.9.1-.8.8-.8 1.4v20c.1 3.7-.4 4.2-4.1 4.1a46.5 46.5 0 0 0-6 0c-2.6.3-3.7-.8-3.6-3.4V37.1c0-3.5.4-3.8 4-3.7a56.2 56.2 0 0 0 6.5 0c2.4-.2 3.3.8 3.2 3.2v19.1a2 2 0 0 0 .6 2Z" style="fill:#0c0c0e"/><path d="m698.2 33.5-15.6 21c-3.3 4.3-3.2 5 0 9.4 6 8.1 11.9 16.4 18.2 25.2h-14.2c-1.4 0-2-1-2.7-2l-15-21a6.4 6.4 0 0 0-2.5-2.5c-.9.5-.4 1.4-.4 2l.1 20.4c0 2.4-.8 3.3-3.3 3.1a64.9 64.9 0 0 0-7.3 0c-2.2.1-3.1-.6-3-2.8V36.6c0-2.5 1-3.3 3.4-3.1a45.3 45.3 0 0 0 6.7 0c2.9-.3 3.6 1 3.6 3.6-.2 5.8-.2 11.7-.2 17.6a5.5 5.5 0 0 0 .5 3.2l3.3-4.3L682 36.7a7.1 7.1 0 0 1 6.5-3.2h9.6ZM309.8 76.2v9c0 1.4-1 2-2 2.7-14.3 8.5-35.2-1.5-37.5-17.8-1-6.4-1.1-12.7.5-19 3.8-14.2 14.3-19 26.7-18.6a37.2 37.2 0 0 1 7.9.8c2.4.6 3.8 1.8 4 4.3v.6c.1 2.5 1.2 5.7 0 7.1-1.4 1.8-4-1-6.2-1.4a27.2 27.2 0 0 0-8.7-.5c-4.9.5-8.7 4-10 9.1a34.6 34.6 0 0 0-.7 14.9c1.9 10.1 8.8 14.4 18.8 11.5 2.3-.7 4.5-1.7 7.1-2.7ZM416.5 46.6l-.4-.1c.2-.5.3 0 .4 0Z" style="fill:#0c0c0e"/></g></g></svg>