<svg width="34" height="28" fill="none" xmlns="http://www.w3.org/2000/svg"><path d="M.996 2.91V5l8.837 8.803.61 1.13H6.244l-1.575.522.525 2.09 13.646 7.32h2.624l2.624-.524 2.624 2.614 6.299-6.795-2.625-2.614v-3.66l-2.099-3.658-3.149-3.137L18.84.818l-2.1.523-1.049 1.568h-1.575L12.543 5l-2.624.523-1.05 1.568L2.57 1.864.996 2.909z" fill="#fff"/><path d="M8.917 13.936l-.32-.313C6.014 11.1 3.426 8.586.852 6.056a2.776 2.776 0 01-.17-3.822c.31-.356.705-.627 1.15-.788 1.095-.397 2.101-.175 2.942.63 1.25 1.198 2.479 2.42 3.718 3.632l.359.35.238-.383c.433-.7 1.027-1.137 1.875-1.202.663-.051 1.14-.407 1.479-.973.54-.906 1.367-1.31 2.401-1.33.168-.006.345.017.539.032.208-.72.576-1.328 1.228-1.742 1.08-.693 2.499-.607 3.42.284a779.852 779.852 0 015.962 5.825c.4.391.404.899.047 1.262-.356.362-.854.349-1.26-.047-1.878-1.828-3.752-3.66-5.623-5.494-.102-.1-.205-.2-.312-.295a1.082 1.082 0 00-1.481.065 1.074 1.074 0 00-.003 1.477c.183.201.385.385.58.575l3.318 3.242c.449.439.504.951.152 1.327-.35.375-.9.345-1.363-.105l-4.425-4.324c-.483-.472-1.142-.474-1.577-.045-.434.43-.405 1.09.066 1.572l.215.21 3.841 3.754c.096.086.186.179.269.277a.864.864 0 01-.064 1.14.871.871 0 01-1.142.063 3.593 3.593 0 01-.312-.294l-4.64-4.535c-.477-.465-1.155-.454-1.575-.008-.42.446-.38 1.073.072 1.542l.246.24 4.083 3.99c.556.544.646 1.046.26 1.448-.387.402-.906.33-1.457-.208L3.83 3.548a4.302 4.302 0 00-.344-.324 1.084 1.084 0 00-1.45.084 1.075 1.075 0 00-.038 1.446c.105.118.215.23.331.336L14.56 17.04l.246.24c.367.378.417.835.135 1.2-.256.331-.739.417-1.17.183-.955-.52-1.905-1.048-2.855-1.576-.801-.444-1.598-.893-2.4-1.338-1.1-.61-2.11-.524-2.798.23-.269.296-.257.533.059.75 3.639 2.495 7.404 4.775 11.42 6.627 1.07.492 2.168.918 3.368.953.471.015.943-.007 1.41-.066a2.744 2.744 0 001.688-.874c1.867-1.947 3.77-3.857 5.65-5.794.16-.175.27-.39.319-.622.211-1.077.078-2.13-.283-3.165a1.422 1.422 0 01.02-.891c.114-.307.437-.445.785-.412.382.037.617.257.757.608a7.205 7.205 0 01.459 3.874.868.868 0 00.31.888c.657.597 1.288 1.222 1.923 1.843.527.515.53.952.013 1.477l-6.304 6.42c-.519.53-.954.54-1.48.026-.635-.62-1.256-1.256-1.9-1.866-.106-.103-.337-.186-.46-.142-1.953.698-3.878.526-5.762-.193-2.48-.95-4.806-2.221-7.078-3.58a135.354 135.354 0 01-5.687-3.611c-1.554-1.038-1.512-2.783.033-3.89 1.076-.768 2.242-.889 3.479-.49.144.046.286.095.428.143l.033-.057zM30.383 19l-5.32 5.418 1.486 1.453 5.325-5.422L30.384 19z" fill="#565555"/><path d="M28.677 9.497a.834.834 0 01-.047 1.194.853.853 0 01-1.433-.639.867.867 0 01.252-.597.851.851 0 011.227.042z" fill="#565555"/></svg>