<svg width="15" height="22" fill="none" xmlns="http://www.w3.org/2000/svg"><path d="M11.106 3.007c-1.448.162-2.789.137-4.017.484-2.657.752-3.574 4.034-1.826 6.478.578.809 1.419 1.463 2.217 2.095.752.596 1.607 1.07 2.497 1.65-.799 1.173-1.562 2.306-2.337 3.43-.986 1.43-1.963 2.866-2.99 4.27-.195.267-.597.53-.918.548-1.16.066-2.325.026-3.732.026l5.103-7.342c-.529-.418-1.051-.817-1.557-1.235C1.046 11.344.061 8.738.702 5.615 1.28 2.795 3.197 1.038 6.004.604 8.94.15 11.954.184 15 0v21.919h-3.897l.003-18.912z" fill="#000"/></svg>