<svg width="16" height="16" fill="none" xmlns="http://www.w3.org/2000/svg"><path d="M4.618 15.75c-.354-.08-.722-.121-1.058-.248-1.47-.554-2.364-1.624-2.648-3.181a4.107 4.107 0 011.864-4.205c.09-.055.116-.117.116-.218-.003-1.831-.003-3.662 0-5.492 0-.855.352-1.52 1.107-1.916C5.363-.23 6.956.753 6.98 2.318c.011.706.003 1.412.003 2.118 0 1.16 0 2.32.002 3.48 0 .056.026.137.067.163.483.3.902.696 1.23 1.165.872-1.05 1.97-1.579 3.326-1.484 1.032.071 1.896.517 2.585 1.295 1.405 1.585 1.253 4.021-.347 5.47-1.498 1.358-4.037 1.374-5.56-.536-.119.142-.23.288-.354.423a4.009 4.009 0 01-2.586 1.312.677.677 0 00-.1.026h-.628zM6.471 4.125v-1.72a1.76 1.76 0 00-.23-.892C5.803.743 4.696.53 4.012 1.086c-.423.344-.615.787-.614 1.33.003 1.886 0 3.772.004 5.66 0 .19-.07.297-.224.402-.28.19-.565.385-.801.626-.712.721-1.028 1.613-1.022 2.628a.448.448 0 00.17.364c.606.516 1.296.657 2.058.48.513-.118.894-.436 1.238-.825.553-.626 1.26-.92 2.087-.903.211.004.422.04.6.059.139-.366.271-.727.416-1.083.033-.08.036-.13-.012-.202A3.54 3.54 0 006.667 8.47c-.132-.072-.206-.165-.198-.323.008-.13 0-.259 0-.405H6.29c-.349 0-.698.002-1.048 0-.197-.002-.303-.098-.303-.258s.108-.254.305-.257c.239-.005.478 0 .718 0h.494V6.71h-.175c-.354 0-.708.003-1.062-.002-.205-.002-.33-.163-.268-.337.05-.14.166-.177.3-.177h1.048c.053 0 .106-.005.162-.008v-.513h-.168c-.364 0-.728.002-1.093-.002-.155-.002-.25-.098-.26-.237-.007-.146.086-.253.242-.274a.892.892 0 01.12-.003h1.002c.052 0 .105-.005.156-.007v-.507h-.395c-.284 0-.569.002-.853 0-.169-.003-.273-.107-.273-.258.001-.15.106-.248.276-.256.054-.003.11 0 .164 0l1.092-.004zm4.869 4.136c-1.807-.032-3.33 1.474-3.334 3.34-.003 1.878 1.458 3.343 3.288 3.37 1.81.029 3.322-1.467 3.349-3.332.026-1.835-1.45-3.345-3.303-3.377v-.001zm-9.784 4.52c0 .01.002.02.004.028.537 1.643 2.32 2.698 3.998 2.364a3.57 3.57 0 002.35-1.557c.052-.076.049-.129.014-.214-.123-.312-.258-.623-.334-.947-.077-.325-.088-.665-.13-1.015a2.255 2.255 0 00-1.174-.012c-.52.13-.9.462-1.259.85-.743.807-1.669 1.042-2.718.79-.256-.06-.498-.188-.749-.287h-.002z" fill="#fff"/><path d="M1.871 11.63c.027-1.025.428-1.86 1.233-2.488.123-.094.253-.178.389-.252a.246.246 0 01.34.087c.072.117.045.257-.075.345-.121.09-.255.16-.372.252-.662.525-.983 1.223-1.004 2.066-.003.118-.02.234-.135.28-.074.03-.195.045-.246.004-.08-.063-.142-.287-.13-.295zM3.92 2.267a1.04 1.04 0 01.3-.68 1.01 1.01 0 01.671-.3c.16-.007.283.091.295.236.012.144-.083.25-.237.275-.349.055-.458.164-.527.527-.033.172-.14.266-.281.247-.141-.018-.229-.133-.22-.305zm8.865 8.226l.36.867c.205 0 .449-.01.69.005a.353.353 0 01.24.114c.043.057.053.19.016.246a.355.355 0 01-.239.142c-.242.018-.486.006-.709.006l-.362.87c.155.153.34.328.517.513.103.108.107.24.026.342a.234.234 0 01-.294.076.496.496 0 01-.141-.11 15.03 15.03 0 01-.412-.417c-.052-.055-.088-.065-.164-.029-.21.1-.431.177-.643.272a.172.172 0 00-.09.12c-.008.229 0 .455-.008.681-.008.185-.15.295-.312.252-.144-.038-.192-.152-.194-.288a14.92 14.92 0 010-.62c.003-.1-.033-.131-.126-.162-.234-.079-.46-.18-.72-.283-.13.133-.291.297-.454.459a.617.617 0 01-.138.114.227.227 0 01-.308-.063.237.237 0 01.01-.331c.135-.149.278-.29.42-.43a1.12 1.12 0 01.142-.106c-.088-.166-.165-.29-.22-.423-.055-.133-.087-.277-.136-.437h-.58c-.06 0-.12.003-.18 0-.154-.011-.262-.119-.262-.257s.109-.251.262-.255c.209-.006.419-.002.628-.002h.112c.118-.281.23-.548.355-.85l-.424-.424a1.22 1.22 0 01-.112-.12.262.262 0 01.103-.399.245.245 0 01.27.058c.13.12.25.247.372.374.055.058.102.124.152.186l.012-.054c.249-.095.499-.187.745-.29a.157.157 0 00.075-.117c.007-.216 0-.434.005-.65.006-.2.118-.307.285-.29.134.015.218.11.223.275.006.212.006.423 0 .635-.003.099.03.13.127.16.235.074.463.175.73.278.131-.134.29-.307.462-.464.065-.059.165-.114.245-.109.072.005.16.08.202.15.057.098.021.206-.06.29l-.498.495zm-1.458-.162a1.251 1.251 0 00-.908.375 1.287 1.287 0 00-.372.92c0 .679.574 1.264 1.24 1.28a1.277 1.277 0 00.943-.39 1.313 1.313 0 00.372-.962c-.015-.645-.594-1.22-1.275-1.223z" fill="#fff"/></svg>