<svg width="21" height="18" fill="none" xmlns="http://www.w3.org/2000/svg"><path d="M7.948 15.782c.1-1.373.198-2.745.28-4.119.014-.232.166-.337.307-.463 2.68-2.381 5.361-4.76 8.042-7.139.169-.14.33-.29.48-.449.145-.16.079-.264-.13-.278-.25-.018-.445.12-.642.241C13.017 5.6 9.73 7.608 6.48 9.665c-.625.395-1.146.495-1.853.234-1.18-.435-2.405-.752-3.61-1.126-.35-.11-.774-.211-.792-.644-.018-.433.372-.608.711-.742 1.527-.596 3.062-1.174 4.594-1.756 4.53-1.719 9.06-3.436 13.59-5.152.148-.059.3-.108.454-.148.595-.136 1.051.18 1.132.778.081.598-.125 1.172-.248 1.75-.952 4.407-1.907 8.816-2.863 13.226-.258 1.192-.953 1.45-1.96.722-1.405-1.015-2.812-2.027-4.208-3.056-.224-.165-.345-.15-.538.041-.668.658-1.358 1.295-2.038 1.944a1.66 1.66 0 01-.468.346c-.391.167-.465.117-.435-.3z" fill="#FDFEFE"/></svg>