<svg width="16" height="16" fill="none" xmlns="http://www.w3.org/2000/svg"><path d="M8.096.251c.094.025.188.049.282.076.33.099.62.293.832.557.1.121.093.25-.009.337-.102.086-.243.076-.353-.05-.175-.198-.375-.353-.659-.415.049.115.091.232.128.351a.52.52 0 01-.075.426.542.542 0 01-.375.233c-.177.028-.366.018-.484.192a.73.73 0 00-.121.548c.068.404.488.68.916.604.427-.077.829-.492.915-.948.047-.243.135-.334.297-.306.162.028.212.154.167.392-.016.078-.04.154-.06.239.14.053.276.099.407.156 1.586.7 2.56 1.875 2.896 3.54.02.102.062.138.166.15.708.081 1.073.632.867 1.295l-.188.592a1.203 1.203 0 01-.897.84.136.136 0 00-.084.042.128.128 0 00-.034.086c-.12.827-.617 1.387-1.35 1.776-.252.134-.506.265-.79.415.1.046.16.072.218.1 1.452.707 2.217 1.85 2.276 3.428.018.485-.347.834-.842.839-.291.003-.583 0-.872 0-.18 0-.283-.089-.28-.233.002-.144.101-.22.275-.221h.84c.272 0 .413-.14.414-.401.004-1.406-1.015-2.74-2.407-3.142a.295.295 0 00-.2.02c-1.303.696-2.604.669-3.913.013a.357.357 0 00-.243-.02A3.394 3.394 0 004.06 12.96c-.022.028-.042.058-.063.086-.106.14-.244.174-.359.091-.115-.082-.136-.22-.025-.345.238-.272.468-.559.747-.785.3-.243.652-.423.994-.638-.147-.084-.323-.174-.488-.28-.27-.175-.558-.335-.796-.546-.4-.355-.61-.82-.673-1.343-.011-.09-.05-.116-.129-.136a1.207 1.207 0 01-.91-.846c-.067-.206-.135-.413-.198-.62-.19-.617.178-1.176.832-1.26.122-.016.167-.05.194-.175.41-1.899 1.569-3.14 3.475-3.726.09-.027.122-.059.127-.152.033-.542.366-.886.912-.956.172-.022.198-.062.125-.218C7.75.943 7.637.808 7.447.757c-.13-.035-.22-.105-.214-.243.006-.145.114-.202.247-.23.039-.01.077-.02.114-.034l.502.001zM6.878 2.856c-1.274.287-2.43 1.255-2.951 2.477-.29.678-.417 1.376-.292 2.113.09.537.16 1.078.217 1.618.071.676.416 1.166 1.009 1.509.364.211.726.427 1.086.647.782.479 1.623.702 2.55.564.548-.081 1.035-.307 1.498-.598.344-.215.695-.42 1.053-.612.605-.323 1.038-.77 1.124-1.464.055-.445.087-.894.133-1.34.03-.3.102-.601.095-.9-.041-1.758-1.2-3.294-2.915-3.901-.153-.054-.239-.043-.352.083-.346.39-.776.598-1.323.5a1.235 1.235 0 01-.932-.695zm-3.56 5.75L3.1 6.79c-.372.033-.592.296-.505.616.068.253.15.502.24.748.079.223.243.368.485.453v-.001zM12.7 8.6a.728.728 0 00.476-.454c.085-.243.166-.486.235-.734.104-.383-.25-.666-.51-.612l-.2 1.802V8.6z" fill="#fff"/><path d="M6.891 15.749H3.856c-.608 0-.953-.33-.924-.923.015-.305.08-.607.14-.908.035-.173.16-.243.303-.2.134.04.178.148.147.318-.048.267-.102.535-.123.805-.025.321.118.453.447.453h6.132c.058-.003.115-.002.172.003.131.019.205.1.204.226 0 .12-.073.198-.196.22a.857.857 0 01-.155.005H6.891zM7.99 11.31a1.68 1.68 0 01-1.162-.465 1.587 1.587 0 01-.49-1.126.624.624 0 01.466-.624.21.21 0 00.104-.054.2.2 0 00.057-.1 1.03 1.03 0 01.58-.618c.177-.08.308-.049.375.083.066.132.007.243-.173.329-.273.13-.407.366-.368.653.02.128.081.246.176.337.096.091.218.15.35.167a.602.602 0 00.566-.213.57.57 0 00.1-.61c-.09-.23-.064-.353.09-.404.155-.052.274.026.352.253.034.099.077.153.189.184.276.077.45.334.448.623-.009.872-.755 1.587-1.66 1.585zM6.923 9.548l-.06-.005c-.017.077-.051.154-.048.229.021.605.555 1.087 1.19 1.081.633-.005 1.162-.5 1.173-1.1 0-.071-.045-.143-.07-.214l-.045.01c-.174.496-.518.8-1.063.802-.552.003-.9-.302-1.077-.803zm4.014-2.551c-.057.054-.115.148-.192.167-.071.017-.17-.036-.244-.078-.037-.02-.047-.086-.07-.131-.138-.275-.367-.427-.68-.423-.319.003-.548.162-.68.447-.01.023-.016.048-.027.07-.062.122-.177.17-.296.13a.235.235 0 01-.133-.121.222.222 0 01-.003-.177c.142-.401.425-.661.848-.769.281-.07.58-.04.84.087s.463.341.572.603c.022.05.035.103.065.195zm-4.864-.926c.243 0 .48.073.68.206.201.133.356.322.444.542.066.168.027.288-.11.344-.138.057-.25-.008-.323-.172a.725.725 0 00-.687-.461c-.305-.01-.566.173-.695.468-.073.167-.185.229-.323.178-.14-.05-.176-.178-.114-.344.087-.223.24-.416.442-.551a1.23 1.23 0 01.686-.21z" fill="#fff"/></svg>