<svg width="16" height="16" fill="none" xmlns="http://www.w3.org/2000/svg"><path d="M8.669 6.225c.147-.19.278-.363.415-.532.118-.145.25-.156.362-.015.61.776 1.216 1.556 1.658 2.451.354.716.367 1.419-.058 2.104a2.077 2.077 0 01-3.597-.087c-.051-.092-.103-.128-.21-.127a2.081 2.081 0 01-2.107-2.216c.017-.314.151-.635.287-.926.359-.77.876-1.44 1.388-2.11.066-.086.132-.172.2-.257.14-.178.278-.185.41-.004.389.523.77 1.051 1.152 1.578.033.043.06.085.1.141zm.605-.07c-.062.08-.108.136-.151.193-.483.641-.968 1.281-1.303 2.018-.1.218-.193.46-.202.695a1.658 1.658 0 002.055 1.678c.95-.235 1.505-1.298 1.16-2.14-.373-.905-.969-1.658-1.56-2.444h.001zM7.22 9.577a1.174 1.174 0 01-.023-.16c0-.202-.02-.408.014-.605.079-.459.303-.857.541-1.246.2-.327.415-.642.64-.988L7.225 4.934c-.564.74-1.104 1.447-1.485 2.26-.149.32-.23.647-.164 1.011.132.763.86 1.39 1.644 1.372h-.001z" fill="#fff"/><path d="M9.211 10.457c-.654-.008-1.265-.643-1.258-1.307 0-.164.082-.267.213-.27.132-.004.206.091.218.262a.912.912 0 00.855.876c.164.014.257.1.247.231-.011.132-.114.21-.275.208z" fill="#fff"/><path d="M7.721 16c-.571-.1-1.034-.438-1.521-.72-.647-.375-1.296-.74-1.932-1.133-1.392-.86-2.214-2.12-2.486-3.743a5.552 5.552 0 01-.063-.902c-.005-2.092-.006-4.185-.003-6.278 0-.668.33-.99.987-1.032 1.541-.097 2.978-.514 4.213-1.5.165-.13.317-.28.47-.427.365-.352.868-.356 1.227.004.97.976 2.158 1.513 3.481 1.766.432.083.873.12 1.312.163.546.053.872.397.874.952.002.703 0 1.405 0 2.108 0 .209-.083.316-.238.317-.155 0-.24-.108-.24-.313V3.185c0-.354-.1-.477-.44-.501-.895-.065-1.772-.213-2.616-.525-.913-.338-1.737-.82-2.43-1.52C8.105.426 7.902.42 7.699.625 6.671 1.654 5.415 2.225 4.016 2.5c-.472.092-.955.129-1.433.186-.25.03-.385.162-.385.414 0 2.275-.033 4.551.019 6.825.03 1.329.633 2.434 1.614 3.32.508.458 1.122.746 1.7 1.093.524.316 1.057.618 1.584.93.588.347 1.176.349 1.765.004.848-.497 1.701-.985 2.544-1.491 1.318-.79 2.09-1.965 2.335-3.492a5.02 5.02 0 00.041-.762c.005-.974.002-1.947.002-2.921v-.11c.005-.185.1-.302.243-.3.143.003.236.116.235.292-.007 1.203.035 2.409-.038 3.607-.082 1.339-.663 2.48-1.645 3.385-.345.32-.748.582-1.15.83-.714.442-1.448.848-2.168 1.279-.31.192-.65.33-1.004.41L7.72 16z" fill="#fff"/><path d="M13.024 6.91c0 .927.02 1.854-.004 2.78-.036 1.41-.645 2.53-1.811 3.29-.905.59-1.858 1.104-2.792 1.648-.247.144-.518.176-.766.032-1.04-.604-2.105-1.177-3.098-1.856-.921-.63-1.414-1.586-1.549-2.71a6.811 6.811 0 01-.031-.793c-.004-.942 0-1.884-.003-2.827 0-.113.026-.22.14-.247.075-.018.188-.01.237.037.056.054.082.163.084.25.006 1.005-.004 2.01.006 3.015.013 1.41.616 2.483 1.824 3.197.829.49 1.662.972 2.49 1.46.162.095.317.104.48.008.887-.522 1.789-1.02 2.66-1.567 1.085-.681 1.647-1.702 1.665-2.989.025-1.863.005-3.727.01-5.591 0-.136-.051-.18-.174-.197-1.567-.215-3.014-.739-4.282-1.718-.087-.068-.143-.06-.227.003-1.15.89-2.456 1.403-3.871 1.653a7.332 7.332 0 01-.426.064c-.113.013-.156.064-.154.183.007.418.003.835.003 1.25 0 .192-.088.297-.24.292-.146-.004-.223-.103-.224-.292V3.988c0-.355.196-.56.55-.606 1.197-.16 2.331-.513 3.37-1.144.256-.154.497-.334.74-.507.252-.181.48-.192.722-.005 1.179.91 2.516 1.418 3.973 1.631l.198.03c.315.05.5.264.5.588.002.979.002 1.958 0 2.936z" fill="#fff"/></svg>