<svg width="16" height="16" fill="none" xmlns="http://www.w3.org/2000/svg"><path d="M15 8.462c-.037.26-.065.522-.112.78a6.93 6.93 0 01-1.494 3.217c-.093.114-.198.143-.296.085-.097-.059-.12-.157-.082-.261a.516.516 0 01.093-.133c.576-.708 1.002-1.499 1.229-2.382.581-2.254.144-4.294-1.364-6.075a6.23 6.23 0 00-3.915-2.19c-2.012-.31-3.817.194-5.367 1.526-1.155.992-1.87 2.25-2.16 3.745-.602 3.116 1.16 6.258 4.13 7.38.937.36 1.946.497 2.946.402a6.496 6.496 0 003.7-1.58c.028-.024.055-.048.084-.07.117-.094.233-.095.315-.004.082.091.073.223-.05.32-.255.206-.507.417-.777.6a6.736 6.736 0 01-2.915 1.112c-3.73.503-7.002-1.938-7.76-5.3-.612-2.719.15-5.05 2.217-6.923.994-.9 2.182-1.43 3.511-1.63.183-.028.365-.054.55-.081h1.038l.456.061c1.253.183 2.385.656 3.372 1.452 1.37 1.104 2.227 2.52 2.541 4.256.044.244.073.491.11.737v.956z" fill="#F6F6F6"/><path d="M3.705 8.424h8.594v-.86H6.442c-.055.002-.11 0-.164-.003-.116-.012-.18-.08-.186-.196a.2.2 0 01.187-.212.827.827 0 01.095 0h5.86c.324 0 .494.17.494.497v.724c0 .292-.18.472-.465.472H3.739c-.278 0-.458-.183-.46-.463 0-.26-.003-.519 0-.779.002-.27.185-.45.457-.45H5.28c.155 0 .253.08.255.204.002.124-.093.206-.252.207H3.706l-.001.859zm4.506 1.866v2.29c.002.05 0 .1-.007.15-.02.112-.09.183-.205.183-.114 0-.183-.073-.206-.183a.703.703 0 01-.005-.136V10.29l-.027-.01-.25.412c-.07.112-.135.227-.205.339-.084.134-.199.17-.308.102-.108-.069-.123-.186-.044-.323.048-.083.098-.164.146-.246l.684-1.132c.133-.22.298-.22.433.003a579.304 579.304 0 01.853 1.413c.056.114.027.228-.07.287-.098.06-.214.036-.284-.075-.138-.22-.27-.443-.405-.664a4.104 4.104 0 00-.073-.112l-.027.005zm2.227-.01l-.393.65c-.026.043-.05.087-.08.128-.075.108-.182.137-.282.078-.101-.058-.133-.179-.069-.296.062-.112.13-.22.196-.33.22-.364.438-.732.662-1.097.117-.192.29-.196.404-.008.288.469.573.94.857 1.411.078.13.051.258-.06.32-.112.063-.215.023-.297-.105l-.042-.071-.354-.584a.213.213 0 00-.092-.09v2.37c-.006.157-.084.256-.206.256-.123 0-.215-.1-.215-.262v-2.363l-.03-.006zm-5.356.004l-.415.686c-.02.036-.041.07-.065.104-.073.096-.182.119-.277.06a.205.205 0 01-.073-.274c.03-.061.068-.119.103-.177l.76-1.261c.125-.206.294-.207.419 0 .279.458.556.917.833 1.377.087.146.073.265-.04.335-.112.07-.225.029-.314-.117-.15-.244-.296-.49-.468-.774-.004.085-.008.13-.008.176v2.241c-.005.155-.085.255-.208.255-.123 0-.215-.1-.216-.26v-2.362l-.031-.008zm2.677-6.189l-.368.612c-.031.05-.06.102-.093.15-.082.122-.196.154-.302.087-.098-.062-.121-.183-.052-.301.083-.146.173-.288.26-.432.194-.324.387-.647.583-.97.13-.215.297-.217.426-.004.28.458.557.917.833 1.376.086.143.067.27-.044.334-.112.065-.227.02-.314-.122-.149-.243-.295-.487-.468-.726-.002.047-.007.093-.007.14v2.226c-.005.166-.085.264-.215.261-.129-.002-.207-.101-.208-.267V4.104l-.031-.009zm-2.679.003c-.146.246-.292.494-.446.735a.328.328 0 01-.186.136.214.214 0 01-.18-.085.251.251 0 01-.01-.215c.29-.499.587-.994.891-1.485.1-.161.27-.137.38.043.282.463.562.925.84 1.388.007.012.014.023.02.037.06.115.037.23-.058.29-.1.064-.223.038-.294-.074-.14-.219-.27-.442-.406-.663a.266.266 0 00-.096-.101v2.385c-.008.145-.09.238-.21.24-.12 0-.205-.092-.213-.236-.003-.036 0-.073 0-.11V4.106l-.032-.007zm5.808.004v2.302c0 .22-.068.32-.21.322-.14 0-.212-.106-.212-.319V4.066c-.04.055-.063.083-.082.115-.134.222-.266.445-.402.666-.082.133-.2.167-.31.096-.1-.065-.12-.185-.044-.313.283-.472.567-.943.852-1.414.113-.184.283-.184.396 0 .288.47.573.94.856 1.413.076.127.056.248-.046.313-.11.069-.228.033-.31-.099-.152-.247-.302-.497-.452-.746l-.036.006z" fill="#F6F6F6"/></svg>