<svg width="26" height="31" fill="none" xmlns="http://www.w3.org/2000/svg"><path d="M12.654 30.118l.041.032h.053l.462-.001h.049l.04-.03c.069-.05.136-.095.208-.142.049-.032.1-.066.152-.103.125-.085.252-.182.358-.303h0c2.825-3.23 5.648-6.462 8.469-9.696.646-.74 1.236-1.53 1.646-2.436a11.115 11.115 0 00.884-6.364c-.452-2.982-1.863-5.468-4.2-7.433-1.969-1.655-4.271-2.549-6.855-2.748h0c-2.377-.183-4.672.194-6.74 1.37-2.247 1.275-3.912 2.88-4.976 4.81C1.182 9.004.725 11.247.88 13.788c.13 2.155.888 4.114 2.336 5.78 2.863 3.298 5.733 6.59 8.612 9.875h0c.123.14.267.257.409.365.062.047.122.09.18.132.08.059.159.116.238.178zm9-13.093l.13.075-.13-.075c-.372.65-.88 1.228-1.395 1.814l-.312.358a10408.044 10408.044 0 01-6.968 7.996 1680.223 1680.223 0 00-1.216-1.393h0c-2.27-2.602-4.535-5.206-6.796-7.812-1.01-1.165-1.536-2.546-1.69-4.047h0c-.386-3.753.982-6.783 4.085-9.026h0c1.925-1.395 4.147-1.934 6.526-1.679h0c2.1.226 3.842.9 5.232 1.994 1.39 1.093 2.437 2.611 3.132 4.536.893 2.472.728 4.947-.598 7.26z" fill="#fff" stroke="#fff" stroke-width=".3"/><path d="M13.015 7.014c3.243.054 5.819 2.615 5.773 5.738-.045 3.123-2.666 5.656-5.83 5.624-3.24-.033-5.846-2.622-5.788-5.75.057-3.128 2.696-5.663 5.845-5.612zm3.7 5.68a3.615 3.615 0 00-1.092-2.573 3.786 3.786 0 00-5.278-.01 3.648 3.648 0 00-.813 1.186 3.581 3.581 0 00-.286 1.4c.002.964.393 1.89 1.09 2.574a3.783 3.783 0 005.278.008 3.617 3.617 0 001.101-2.584z" fill="#fff"/><path d="M13.015 7.014c3.243.054 5.819 2.615 5.773 5.738-.045 3.123-2.666 5.656-5.83 5.624-3.24-.033-5.846-2.622-5.788-5.75.057-3.128 2.696-5.663 5.845-5.612zm3.7 5.68a3.615 3.615 0 00-1.092-2.573 3.786 3.786 0 00-5.278-.01 3.648 3.648 0 00-.813 1.186 3.581 3.581 0 00-.286 1.4c.002.964.393 1.89 1.09 2.574a3.783 3.783 0 005.278.008 3.617 3.617 0 001.101-2.584z" stroke="#fff"/></svg>