<svg width="16" height="16" fill="none" xmlns="http://www.w3.org/2000/svg"><path d="M.609 2.884c.07-.142.116-.305.217-.42.107-.123.26-.21.402-.293.065-.037.103-.06.104-.147.01-.52.268-.773.784-.773h10.015a.95.95 0 01.129.004c.124.019.204.088.209.22.004.12-.09.21-.227.213-.236.005-.471.002-.707.003h-.14v1.256c.052.003.099.007.146.007h2.352c.272 0 .342-.072.342-.345v-.614c-.001-.212-.087-.3-.299-.304-.25-.003-.5 0-.75 0-.172 0-.27-.08-.273-.213-.002-.133.1-.22.267-.224.265-.003.53-.007.794 0 .426.014.692.296.693.731 0 .098.018.151.121.192.372.147.591.435.594.836.008 1.008.031 2.018-.03 3.024-.072 1.193-.552 2.238-1.334 3.133a.468.468 0 00-.129.336c.005 1.306 0 2.612.004 3.918 0 .542-.218.959-.704 1.19a1.448 1.448 0 01-.598.129c-3.06.008-6.118.01-9.177.004-.784 0-1.302-.529-1.305-1.32v-.629c0-.16.086-.259.214-.259s.214.098.217.259c.004.22 0 .44 0 .658.006.502.32.829.816.851.034.002.067 0 .101 0h9.105c.467 0 .775-.22.874-.627a.92.92 0 00.021-.217c.002-1.203.002-2.407 0-3.61 0-.033-.004-.065-.008-.123a5.443 5.443 0 01-2.418 1.167v.222c-.008.333-.217.569-.543.61a1.004 1.004 0 01-.13.007H5.639c-.352 0-.604-.183-.66-.488-.02-.11-.013-.223-.019-.351a5.427 5.427 0 01-2.412-1.171c-.004.073-.008.123-.008.172v1.856a.769.769 0 01-.015.174.195.195 0 01-.073.123.19.19 0 01-.137.038c-.115-.005-.186-.073-.203-.19a1.027 1.027 0 01-.004-.147c0-.77.002-1.54-.003-2.31a.363.363 0 00-.08-.22A5.489 5.489 0 01.627 5.98a1.087 1.087 0 00-.02-.11V2.884zm10.766.52c0 .286.013.563-.002.839-.042.738-.773 1.269-1.476 1.072-.162-.046-.313-.13-.478-.2v.179c-.003.604.007 1.21-.012 1.812-.014.464-.367.89-.811 1.035a1.196 1.196 0 01-1.272-.354c-.215-.255-.299-.55-.3-.876-.003-.492.005-.985-.008-1.476-.01-.4-.33-.702-.73-.723a.747.747 0 00-.514.178.765.765 0 00-.261.482c-.02.15-.015.302-.028.452-.073.819-.996 1.33-1.715.949-.466-.247-.67-.65-.671-1.17-.002-.677 0-1.354 0-2.031v-.164h-.552c-.003.037-.006.061-.006.085 0 1.852.001 3.703.003 5.555a.267.267 0 00.078.171c.378.37.819.668 1.3.88.332.145.68.25 1.027.376.078-.451.285-.65.67-.65 1.598-.004 3.195-.004 4.792 0 .333 0 .57.216.619.537.004.027.01.053.017.085a4.93 4.93 0 002.303-1.195.301.301 0 00.112-.249c-.004-1.812-.005-3.625-.003-5.438v-.16l-2.082-.001zm-.443-1.702H3.538c-.003.047-.008.085-.008.123v3.8c0 .06.006.118.015.175.026.19.121.364.268.486a.744.744 0 00.522.17.748.748 0 00.497-.218.766.766 0 00.223-.5c.008-.136.012-.272.025-.408.065-.7.801-1.21 1.47-1.018.57.162.899.603.906 1.219.005.467-.003.935.002 1.403.006.57.471.949.979.8.342-.1.547-.396.548-.8v-2.66a.756.756 0 01.019-.187c.028-.109.111-.177.214-.147.072.022.142.096.188.165.032.046.021.122.032.183a.78.78 0 00.267.455.763.763 0 00.493.176c.377-.01.73-.304.738-.669.017-.843.005-1.685.005-2.527 0-.003-.003-.007-.009-.021zM7.997 11.3h2.352c.199 0 .246-.05.247-.25v-.497c0-.257-.036-.293-.293-.293H6.51c-.298 0-.596-.002-.894 0-.163.002-.217.058-.217.22-.002.18 0 .36 0 .54 0 .238.04.278.277.278l2.321.002zM2.092 8.634V3.397c-.222 0-.419-.048-.574-.208-.155-.161-.198-.357-.197-.587-.22.122-.282.303-.282.52 0 .8-.003 1.598 0 2.396.005 1.098.314 2.098.954 2.99.03.04.06.073.101.126h-.002zM13.895 3.41v5.2c.016-.004.028 0 .033-.008.024-.03.046-.062.069-.093.642-.896.95-1.901.954-3.004.003-.789 0-1.577 0-2.366a.827.827 0 00-.027-.23c-.039-.132-.108-.244-.253-.292-.04.536-.193.693-.774.793h-.002zm-10.81-.463V1.694c-.37 0-.729-.006-1.088.003-.153.004-.234.103-.237.257-.004.253-.004.506 0 .759.003.127.073.226.199.23.376.01.749.004 1.128.004h-.003z" fill="#fff"/></svg>