<svg width="26" height="24" fill="none" xmlns="http://www.w3.org/2000/svg"><path d="M23.399 21.453c-1.135-.228-.852-.932-.877-1.606a11.53 11.53 0 010-2.105c.428-2.86-.567-4.923-2.902-6.382-.724-.454-1.306-1.155-2.01-1.654-.703-.5-1.151-1.128-.98-2.105.184-1.05-.233-1.354-1.226-1.342-.94 0-1.439.187-1.252 1.29.165.96-.201 1.203-1.135 1.267-1.302.099-1.26-.668-1.134-1.534.15-1.188-.596-.98-1.235-.984-.638-.003-1.418-.19-1.25.975.192 1.245-.327 2.02-1.292 2.706-1.055.74-1.957 1.73-2.999 2.5-1.211.902-1.674 2.054-1.603 3.585.066 1.446.023 2.899 0 4.352 0 .358.162.848-.44.902-1.452.13-.652 1.293-.72 1.96-.074 1.011.777.663 1.251.669 3.121.027 6.228 0 9.343 0h9.768c.392 0 .993.165.985-.5-.009-.664.425-1.85-.292-1.994zm-3.226-1.603c-.182 1.203-.346 1.573-1.501 1.504-1.881-.108-3.77-.03-5.657-.03-2.077 0-4.151-.027-6.225.018-.684 0-.948-.204-.851-.923a2.966 2.966 0 000-.903c-.625-3.275.587-5.57 3.262-7.233.832-.52 1.552-1.067 2.554-.902 1.577.27 3.186-.436 4.775.601 2.828 1.883 4.196 4.238 3.643 7.868z" fill="#fff"/><path d="M25.217 5.113C21.744 1.805 17.642.21 13.029 0 8.75.198 4.885 1.534 1.571 4.457-.502 6.286-.5 6.41 1.436 8.47c.434.46.876.903 1.305 1.378.655.716 1.28.655 1.966 0 .633-.602 1.265-1.254 2.014-1.63 1.155-.58 1.615-1.417 1.462-2.728-.057-.493 0-1.002 0-1.504-.029-.58.141-.875.734-1.038 2.704-.75 5.544-.75 8.248 0 .5.136.817.355.707.903-.548 2.634.66 4.21 2.755 5.302.28.188.53.422.743.692.667.688 1.313.667 1.963-.027.65-.695 1.308-1.447 2.009-2.106.982-.935.803-1.696-.125-2.598zM3.844 7.13c-.158.183-.46-.229-.612-.457-.213-.301.093-.43.255-.55.641-.482 1.3-.936 2.102-1.504.352 1.795-1.12 1.795-1.745 2.51zm18.927-.391c-.161.168-.354.412-.544.424-.59.054-1.8-1.63-1.742-2.379.85.247 1.444.902 2.133 1.383.19.148.412.304.153.572zm-12.038 8.325c-.105.8-.548 1.342-1.262 1.33a1.106 1.106 0 01-.484-.09 1.165 1.165 0 01-.405-.29 1.25 1.25 0 01-.257-.443 1.305 1.305 0 01-.063-.516 1.267 1.267 0 01.083-.471 1.22 1.22 0 01.251-.4 1.13 1.13 0 01.378-.263c.142-.06.293-.09.445-.087.795-.042 1.144.503 1.314 1.23zm5.774 1.364c-.7-.208-1.243-.62-1.155-1.432.018-.341.163-.662.403-.89.24-.229.557-.346.88-.328.322.02.624.173.84.428.215.255.326.59.309.932-.029.782-.56 1.188-1.277 1.29zm-2.32-1.532c.025 1.04-.469 1.504-1.192 1.486a1.017 1.017 0 01-.45-.074 1.068 1.068 0 01-.382-.265 1.149 1.149 0 01-.243-.41 1.2 1.2 0 01-.06-.478c-.006-.836.414-1.32 1.192-1.32a1 1 0 01.416.054c.133.048.257.123.363.222.106.099.192.22.253.354.06.135.096.282.103.431zm-3.441 3.894c-.136.731-.409 1.27-1.16 1.32-.812.058-1.286-.426-1.317-1.202-.031-.776.485-1.3 1.248-1.297.712-.006 1.061.524 1.229 1.18zm5.868-1.198c.664.078 1.158.493 1.167 1.203.018.176-.002.355-.058.522-.056.168-.146.32-.265.445a1.11 1.11 0 01-.421.278 1.056 1.056 0 01-.493.057 1.052 1.052 0 01-.49-.072 1.107 1.107 0 01-.413-.291 1.192 1.192 0 01-.251-.452 1.244 1.244 0 01-.04-.523c.033-.698.521-1.125 1.264-1.167zm-3.501 2.532c-.803-.027-1.237-.43-1.254-1.266a1.168 1.168 0 01.043-.479 1.12 1.12 0 01.23-.413 1.04 1.04 0 01.374-.271.989.989 0 01.448-.077c.675-.033 1.174.301 1.228 1.098.054.797-.317 1.293-1.07 1.408z" fill="#fff"/></svg>