<svg width="33" height="30" fill="none" xmlns="http://www.w3.org/2000/svg"><path d="M4.064 30l-.79-18.707L5.43 4.578 14.927 1.3l4.362 2.398 13.71 13.493v12.807L4.064 30z" fill="#F81155"/><path d="M10.785 17.7c-2.593-.037-5.03-.621-7.175-2.101C1.329 14.024.196 11.32.94 8.59c.638-2.327 2.115-4.045 4.03-5.405C7.507 1.388 10.346.448 13.464.297c2.64-.129 5.138.3 7.401 1.708 1.776 1.105 2.995 2.645 3.334 4.756a6.252 6.252 0 01-.9 4.426c-2.412 3.823-6.044 5.674-10.41 6.298-.697.099-1.402.144-2.103.215zm-.01-4.052c2.303-.025 4.43-.614 6.37-1.822 1.143-.711 2.127-1.593 2.73-2.83.622-1.274.37-2.41-.782-3.25a6.095 6.095 0 00-1.541-.848c-2.88-1.006-5.694-.658-8.426.557-1.619.721-3.017 1.733-3.912 3.316-.756 1.34-.498 2.594.732 3.51 1.44 1.071 3.11 1.33 4.829 1.367z" fill="#fff"/></svg>