<svg width="43" height="43" fill="none" xmlns="http://www.w3.org/2000/svg"><path d="M0 36.093c.59-2.085 1.19-4.17 1.768-6.254C4.372 20.42 6.973 11 9.572 1.578c.336-1.232 1.354-1.82 2.58-1.483 2.543.7 5.082 1.406 7.618 2.12 1.279.361 1.815 1.39 1.447 2.722-1.21 4.372-2.42 8.745-3.628 13.118-.018.065-.027.132-.06.306.546-.494 1.02-.918 1.492-1.352l8.9-8.096c.973-.885 2.107-.836 2.995.142 1.763 1.942 3.52 3.89 5.272 5.842.905 1.007.825 2.158-.185 3.076-4.566 4.15-9.128 8.3-13.686 12.455a30.05 30.05 0 00-.437.41h18.796c.306-.012.613.018.912.088.408.109.77.352 1.025.691.255.34.39.754.384 1.18.004 2.742.004 5.484 0 8.226.002.519-.2 1.018-.563 1.387-.362.37-.856.58-1.372.586-.531.011-1.064 0-1.596 0H6.046A6.045 6.045 0 012.38 41.75a6.092 6.092 0 01-2.168-3.22c-.07-.252-.137-.505-.204-.757L0 36.092zM16.379 17.61l1.045-3.816-2.001-.564c-.82-.225-1.641-.45-2.458-.684-.383-.113-.588-.431-.514-.754.083-.366.392-.557.801-.493.082.018.162.041.241.068l4.28 1.183 1.053-3.815L9.62 6.172 8.57 9.987c.4.113.76.207 1.122.31.36.102.723.207 1.085.312.613.178.83.444.714.879-.112.409-.463.523-1.078.351-.72-.2-1.44-.397-2.19-.605l-1.05 3.812 9.205 2.566zm9.66 14.538h-3.895V41.7h3.904v-.87c.01-.491.243-.768.642-.773.398-.004.636.262.654.76.01.29 0 .58 0 .885h3.902v-9.556h-3.901v5.787c0 .57-.225.854-.643.856-.419.003-.652-.287-.655-.844v-2.023l-.008-3.773zm-15.674-.025H6.177c-2.57.008-4.493 1.684-4.869 4.24-.367 2.505 1.589 5.094 4.098 5.283 1.6.12 3.213.06 4.824.08a.502.502 0 00.14-.044l-.005-9.56zm1.323 9.578h3.905V32.15h-3.905v9.551zm5.225-9.561v9.567h3.885V32.14h-3.885zm15.68 0v9.558h3.883V32.14h-3.882zM18.744 19l6.414 7.11 2.917-2.659-6.416-7.112c-.986.904-1.937 1.77-2.916 2.661zm-.95.86l-2.917 2.665c2.161 2.396 4.28 4.743 6.413 7.11l2.917-2.662c-2.148-2.384-4.268-4.732-6.414-7.117v.005zm7.74-7.042l-2.917 2.66 6.413 7.111 2.916-2.66-6.412-7.111zm12.272 19.306v9.594c1.108 0 2.195.022 3.28-.01.434-.015.645-.339.648-.833.007-.843 0-1.69 0-2.528v-5.353c0-.538-.25-.857-.706-.863-1.062-.017-2.123-.007-3.222-.007zm-11.32-20.172l6.416 7.116c.825-.758 1.648-1.494 2.445-2.254.287-.275.252-.648-.046-.98a1834.85 1834.85 0 00-5.373-5.962c-.336-.366-.705-.394-1.071-.07-.785.694-1.552 1.409-2.37 2.151zM9.971 4.93l9.206 2.565c.28-1.025.555-2.018.824-3.014.147-.543-.029-.867-.56-1.022-.482-.141-.967-.268-1.45-.403L11.91 1.36c-.585-.163-.938-.027-1.08.451-.292 1.03-.565 2.051-.86 3.12zM5.795 20.05c.045.042.062.071.086.078 2.402.676 4.802 1.343 7.207 1.997.135.037.35-.049.466-.15.542-.465 1.031-.996 1.599-1.425.567-.428.747-1.033.86-1.711l-9.179-2.553-1.039 3.764zm8.127 3.335l-2.899 2.642c.034.055.072.109.112.16 1.347 1.499 2.693 3.001 4.06 4.489.101.112.318.159.48.16 1.314.013 2.629.02 3.943 0 .242 0 .482-.158.785-.266l-6.481-7.185zm-9.536 1.768c1.439.403 2.805.788 4.176 1.16a.5.5 0 00.379-.138c1.01-.902 2.02-1.824 3.019-2.74.068-.07.132-.146.19-.225l-6.71-1.87c-.348 1.28-.698 2.528-1.054 3.815v-.002zm5.664 1.754l-4.292 3.912h7.818l-3.526-3.912zm-6.007-.512l-1.547 5.599 5.119-4.601-3.572-.998z" fill="#fff"/><path d="M8.563 36.918a2.454 2.454 0 01-.71 1.721 2.432 2.432 0 01-1.71.722 2.455 2.455 0 01-1.692-.72 2.478 2.478 0 01-.724-1.696c0-.645.252-1.264.704-1.723a2.434 2.434 0 011.707-.728 2.4 2.4 0 011.715.705 2.42 2.42 0 01.71 1.719zm-2.402 1.127a1.14 1.14 0 001.134-1.117 1.176 1.176 0 00-.341-.813 1.166 1.166 0 00-.81-.344 1.13 1.13 0 00-1.047.73c-.054.143-.08.294-.075.445a1.105 1.105 0 00.706 1.032c.138.053.285.077.433.071v-.004z" fill="#fff"/></svg>