<svg width="22" height="23" fill="none" xmlns="http://www.w3.org/2000/svg"><path d="M21.775 11.29c.027 5.309-3.806 9.817-8.98 10.663-2.15.369-4.363.07-6.338-.856a.688.688 0 00-.484-.05c-1.677.401-3.356.791-5.036 1.183-.51.119-.734-.09-.627-.61.343-1.668.69-3.335 1.042-5.002a.902.902 0 00-.055-.614c-3.1-6.498.995-14.097 8.153-15.15 5.83-.858 11.3 3.134 12.193 8.902.076.508.12 1.02.132 1.534zM3.179 19.316c.974-.23 1.888-.433 2.792-.667a1.327 1.327 0 011.025.117 8.51 8.51 0 005.406.9c4.509-.702 7.687-5.07 6.933-9.563-.763-4.554-4.948-7.606-9.544-6.96-5.58.785-8.837 6.8-6.377 11.846.342.7.453 1.324.238 2.07-.208.713-.31 1.46-.473 2.257z" fill="#FCFDFC"/><path d="M13.607 16.618c-.995-.022-2.088-.425-3.088-1.068-1.797-1.152-3.346-2.56-4.363-4.463-.458-.857-.708-1.782-.506-2.759.18-.86.761-1.465 1.453-1.956.353-.25.846-.099 1.04.3.332.686.632 1.385.934 2.087a.692.692 0 01-.112.7c-.126.172-.261.337-.39.508-.296.394-.313.672-.026 1.075.592.834 1.364 1.493 2.152 2.133a6.2 6.2 0 001.18.783c.424.208.75.195 1.035-.168.517-.657 1.104-.793 1.87-.474.452.19.954.27 1.426.417.5.158.708.65.49 1.104-.549 1.137-1.597 1.786-3.095 1.781z" fill="#FCFDFC"/></svg>