<svg width="16" height="16" fill="none" xmlns="http://www.w3.org/2000/svg"><path d="M11.918.5l.087.051a.558.558 0 01.277.493c.008.254 0 .509 0 .764V5.05c.002.059 0 .116-.005.174a.198.198 0 01-.14.174.201.201 0 01-.078.009.208.208 0 01-.216-.193 1.324 1.324 0 010-.154V1.113c0-.015 0-.03-.002-.046-.009-.112-.023-.126-.133-.126h-.649c-.014 0-.027 0-.045.003v4.272c.003.14-.022.281-.076.412a.731.731 0 01-.647.464c-.325.026-.572-.114-.738-.392a.792.792 0 01-.108-.408V4.26c0-.167 0-.334-.004-.501a.318.318 0 00-.197-.305c-.13-.057-.249-.022-.354.066a.27.27 0 00-.098.205c-.004.157 0 .314-.01.47a.778.778 0 01-.98.706.777.777 0 01-.58-.745c-.005-.283-.003-.565-.004-.849l-.003-.421A.325.325 0 006.9 2.55c-.174-.007-.318.128-.332.314-.003.033-.003.066-.003.098v1.413c0 .29 0 .581-.003.872 0 .2-.04.388-.166.549a.807.807 0 01-.84.27.78.78 0 01-.55-.665 4.628 4.628 0 01-.014-.384V3.632c0-.03.002-.06.006-.089.016-.13.108-.212.23-.207a.222.222 0 01.219.223c.002.036.002.072.002.108 0 .527 0 1.054.002 1.581 0 .07.013.14.037.206a.287.287 0 00.292.194.287.287 0 00.287-.2.68.68 0 00.037-.215c.002-.756 0-1.512 0-2.267 0-.203.039-.396.166-.56a.746.746 0 01.742-.296c.306.047.506.235.613.523.046.124.05.254.05.384v1.079a.402.402 0 00.072.256.309.309 0 00.344.109.315.315 0 00.236-.302c.005-.14.006-.278.012-.417a.75.75 0 01.18-.492.757.757 0 01.822-.233c.311.09.492.31.539.632.012.086.017.174.017.261.002.463 0 .926.003 1.39 0 .241.205.4.425.334a.335.335 0 00.23-.322V1.047c0-.031-.005-.062-.007-.095H5.445v1.551a.657.657 0 01-.02.17c-.026.096-.101.144-.206.145a.195.195 0 01-.205-.14.418.418 0 01-.02-.128c-.003-.514-.004-1.029-.005-1.543V.943L4.944.941c-.206 0-.413.004-.62 0-.081 0-.123.041-.157.101a.072.072 0 00-.007.036c0 .061.004.122.004.183v5.733h1.855c.04 0 .08.003.12.01a.19.19 0 01.163.181c.009.115-.034.196-.13.228a.631.631 0 01-.185.025c-.583.002-1.165.002-1.748 0h-.063v.81h7.653V7.44H8.762c-.518 0-1.036 0-1.555-.003-.051 0-.103.004-.154.002-.172-.005-.268-.135-.223-.296a.182.182 0 01.15-.139.61.61 0 01.117-.01h4.742V6.82c0-.218.003-.435.007-.652a.242.242 0 01.027-.103c.073-.14.171-.171.328-.081.037.021.053.084.073.13a.164.164 0 01.006.064l.003.798V8.44c0 .366-.001.73-.005 1.093 0 .139 0 .279-.055.41a.946.946 0 01-.732.58c-.12.018-.243.025-.365.02H9.68c-.186 0-.345.064-.451.226a.576.576 0 00-.079.391l.177 1.556c.044.39.09.78.131 1.17a1.44 1.44 0 01-.789 1.442c-.584.296-1.206.21-1.683-.241a1.35 1.35 0 01-.424-.894c-.022-.251.007-.5.032-.749l.09-.853.11-.955c.02-.181.048-.363.06-.545.019-.323-.203-.548-.527-.548-.29 0-.58-.007-.869-.007-.247 0-.495.008-.742.008a.992.992 0 01-.99-.867 2.069 2.069 0 01-.011-.266l.002-1.126.003-4.744c0-.682-.003-1.364-.004-2.046 0-.167-.004-.335.01-.501a.549.549 0 01.346-.481c.007-.003.013-.008.02-.012h7.826zM4.167 8.725c0 .313-.007.62.003.928.005.164.099.287.244.366a.684.684 0 00.326.074c.501.002 1.002 0 1.503.006a1.71 1.71 0 01.364.031c.41.095.673.443.679.878.004.3-.04.598-.071.897-.028.265-.06.53-.09.796-.03.274-.064.548-.088.825a9.806 9.806 0 00-.032.618c0 .12.029.237.084.342.228.46.864.797 1.488.374.301-.204.459-.492.435-.862-.012-.19-.039-.38-.058-.569-.036-.332-.071-.665-.11-.997-.034-.306-.072-.611-.107-.917-.02-.183-.053-.364-.035-.55a.948.948 0 01.908-.871c.19-.008.381 0 .572 0h.874c.108 0 .217 0 .324-.011.275-.028.446-.211.453-.488.005-.223.003-.447.005-.67v-.201l-7.671.001z" fill="#fff"/></svg>