<svg width="16" height="16" fill="none" xmlns="http://www.w3.org/2000/svg"><path d="M1.91 15a.911.911 0 01-.644-.276.901.901 0 01-.24-.852c.4-1.658 1.08-4.635 1.08-5.88 0-1.243-.677-4.203-1.075-5.861a.91.91 0 011.105-1.104c1.658.42 4.627 1.123 5.87 1.123 1.244 0 4.197-.7 5.852-1.104a.902.902 0 01.873.238.904.904 0 01.237.869c-.428 1.655-1.14 4.604-1.14 5.843 0 1.238.71 4.204 1.146 5.862a.908.908 0 01-.632 1.09.913.913 0 01-.46.013c-1.657-.389-4.63-1.042-5.87-1.042-1.24 0-4.227.656-5.892 1.048a.91.91 0 01-.21.033zm0-13.518a.426.426 0 00-.41.524c.404 1.678 1.08 4.69 1.08 5.976 0 1.285-.673 4.337-1.08 6.008a.416.416 0 00.295.506c.07.02.144.021.214.005 1.685-.398 4.696-1.062 6.003-1.062 1.307 0 4.315.662 5.973 1.056a.423.423 0 00.516-.521c-.433-1.68-1.163-4.69-1.163-5.987 0-1.296.727-4.287 1.158-5.959a.41.41 0 00-.11-.402.42.42 0 00-.401-.113c-1.677.422-4.68 1.13-5.97 1.13-1.296 0-4.31-.711-5.992-1.136a.437.437 0 00-.108-.014l-.005-.01z" fill="#fff"/><path d="M5.136 10.63l-1.653 1.63-.025-.841a.19.19 0 10-.382.012l.038 1.278.002.018.002.014a.16.16 0 00.006.02l.005.017a.143.143 0 00.01.017.14.14 0 00.021.031l.01.01.002.002.004.004a.19.19 0 00.13.057l1.278.038a.192.192 0 00.085-.365.191.191 0 00-.073-.017l-.846-.024 1.655-1.63a.192.192 0 000-.27.19.19 0 00-.269-.001zm5.212.247l1.63 1.654-.842.025a.19.19 0 00-.167.269.192.192 0 00.18.112l1.277-.037.019-.002a.11.11 0 00.034-.008l.017-.006a.145.145 0 00.016-.008.144.144 0 00.032-.022l.01-.01.002-.002.004-.004a.19.19 0 00.057-.13l.037-1.278a.192.192 0 00-.365-.085.191.191 0 00-.016.073l-.025.845-1.63-1.654a.192.192 0 00-.27 0 .19.19 0 000 .268zm.247-5.21l1.653-1.63.025.84a.191.191 0 00.123.173.191.191 0 00.258-.185l-.037-1.277-.002-.019a.168.168 0 00-.008-.034l-.006-.016a.137.137 0 00-.008-.017.148.148 0 00-.022-.032l-.01-.01-.002-.002-.004-.004a.19.19 0 00-.13-.057l-1.278-.037a.19.19 0 00-.14.056.192.192 0 00-.005.266.19.19 0 00.133.06l.845.024-1.654 1.63a.192.192 0 000 .27.19.19 0 00.269 0zm-5.211-.248l-1.63-1.654.841-.024a.19.19 0 00.061-.37.191.191 0 00-.073-.012l-1.278.037-.018.003a.166.166 0 00-.034.008l-.017.005a.147.147 0 00-.017.009.145.145 0 00-.031.022l-.01.01-.002.002-.004.004a.19.19 0 00-.058.13l-.037 1.277a.191.191 0 00.382.013l.024-.846 1.63 1.654a.192.192 0 00.27 0 .19.19 0 00.001-.268z" fill="#fff"/></svg>