<svg width="16" height="16" fill="none" xmlns="http://www.w3.org/2000/svg"><path d="M.417 11.74c.092-.093.203-.12.332-.12.602.006 1.204 0 1.807.005a.341.341 0 00.268-.114c.385-.385.766-.772 1.164-1.141.532-.493 1.162-.654 1.884-.58.892.093 1.788.18 2.688.113.316-.023.618.02.881.222a1.059 1.059 0 01.377 1.15c-.014.046-.03.091-.043.138l.028.035c.152-.108.322-.198.452-.326.791-.782 1.566-1.578 2.356-2.36.276-.274.569-.532.876-.772a1.62 1.62 0 01.925-.353 1.107 1.107 0 011.17 1.08 1.154 1.154 0 01-.335.885c-1.45 1.533-2.897 3.068-4.34 4.605a2.39 2.39 0 01-1.84.793 2756.57 2756.57 0 00-8.334 0 .412.412 0 01-.316-.12v-3.14zm.418 2.844H9.05c.622 0 1.134-.212 1.563-.672 1.447-1.549 2.905-3.087 4.358-4.63.232-.246.262-.59.08-.902-.159-.277-.445-.389-.778-.304-.427.108-.76.371-1.062.673-.825.824-1.656 1.642-2.46 2.486a2.447 2.447 0 01-1.787.793c-1.12.023-2.24.012-3.36.015-.03 0-.068.005-.088-.011-.054-.044-.133-.092-.142-.148a.262.262 0 01.072-.205c.045-.043.135-.054.205-.054.538-.004 1.076 0 1.614-.002.523 0 1.046.005 1.57-.005.395-.008.684-.402.593-.787-.084-.35-.375-.547-.787-.515-.85.067-1.695-.017-2.54-.079-.305-.023-.614-.055-.915-.024-.452.047-.795.329-1.11.634-.36.351-.715.71-1.068 1.07a.4.4 0 01-.313.13c-.568-.004-1.136 0-1.701 0-.052 0-.104.004-.158.006l-.001 2.531zM8.631 2.88c.142-.18.268-.345.399-.505.114-.139.241-.15.348-.015.588.737 1.17 1.478 1.596 2.328.34.68.353 1.347-.056 1.998-.814 1.296-2.698 1.25-3.46-.083-.05-.087-.1-.121-.203-.119-1.17.006-2.094-.935-2.027-2.104.017-.298.145-.603.277-.88.345-.732.842-1.367 1.335-2.003.063-.082.127-.164.192-.245.134-.168.268-.176.397-.004.374.497.74 1 1.108 1.5.03.037.056.077.094.131zm.583-.067c-.06.076-.105.129-.146.184-.465.608-.932 1.216-1.254 1.916-.095.207-.186.436-.194.66-.04 1.058.947 1.845 1.978 1.594.913-.224 1.447-1.233 1.115-2.034-.359-.859-.932-1.574-1.5-2.32zm-1.978 3.25a1.105 1.105 0 01-.022-.153c0-.191-.02-.387.013-.573.076-.436.292-.815.52-1.184.193-.31.4-.61.617-.938L7.242 1.653c-.544.704-1.062 1.375-1.429 2.148-.143.302-.22.613-.158.96.127.724.827 1.32 1.582 1.302zM4.008 2.647c-.006.122-.081.181-.205.202-.154.026-.316.036-.458.096-.47.198-.714.567-.76 1.072-.016.178-.09.267-.216.262-.125-.006-.198-.1-.204-.278A1.215 1.215 0 001.07 2.86a1.809 1.809 0 01-.147-.018C.81 2.824.747 2.754.745 2.64c-.002-.114.067-.185.175-.206.101-.02.206-.018.306-.04a1.206 1.206 0 00.94-1.13c.006-.162.079-.255.201-.264.092-.006.21.094.222.245.052.696.485 1.119 1.183 1.181.15.013.235.09.236.221zm-1.062-.009l-.568-.568-.573.57.572.57.569-.572zm2.548 5.198c0 .136-.09.212-.248.222-.516.034-.883.29-1.084.765-.058.137-.068.296-.094.446-.025.15-.093.218-.215.214-.122-.004-.203-.09-.203-.23 0-.606-.51-1.188-1.204-1.197a.21.21 0 01-.22-.212c.002-.116.084-.19.226-.203.64-.059 1.063-.423 1.18-1.016.01-.058.015-.118.016-.177.01-.15.088-.237.212-.234.14.003.198.088.208.22.031.513.269.894.743 1.101.146.063.313.082.473.105.13.017.195.08.21.196zm-2.202.01l.568.572.57-.57-.568-.574-.57.572zm11.962-3.941c-.013.098-.073.165-.195.182a2.264 2.264 0 00-.405.074 1.2 1.2 0 00-.824 1.105c-.007.161-.082.25-.21.251-.13 0-.199-.08-.207-.238a1.238 1.238 0 00-1.202-1.193c-.155-.007-.232-.09-.222-.218.011-.139.102-.191.23-.2.665-.046 1.103-.46 1.187-1.122.005-.034.007-.069.01-.103.008-.123.079-.194.197-.198.129-.005.198.076.216.198.021.13.026.267.066.392a1.204 1.204 0 001.095.832c.17.009.264.087.264.238zm-1.633-.594l-.57.568.57.573.57-.572-.57-.569z" fill="#F6F6F6"/><path d="M9.153 6.898c-.63-.007-1.218-.61-1.211-1.24 0-.157.08-.254.205-.258.126-.004.2.087.21.25a.871.871 0 00.823.832c.158.012.247.094.237.22-.01.124-.11.199-.264.196z" fill="#F6F6F6"/></svg>