<svg width="25" height="22" fill="none" xmlns="http://www.w3.org/2000/svg"><path d="M17.582 21.872c-2.087-.047-4.378-.894-6.476-2.24-3.768-2.418-7.017-5.368-9.149-9.36C.997 8.474.472 6.534.895 4.487c.38-1.804 1.597-3.073 3.048-4.103.74-.525 1.773-.207 2.179.63C6.82 2.45 7.45 3.917 8.083 5.388a1.452 1.452 0 01-.235 1.47c-.266.359-.548.706-.817 1.065-.623.825-.657 1.409-.055 2.253 1.242 1.749 2.86 3.132 4.512 4.474.76.64 1.59 1.19 2.475 1.642.89.436 1.572.408 2.171-.353 1.083-1.377 2.314-1.663 3.92-.994.95.397 2.002.567 2.992.874 1.049.333 1.485 1.362 1.026 2.316-1.15 2.384-3.348 3.745-6.49 3.736z" fill="#FCFDFC"/></svg>