<svg width="25" height="19" fill="none" xmlns="http://www.w3.org/2000/svg"><path d="M.05 7.428c2.432.802 2.593 1.004 2.593 3.128 0 1.751.024 3.5 0 5.249 0 .594.143.822.816.819 6.042-.023 12.083-.023 18.125 0 .706 0 .795-.284.787-.853-.027-1.652-.027-3.307-.027-4.962 0-2.338 0-2.338 2.583-3.376 0 3.151.071 6.256-.03 9.333-.05 1.487-1.165 2.218-3.045 2.224-5.25.02-10.498 0-15.747 0-1.192 0-2.384.04-3.575-.034-1.49-.091-2.446-.933-2.476-2.326C0 13.575.05 10.524.05 7.428z" fill="#fff"/><path d="M24.949 3.361c0-2.53-.84-3.358-3.381-3.358H3.425A7.083 7.083 0 001.95.116C1.428.206.956.468.616.856a2.1 2.1 0 00-.525 1.385c-.053.995-.44 2.061.924 2.843 3.575 2.008 7.072 4.163 10.567 6.302.685.42 1.168.415 1.856 0a501.828 501.828 0 0110.454-6.222c.834-.478 1.263-1.004 1.057-1.803zm-3.179.284a1522.74 1522.74 0 00-8.663 5.173c-.506.307-.86.199-1.329-.086-2.788-1.706-5.6-3.35-8.404-5.024-.366-.22-.843-.407-.715-.947.152-.646.724-.341 1.09-.347 2.98-.028 5.935-.014 8.902-.014h8.756c.325 0 .84-.256.932.364.069.455-.2.677-.569.896v-.015z" fill="#fff"/></svg>