<svg viewBox="0 0 356 401" fill="none" xmlns="http://www.w3.org/2000/svg"><g filter="url(#filter0_d_155_2343)"><path d="M38.8 247.652v-21.781a34.887 34.887 0 00-24.607 10.142A34.546 34.546 0 004 260.5h34.8v-12.848z" fill="#008DBA"/></g><g filter="url(#filter1_d_155_2343)"><path d="M38.8 295.129h34.8V260.5a34.546 34.546 0 01-10.193 24.487A34.888 34.888 0 0138.8 295.129z" fill="#008DBA"/></g><g filter="url(#filter2_d_155_2343)"><path d="M73.6 295.129h34.8V260.5H73.6v34.629z" fill="#4E68C4"/></g><g filter="url(#filter3_d_155_2343)"><path d="M178 260.5h-34.8v34.629H178V260.5z" fill="#E63527"/></g><g filter="url(#filter4_d_155_2343)"><path d="M247.6 260.5h-34.8v34.629h34.8V260.5z" fill="#00A7A7"/></g><path d="M247.6 277.815c0-9.563-7.79-17.315-17.4-17.315s-17.4 7.752-17.4 17.315c0 9.562 7.79 17.314 17.4 17.314s17.4-7.752 17.4-17.314z" fill="#FF8718"/><path d="M236 277.815c0-3.188-2.597-5.772-5.8-5.772s-5.8 2.584-5.8 5.772c0 3.187 2.597 5.771 5.8 5.771s5.8-2.584 5.8-5.771z" fill="#4E68C4"/><path d="M225.56 86.199h17.4V68.884c0 4.592-1.833 8.996-5.097 12.243A17.441 17.441 0 01225.56 86.2zm-17.4-17.315v17.315h17.4a17.444 17.444 0 01-12.304-5.072 17.272 17.272 0 01-5.096-12.243z" fill="#00A7A7"/><g filter="url(#filter5_d_155_2343)"><path d="M225.56 51.57h-17.4v17.314c0-4.592 1.833-8.996 5.096-12.243a17.444 17.444 0 0112.304-5.072z" fill="#00A7A7"/></g><g filter="url(#filter6_d_155_2343)"><path d="M225.56 51.57c4.615 0 9.04 1.824 12.303 5.07a17.269 17.269 0 015.097 12.244V51.569h-17.4z" fill="#00A7A7"/></g><path d="M231.36 68.884c0-3.188-2.596-5.772-5.8-5.772-3.203 0-5.8 2.584-5.8 5.772s2.597 5.772 5.8 5.772c3.204 0 5.8-2.585 5.8-5.772zM38.8 295.129V260.5H4a34.546 34.546 0 0010.193 24.487A34.887 34.887 0 0038.8 295.129z" fill="#4E68C4"/><path d="M108.4 329.759v-34.63H73.6c9.23 0 18.08 3.649 24.607 10.143a34.546 34.546 0 0110.193 24.487z" fill="#00A7A7"/><path d="M247.6 329.759h34.8v-34.63h-34.8v34.63z" fill="#008DBA"/><path d="M282.4 329.759v-34.63h-34.8l34.8 34.63z" fill="#FF8718"/><path d="M73.6 295.129v17.315c4.615 0 9.04 1.824 12.303 5.071A17.275 17.275 0 0191 329.759h17.4a34.546 34.546 0 00-10.193-24.487A34.889 34.889 0 0073.6 295.129z" fill="#008DBA"/><path d="M73.6 312.444v17.315H91c0-4.592-1.833-8.996-5.097-12.244a17.444 17.444 0 00-12.303-5.071z" fill="#4E68C4"/><g filter="url(#filter7_d_155_2343)"><path d="M38.8 242.363v5.278a12.79 12.79 0 00.98 4.92 12.842 12.842 0 002.797 4.172 12.914 12.914 0 004.19 2.788c1.568.646 3.247.979 4.944.979H57c0-4.558-2.28-9.258-5.5-12.5-3.22-3.242-8.12-5.586-12.7-5.637z" fill="#DADADA"/></g><path d="M38.8 224.71v18.475a17.442 17.442 0 0112.176 5.141 17.27 17.27 0 015.027 12.174H74.5c0-9.184-2.974-18.506-9.5-25s-16.97-10.79-26.2-10.79z" fill="#EDEDED"/><path d="M108.4 312.444l17.4 17.315 17.4-17.315-17.4-17.315-17.4 17.315z" fill="#4E68C4"/><g filter="url(#filter8_d_155_2343)"><path d="M212.8 312.444l17.4 17.315 17.4-17.315-17.4-17.315-17.4 17.315z" fill="#4E68C4"/></g><g filter="url(#filter9_d_155_2343)"><path d="M247.6 260.5v34.629h34.8V260.5h-34.8z" fill="#4E68C4"/></g><g filter="url(#filter10_d_155_2343)"><path d="M21.4 260.5c0 4.592 1.833 8.996 5.097 12.243a17.445 17.445 0 0012.303 5.072V260.5H21.4z" fill="#FF8718"/></g><path d="M21.4 260.5h17.4v-17.315c-4.615 0-9.04 1.825-12.303 5.072A17.271 17.271 0 0021.4 260.5z" fill="#4E68C4"/><g filter="url(#filter11_d_155_2343)"><path d="M195.4 260.5H178v17.315c4.615 0 9.041-1.825 12.304-5.072A17.271 17.271 0 00195.4 260.5z" fill="#008DBA"/></g><g filter="url(#filter12_d_155_2343)"><path d="M178 295.129h34.8V260.5a34.543 34.543 0 01-10.193 24.487A34.886 34.886 0 01178 295.129z" fill="#008DBA"/></g><path d="M208.16 51.57h-34.8v34.629h34.8v-34.63z" fill="#4E68C4"/><path d="M208.16 68.884v17.315a34.885 34.885 0 01-24.607-10.143 34.54 34.54 0 01-10.193-24.487h17.4c0 4.592 1.833 8.996 5.096 12.244a17.444 17.444 0 0012.304 5.071z" fill="#008DBA"/><g filter="url(#filter13_d_155_2343)"><path d="M282.4 260.5v34.629h-34.8l34.8-34.629z" fill="#00A7A7"/></g><path d="M73.6 260.5v34.629h34.8L73.6 260.5z" fill="#008DBA"/><path d="M73.6 276.66v18.469h18.56L73.6 276.66zm34.8 18.469h34.8V260.5l-34.8 34.629z" fill="#FF8718"/><g filter="url(#filter14_d_155_2343)"><path d="M304.289 86.199H51.711a12.943 12.943 0 00-9.13 3.763 12.816 12.816 0 00-3.781 9.084v126.825c9.23 0 18.081 3.648 24.607 10.142A34.546 34.546 0 0173.6 260.5h230.689c3.424 0 6.708-1.354 9.13-3.763a12.815 12.815 0 003.781-9.084V224.5c-9.23 0-17.174-3.506-23.7-10s-9-14.316-9-23.5 2.974-17.006 9.5-23.5 13.97-10.087 23.2-10.087V99.046c0-3.407-1.36-6.675-3.781-9.084a12.946 12.946 0 00-9.13-3.763z" fill="#fff"/></g><g filter="url(#filter15_d_155_2343)"><path d="M38.8 277.815c4.615 0 9.04-1.825 12.304-5.072A17.271 17.271 0 0056.2 260.5H38.8v17.315z" fill="#03A798"/></g><g filter="url(#filter16_d_155_2343)"><path d="M247.6 329.759h-34.8v34.629h34.8v-34.629z" fill="#FF8718"/></g><path d="M237.16 340.148h-13.92v13.851h13.92v-13.851z" fill="#4E68C4"/><path d="M277.76 51.57h-34.8v34.629h34.8v-34.63z" fill="#FF8718"/><path d="M267.32 61.958H253.4V75.81h13.92V61.958z" fill="#4E68C4"/><g filter="url(#filter17_d_155_2343)"><path d="M352 191.241h-17.4c0 4.592-1.833 8.996-5.096 12.244a17.444 17.444 0 01-12.304 5.071v17.315c9.23 0 18.081-3.649 24.607-10.143A34.542 34.542 0 00352 191.241z" fill="#FF8718"/></g><g filter="url(#filter18_d_155_2343)"><path d="M317.2 208.556c4.615 0 9.041-1.824 12.304-5.071a17.275 17.275 0 005.096-12.244h-17.4v17.315z" fill="#4E68C4"/></g><path d="M301.43 190.5H282.5c0 9.184 3.566 18.734 10.093 25.228a34.887 34.887 0 0024.607 10.143v-18.622c-4.615 0-8.437-1.002-11.7-4.249s-4.07-7.908-4.07-12.5z" fill="#EDEDED"/><path d="M300 190c-1 4.5 1.633 10.237 4.896 13.485a17.443 17.443 0 0012.303 5.071V190.5L300 190z" fill="#DADADA"/><g filter="url(#filter19_d_155_2343)"><path d="M317.2 156.612v17.315c4.615 0 9.041 1.824 12.304 5.071a17.271 17.271 0 015.096 12.243H352a34.54 34.54 0 00-10.193-24.486 34.882 34.882 0 00-24.607-10.143z" fill="#4E68C4"/></g><g filter="url(#filter20_d_155_2343)"><path d="M317.2 173.927v17.314h17.4c0-4.592-1.833-8.996-5.096-12.243a17.444 17.444 0 00-12.304-5.071z" fill="#00A7A7"/></g><path d="M317.2 175.068v-18.456a34.882 34.882 0 00-24.607 10.143 34.54 34.54 0 00-10.193 24.486H302c0-4.592 1.237-7.994 4.5-11.241s6.085-4.932 10.7-4.932z" fill="#DADADA"/><path d="M317.2 173.927a17.444 17.444 0 00-12.304 5.071 17.271 17.271 0 00-5.096 12.243h17.4v-17.314z" fill="#fff"/><g filter="url(#filter21_d_155_2343)"><path d="M94.48 51.57v17.314c-4.615 0-9.04 1.824-12.304 5.071A17.271 17.271 0 0077.08 86.2h-17.4a34.544 34.544 0 0110.193-24.487A34.887 34.887 0 0194.48 51.569z" fill="#FF8718"/></g><g filter="url(#filter22_d_155_2343)"><path d="M77.08 86.199c0-4.592 1.833-8.996 5.096-12.244a17.444 17.444 0 0112.304-5.071v17.315h-17.4z" fill="#4E68C4"/></g><path d="M94.48 102v18.828a34.96 34.96 0 01-13.318-2.636 34.803 34.803 0 01-11.29-7.507 34.613 34.613 0 01-7.543-11.234 34.483 34.483 0 01-2.65-13.252h18.902c0 2.273.045 4.2.919 6.301.874 2.1 2.384 3.392 4 5s3.389 2.63 5.5 3.5c2.111.87 3.195 1 5.48 1z" fill="#EDEDED"/><path d="M95 103.5c-2.285 0-5.068-.434-7.179-1.305a17.401 17.401 0 01-5.645-3.753 17.31 17.31 0 01-3.772-5.617 17.242 17.242 0 01-1.324-6.626H95V103.5z" fill="#DADADA"/><g filter="url(#filter23_d_155_2343)"><path d="M129.28 86.199h-17.4c0-4.592-1.833-8.996-5.096-12.244a17.446 17.446 0 00-12.304-5.071V51.569c9.23 0 18.081 3.649 24.607 10.143a34.541 34.541 0 0110.193 24.487z" fill="#4E68C4"/></g><g filter="url(#filter24_d_155_2343)"><path d="M111.88 86.199h-17.4V68.884c4.615 0 9.04 1.824 12.304 5.071A17.272 17.272 0 01111.88 86.2z" fill="#00A7A7"/></g><path d="M111 86.199h18.28a34.54 34.54 0 01-10.193 24.486 34.882 34.882 0 01-24.607 10.143V103c4.615 0 8.757-1.753 12.02-5s4.5-7.21 4.5-11.801z" fill="#DADADA"/><path d="M111.88 86.199c0 4.592-1.833 8.996-5.096 12.243a17.447 17.447 0 01-12.304 5.071V86.199h17.4z" fill="#fff"/><path d="M268.225 173.361v.773h-1.485v3.902h-.928v-3.902h-1.508v-.773h3.921zm5.08 4.675l-.174-2.759v-1.304h-.058c-.116.415-.255.969-.394 1.396l-.847 2.598h-.963l-.846-2.667-.337-1.327v1.304l-.174 2.759h-.893l.336-4.675h1.265l.812 2.309c.104.357.185.704.313 1.154.128-.427.232-.82.336-1.154l.812-2.309h1.346l.36 4.675h-.894z" fill="#CF3543"/><path d="M89.84 177.609h7.088a28.534 28.534 0 014.524.288 8.627 8.627 0 012.749.924 7.724 7.724 0 013.016 3.139 9.931 9.931 0 011.032 4.675 8.254 8.254 0 01-2.598 6.649c-1.732 1.493-4.311 2.236-7.737 2.228h-1.566v10.331H89.84v-28.234zm6.508 4.709v8.427h1.52a4.136 4.136 0 003.109-.981 4.751 4.751 0 00.927-3.29 3.444 3.444 0 00-.935-3.243 3.48 3.48 0 00-3.264-.913h-1.357z" fill="#0B3D86"/><path d="M127.134 193.769v10.147c0 .669.116 1.316.209 1.927h-5.8l-.244-2.724a8.369 8.369 0 01-2.807 2.39 7.51 7.51 0 01-3.48.796 5.822 5.822 0 01-4.443-1.789 6.548 6.548 0 01-1.693-4.687 6.292 6.292 0 012.598-5.413 12.578 12.578 0 017.47-1.882h2.077v-.6a3.131 3.131 0 00-1.044-2.551 4.658 4.658 0 00-3.051-.866 8.873 8.873 0 00-2.865.496 9.282 9.282 0 00-2.645 1.455l-.325-4.687a25.101 25.101 0 013.793-1.085 18.092 18.092 0 013.48-.369c3.225 0 5.476.669 6.752 2.008 1.38 1.339 2.018 3.81 2.018 7.434zm-6.044 2.182l-.788-.058h-1.056a5.577 5.577 0 00-3.352.854 2.909 2.909 0 00-1.16 2.482c-.023.375.031.75.159 1.103s.326.677.583.952a2.735 2.735 0 002.03.75 3.11 3.11 0 002.691-1.154 6.284 6.284 0 00.87-3.694l.023-1.235z" fill="#EE7601"/><path d="M131.972 175.681h6.171v5.506h-6.171v-5.506zm0 9.085h6.171v21.077h-6.171v-21.077z" fill="#0065B1"/><path d="M160.763 191.437v14.406h-6.23v-13.009a4.598 4.598 0 00-.568-2.539 2.065 2.065 0 00-1.798-.797 2.324 2.324 0 00-2.1 1.154 5.921 5.921 0 00-.73 3.244v11.993h-6.206v-19.288c0-.635-.093-1.235-.151-1.789h5.661c.081.634.139 1.212.174 1.743.034.531 0 1.015 0 1.477a5.774 5.774 0 012.32-2.689 6.794 6.794 0 013.63-.97 5.53 5.53 0 014.466 1.812 7.985 7.985 0 011.532 5.252z" fill="#008E3D"/><path d="M172.513 178.544v6.175h4.06v4.352h-4.06v8.796a5.9 5.9 0 00.522 3.059 2.166 2.166 0 001.856.716 4.69 4.69 0 00.836-.081c.324 0 .707-.127 1.16-.231v4.433c-.743.138-1.45.253-2.112.323-.624.07-1.251.108-1.879.115-2.413 0-4.106-.542-5.081-1.604-.974-1.062-1.473-3.186-1.473-6.372v-9.154h-3.48v-4.352h3.48v-4.271l6.171-1.904z" fill="#903189"/><path d="M185.076 197.013a5.76 5.76 0 001.531 3.74 4.969 4.969 0 003.62 1.235 9.8 9.8 0 002.749-.393c.984-.292 1.93-.699 2.819-1.212l.197 4.514a16.778 16.778 0 01-3.271 1.062c-1.102.24-2.225.364-3.353.369a10.306 10.306 0 01-7.749-2.851 11.085 11.085 0 01-2.749-8.023 12.297 12.297 0 012.506-8.08 8.109 8.109 0 012.915-2.296 8.16 8.16 0 013.639-.763 8.167 8.167 0 013.718.671 8.119 8.119 0 013.01 2.273c1.601 1.962 2.389 4.732 2.389 8.322v1.374l-11.971.058zm6.206-3.463v-.947a5.043 5.043 0 00-.789-3.024 2.534 2.534 0 00-2.192-1.074 2.718 2.718 0 00-2.413 1.212 7.88 7.88 0 00-.974 3.833h6.368zm21.843-9.142v5.679h-.244a7.3 7.3 0 00-1.229-.196 3.974 3.974 0 00-3.388 1.408 7.392 7.392 0 00-1.067 4.49v10.135h-6.206v-16.507c0-1.223 0-2.147-.058-2.782-.058-.634-.081-1.235-.151-1.789h5.638c.008.073.008.147 0 .22.104 1.269.162 2.204.162 2.805v.634a6.294 6.294 0 012.158-3.035 5.34 5.34 0 013.283-1.155c.22 0 .545 0 .951.058l.151.035zm7.69 12.605a5.76 5.76 0 001.52 3.74 4.995 4.995 0 003.631 1.235 9.8 9.8 0 002.749-.393 13.316 13.316 0 002.819-1.212l.197 4.514a17.239 17.239 0 01-3.271 1.062 16.08 16.08 0 01-3.353.369 10.306 10.306 0 01-7.748-2.851 11.033 11.033 0 01-2.761-8.023 12.301 12.301 0 012.505-8.08 8.126 8.126 0 016.566-3.059 8.167 8.167 0 013.718.671 8.119 8.119 0 013.01 2.273c1.593 1.962 2.39 4.736 2.39 8.322v1.374l-11.972.058zm6.206-3.463a5.904 5.904 0 010-.624v-.323a5.039 5.039 0 00-.777-3.024 2.552 2.552 0 00-2.192-1.074 2.718 2.718 0 00-2.413 1.212 7.749 7.749 0 00-.986 3.833h6.368zm22.133-8.323l-.093 4.617a11.147 11.147 0 00-2.32-.946 9.506 9.506 0 00-2.32-.3 3.764 3.764 0 00-2.134.496 1.696 1.696 0 00-.719 1.489c0 .808 1.009 1.605 3.016 2.401 2.513.993 4.11 1.936 4.79 2.828a6.102 6.102 0 011.021 3.763 6.015 6.015 0 01-.519 2.78 6.053 6.053 0 01-1.731 2.242 10.008 10.008 0 01-6.369 1.777 16.633 16.633 0 01-2.737-.242 23.818 23.818 0 01-3.039-.75v-4.987c.886.545 1.837.979 2.83 1.293a9.704 9.704 0 002.854.461 3.905 3.905 0 002.32-.577 1.78 1.78 0 00.823-1.558c0-.82-.963-1.593-2.9-2.309l-.893-.334a10.456 10.456 0 01-4.083-2.517 5.116 5.116 0 01-1.16-3.463 6.446 6.446 0 012.088-5.113 8.471 8.471 0 015.8-1.836c.92.002 1.839.071 2.749.208a16.69 16.69 0 012.726.577zm12.064-6.683v6.175h4.049v4.352h-4.049v8.796a5.9 5.9 0 00.522 3.059 2.166 2.166 0 001.856.716c.275.02.55.016.824-.012.325 0 .708-.127 1.16-.231v4.433c-.742.138-1.45.254-2.111.323-.624.07-1.251.109-1.879.115-2.413 0-4.107-.542-5.081-1.604-.975-1.062-1.473-3.186-1.473-6.372v-9.154h-3.48v-4.351h3.48v-4.271l6.182-1.974z" fill="#CF3543"/><path d="M95.176 215.055v6.198H93.75v-4.998h-2.795v4.998h-1.427v-6.164l5.65-.034zm2.308 5.921a2.314 2.314 0 01-.927-.865 2.52 2.52 0 010-2.517c.222-.369.543-.669.927-.866.42-.212.887-.319 1.358-.311.467-.008.93.099 1.345.311.383.2.703.499.928.866a2.517 2.517 0 010 2.517 2.384 2.384 0 01-.928.865c-.416.213-.878.32-1.345.312a2.892 2.892 0 01-1.358-.312zm2.228-1.154c.23-.265.35-.608.336-.958a1.357 1.357 0 00-.336-.958 1.242 1.242 0 00-1.752 0 1.323 1.323 0 00-.348.958c-.015.352.11.697.348.958a1.242 1.242 0 001.752 0zm2.679-3.336h1.381v2.817l2.32-2.817h1.264v4.767h-1.38v-2.816l-2.32 2.816h-1.276l.011-4.767zm6.287 0h1.369v1.847h2.076v-1.847h1.381v4.767h-1.381v-1.766h-2.076v1.766h-1.369v-4.767zm10.15 1.12h-1.612v3.647h-1.381v-3.613h-1.6v-1.154h4.64l-.047 1.12zm5.139 1.627h-3.607c.06.285.225.536.464.705.269.172.584.261.905.253.225.006.45-.034.661-.115.2-.076.382-.194.533-.346l.731.796a2.465 2.465 0 01-1.914.727 3.09 3.09 0 01-1.427-.311 2.313 2.313 0 01-.962-.866 2.402 2.402 0 01-.337-1.258 2.42 2.42 0 01.337-1.258c.219-.368.536-.667.916-.866a2.663 2.663 0 011.288-.312 2.73 2.73 0 011.276.289c.367.204.672.503.881.866.224.393.336.84.325 1.292 0 0-.058.185-.07.404zm-3.236-1.523a1.151 1.151 0 00-.383.727h2.32a1.085 1.085 0 00-.394-.716 1.163 1.163 0 00-.777-.265 1.16 1.16 0 00-.766.254zm8.34-.993c.361.196.655.493.847.854a2.777 2.777 0 010 2.563 2.154 2.154 0 01-.847.854 2.533 2.533 0 01-1.16.3 1.842 1.842 0 01-1.438-.566v2.205h-1.38v-6.441h1.287v.543a1.79 1.79 0 011.497-.612c.417-.006.829.098 1.194.3zm-.58 3.093a1.32 1.32 0 00.337-.958 1.31 1.31 0 00-.337-.958 1.226 1.226 0 00-1.341-.265 1.243 1.243 0 00-.399.265 1.326 1.326 0 00-.348.958c-.015.353.11.697.348.958a1.23 1.23 0 001.74 0zm7.308-.577h-3.619c.06.285.226.536.464.704.27.173.585.262.905.254.226.006.451-.034.661-.115a1.5 1.5 0 00.534-.346l.731.796a2.477 2.477 0 01-1.961.762 3.16 3.16 0 01-1.427-.312 2.3 2.3 0 01-1.287-2.124 2.426 2.426 0 01.325-1.258 2.32 2.32 0 01.916-.866 2.67 2.67 0 011.299-.311c.439-.008.873.091 1.265.288.367.204.672.503.881.866.224.394.336.841.325 1.293 0 0 0 .15-.012.369zm-3.236-1.523a1.151 1.151 0 00-.383.727h2.32a1.149 1.149 0 00-.383-.716 1.161 1.161 0 00-.788-.265 1.16 1.16 0 00-.766.254zm5.22 3.266a2.31 2.31 0 01-.963-.877 2.445 2.445 0 010-2.516c.225-.371.551-.671.94-.866.424-.213.893-.32 1.368-.312.457-.01.909.097 1.311.312.369.193.66.507.824.889l-1.067.577a1.162 1.162 0 00-1.079-.658 1.17 1.17 0 00-.893.358 1.493 1.493 0 000 1.916 1.237 1.237 0 00.893.358 1.162 1.162 0 001.079-.658l1.067.577a1.92 1.92 0 01-.824.889 2.647 2.647 0 01-1.299.288 2.94 2.94 0 01-1.357-.277zm4.35-4.49h1.369v1.847h2.065v-1.847h1.38v4.767h-1.38v-1.766h-2.065v1.766h-1.369v-4.767zm10.741 2.747h-3.607c.06.285.225.536.464.704a1.6 1.6 0 00.905.254 1.623 1.623 0 001.194-.461l.731.796a2.476 2.476 0 01-1.96.762 3.076 3.076 0 01-1.427-.312 2.32 2.32 0 01-.963-.865 2.402 2.402 0 01-.336-1.259 2.42 2.42 0 01.336-1.258c.219-.367.536-.667.917-.866.395-.21.838-.318 1.287-.311.443-.009.881.09 1.276.288.367.204.672.503.882.866.223.394.336.841.325 1.293 0 0-.012.15-.024.369zm-3.236-1.523a1.151 1.151 0 00-.383.727h2.32a1.085 1.085 0 00-.394-.716 1.163 1.163 0 00-.777-.265 1.16 1.16 0 00-.766.254zm8.921 1.523h-3.596c.06.285.225.536.464.704.264.175.576.264.893.254.226.007.451-.032.661-.115.202-.074.384-.192.534-.346l.742.796a2.49 2.49 0 01-1.972.762 3.158 3.158 0 01-1.427-.312 2.309 2.309 0 01-.951-.865 2.402 2.402 0 01-.336-1.259 2.42 2.42 0 01.336-1.258c.216-.366.529-.665.905-.866.4-.209.847-.316 1.299-.311.439-.009.873.09 1.264.288.372.202.681.502.894.866.218.396.33.841.324 1.293 0 0-.011.15-.034.369zm-3.179-1.523a1.15 1.15 0 00-.394.727h2.32a1.154 1.154 0 00-.395-.716 1.161 1.161 0 00-.777-.265 1.159 1.159 0 00-.754.254zm11.054-1.224v4.767h-1.38v-1.754a2.92 2.92 0 01-1.322.288 2.182 2.182 0 01-1.462-.427 1.732 1.732 0 01-.487-1.35v-1.489h1.38v1.396a.778.778 0 00.232.624.974.974 0 00.65.196c.349 0 .694-.079 1.009-.231v-1.985l1.38-.035zm5.94 2.747h-3.608c.061.285.226.536.464.704.27.173.585.262.905.254.222.007.444-.033.65-.115.204-.076.39-.194.545-.346l.731.796a2.47 2.47 0 01-1.961.762 3.074 3.074 0 01-1.426-.312 2.32 2.32 0 01-.963-.865 2.412 2.412 0 01-.337-1.259 2.43 2.43 0 01.337-1.258 2.32 2.32 0 01.916-.866c.396-.21.839-.318 1.288-.311.439-.009.873.09 1.264.288.375.198.685.499.893.866.224.394.336.841.325 1.293 0 0-.011.15-.023.369zm-3.236-1.523a1.151 1.151 0 00-.383.727h2.32a1.082 1.082 0 00-.395-.716 1.16 1.16 0 00-.777-.265 1.159 1.159 0 00-.765.254zm8.966 3.543v-2.839l-1.426 2.378h-.58l-1.392-2.378v2.839h-1.253v-4.732h1.45l1.52 2.735 1.624-2.735h1.287v4.732h-1.23zm5.951-.277a2.402 2.402 0 01-.941-3.364c.227-.374.553-.68.941-.884a2.856 2.856 0 011.346-.311c.467-.009.93.098 1.345.311.389.196.715.496.94.866a2.517 2.517 0 010 2.517c-.225.37-.551.67-.94.865a2.818 2.818 0 01-1.345.312 2.845 2.845 0 01-1.346-.312zm2.227-1.154c.23-.265.351-.608.337-.958a1.357 1.357 0 00-.337-.958 1.24 1.24 0 00-1.751 0 1.305 1.305 0 00-.348.958c-.016.352.11.697.348.958a1.24 1.24 0 001.751 0zm6.636-2.736c.332.177.606.446.788.774.189.355.285.752.279 1.154a2.195 2.195 0 01-.337 1.154 2.07 2.07 0 01-.916.808c-.42.198-.881.297-1.346.289a2.48 2.48 0 01-1.96-.797 3.382 3.382 0 01-.719-2.308 3.783 3.783 0 01.626-2.309 3.01 3.01 0 011.914-1.154l2.32-.45.186 1.154-2.007.404a2.447 2.447 0 00-1.16.519 1.61 1.61 0 00-.464 1.051c.207-.221.461-.395.742-.508.301-.127.625-.19.952-.185.394.046.772.184 1.102.404zm-.673 2.828c.215-.237.331-.546.325-.865a1.151 1.151 0 00-.325-.855 1.158 1.158 0 00-.859-.323 1.155 1.155 0 00-1.16 1.155 1.23 1.23 0 00.337.877 1.17 1.17 0 00.858.335c.307.004.603-.112.824-.324zm6.589-1.5a1.66 1.66 0 010 2.378 2.386 2.386 0 01-1.532.438h-2.32v-4.732h1.369v1.512h1.16a2.07 2.07 0 011.323.404zm-1.102 1.674a.65.65 0 00.208-.531.604.604 0 00-.208-.508 1.029 1.029 0 00-.592-.104h-.824v1.373h.824a.907.907 0 00.592-.219v-.011zm2.088-3.602h1.38v4.767h-1.38v-4.767zm6.983 0v4.767h-1.381v-1.754a2.92 2.92 0 01-1.322.288 2.182 2.182 0 01-1.462-.427 1.73 1.73 0 01-.487-1.35v-1.489h1.38v1.396a.778.778 0 00.232.624.974.974 0 00.65.196c.35 0 .695-.079 1.009-.231v-1.985l1.381-.035zm1.334 0h1.369v1.847h2.076v-1.847h1.38v4.767h-1.38v-1.766h-2.076v1.766h-1.369v-4.767zm10.057 1.928c.161.145.287.323.37.523.082.2.118.416.106.631a1.471 1.471 0 01-.546 1.224 2.381 2.381 0 01-1.531.438h-2.32v-4.732h1.427v1.512h1.16c.478-.021.949.122 1.334.404zm-1.16 1.674a.63.63 0 00.22-.531.604.604 0 00-.208-.508 1.022 1.022 0 00-.615-.162h-.731v1.374h.824a.844.844 0 00.556-.162l-.046-.011zm2.1-3.602h1.368v4.767h-1.322l-.046-4.767zm7.354 2.747h-3.608c.06.285.226.536.464.704.27.173.585.262.905.254.222.007.443-.033.65-.115.204-.076.39-.194.545-.346l.731.796a2.48 2.48 0 01-1.961.762 3.078 3.078 0 01-1.427-.312 2.311 2.311 0 01-.962-.865 2.403 2.403 0 01-.337-1.259 2.43 2.43 0 01.337-1.258c.216-.366.529-.665.904-.866a2.746 2.746 0 011.3-.311c.439-.009.873.09 1.264.288.375.198.684.499.893.866.224.394.336.841.325 1.293 0 0-.012.15-.023.369zm-3.237-1.523a1.15 1.15 0 00-.382.727h2.32a1.154 1.154 0 00-.395-.716 1.161 1.161 0 00-.777-.265 1.163 1.163 0 00-.766.254zm8.921 1.708h-.719v1.835h-1.38v-4.732h1.38v1.835h.742l1.299-1.835h1.474l-1.671 2.308 1.787 2.471h-1.636l-1.276-1.882zm7.598-2.701c.362.198.659.494.858.854a2.777 2.777 0 010 2.563c-.204.355-.501.65-.858.854a2.484 2.484 0 01-1.16.3 1.878 1.878 0 01-1.438-.566v2.205h-1.381v-6.441h1.323v.543a1.819 1.819 0 011.496-.612c.406-.003.806.1 1.16.3zm-.568 3.093c.23-.265.35-.607.336-.958a1.36 1.36 0 00-.336-.958 1.248 1.248 0 00-1.752 0 1.36 1.36 0 00-.336.958c-.014.351.106.693.336.958a1.244 1.244 0 001.752 0zm6.171-2.874a1.996 1.996 0 01.591 1.582v2.735H244.7v-.588a1.564 1.564 0 01-1.462.658 2.24 2.24 0 01-.951-.185 1.412 1.412 0 01-.615-.508 1.35 1.35 0 01-.208-.739 1.216 1.216 0 01.498-1.039 2.556 2.556 0 011.543-.381h1.102a.855.855 0 00-.278-.692 1.163 1.163 0 00-.824-.243 2.71 2.71 0 00-.742.116 2.316 2.316 0 00-.627.323l-.498-.958a2.81 2.81 0 01.939-.416 4.022 4.022 0 011.16-.15 2.502 2.502 0 011.636.485zm-1.16 3.267a.876.876 0 00.394-.485v-.485h-.951c-.568 0-.847.185-.847.566a.49.49 0 00.209.415.916.916 0 00.568.15 1.24 1.24 0 00.604-.161h.023zm3.851.773a2.375 2.375 0 01-.951-.865 2.518 2.518 0 010-2.517c.231-.37.56-.67.951-.866a2.951 2.951 0 011.369-.311c.457-.011.908.097 1.311.311.369.193.66.507.823.889l-1.067.577a1.24 1.24 0 00-1.482-.597 1.237 1.237 0 00-.49.297 1.5 1.5 0 000 1.916 1.242 1.242 0 00.893.358 1.158 1.158 0 001.079-.658l1.067.577c-.17.378-.459.69-.823.889a2.66 2.66 0 01-1.311.312 2.94 2.94 0 01-1.369-.312zm6.438-1.558h-.719v1.835h-1.38v-4.732h1.38v1.835h.742l1.3-1.835h1.473l-1.671 2.308 1.833 2.424h-1.635l-1.323-1.835zm3.584-2.932h1.369v2.817l2.32-2.817h1.276v4.767h-1.38v-2.816l-2.32 2.816h-1.276l.011-4.767zm6.334 4.571a.742.742 0 01-.244-.566.747.747 0 01.244-.565.847.847 0 01.603-.219.843.843 0 01.615.219.741.741 0 01.243.565.74.74 0 01-.243.566.922.922 0 01-1.16 0h-.058zm-.209-6.002h1.636l-.267 4.028h-1.16l-.209-4.028z" fill="#0B3D86"/><path d="M219.006 133.976a7.14 7.14 0 004.547-.97c1.984-1.339 6.404-1.824 7.598-1.154a6.672 6.672 0 00-.104-4.144 1.157 1.157 0 00-.847-.658 4.768 4.768 0 00-2.32 0c-1.16.3-.905 1.212-1.299 1.754-.557.797-1.264.254-2.32.912-2.181 1.362-1.473 2.909-5.255 4.26zm2.285-8.415c-1.16 2.101 1.589 3.209 2.888 3.255a5.555 5.555 0 01-2.621-2.251 4.315 4.315 0 01-.267-1.004zm-1.496-.497c-.65.578-.812.982-.731 1.282.081.3.684.277 1.16-.231.998-1.131.22-1.628-.429-1.051z" fill="#BD2335"/><path d="M218.415 125.168a2.632 2.632 0 00-2.32.566c-.128.288.359.404 1.032.519 1.775.347 2.146-.935 1.288-1.085zm1.473 1.789c-.754.439-.998.797-.986 1.155.011.358.615.404 1.16 0 1.229-.935.58-1.593-.174-1.155zm-1.74 1.951c-.302.162-.685.439-.546.727a.873.873 0 001.276.093c.94-.739.105-1.281-.73-.82zm-2.518 0a.753.753 0 00-.232.924.796.796 0 00.593.353.812.812 0 00.649-.238c.707-.762-.186-1.547-1.01-1.039zm5.394-.554c-.858.15-.835.658-.812.97.023.311.441.531.986.138 1.23-.9.174-1.177-.174-1.108zm.824 1.316a1.933 1.933 0 00-.986 1.628c0 .311.591.635 1.079.173 2.215-2.17.406-2.043-.093-1.801zm-5.429 1.154c-.301.555-.127.832.058.97.186.139.673.173.928-.623.255-.797-.615-1.039-.986-.347zm-2.204.497c.452.969 1.16.773 1.369.669a.957.957 0 00.203-.732.974.974 0 00-.389-.653c-.939-.843-1.589-.162-1.183.716zm-6.38 12.997a10.744 10.744 0 004.246-2.793 11.332 11.332 0 015.939-3.325c1.636-.138 5.568-.761 6.96-1.962 1.392-1.2 3.48-3.336 5.034-3.705a42.4 42.4 0 00-3.097 2.943c-2.018 2.067-4.802 4.214-8.12 4.248a9.424 9.424 0 00-5.255 1.27c-1.16.623-2.923 3.371-5.463 3.371l-.244-.047zm6.136-15.56c-.15.37-.069.612.209.681.279.069.499-.115.499-.427s-.568-.589-.708-.254zm3.016 4.421a.668.668 0 00.377.243.67.67 0 00.447-.047c.174-.103.487-.588-.151-.969s-1.229.231-.673.773zm2.344-1.223c-.58.254-.604.588-.546.808.058.219.662.496 1.427.161 1.16-.554.557-1.616-.881-.969zm-.29-.381c.603-.185.997-.427 1.032-.901.035-.473-.441-.704-1.276-.473-1.334.381-.777 1.685.244 1.374zm-1.277-3.279c.488-.392.766-.761.627-1.212-.139-.45-.662-.507-1.358 0-1.102.855-.069 1.824.731 1.212zm-1.994-.334c.371-.508.556-.935.301-1.339-.255-.404-.765-.324-1.311.357-.858 1.074.395 1.79 1.01.982zm-1.868-1.212c-1.949 1.408-.418 5.067-.418 5.067a16.377 16.377 0 01.14-4.19c.174-.6.278-.877.278-.877zm-1.288 1.119c-2.807.97-1.345 6.638-1.345 6.638a33.28 33.28 0 01.475-4.618 5.334 5.334 0 01.87-2.02z" fill="#BD2335"/><path d="M210.886 128.758c-3.41 1.097-.301 8.404-.301 8.404a41.81 41.81 0 01-.453-5.576 7.34 7.34 0 01.754-2.828z" fill="#BD2335"/><path d="M209.506 128.758c-3.364 1.859-2.123 9.743-2.123 9.743s.429-4.618.824-6.257a17.94 17.94 0 011.299-3.486zm4.385 11.786l5.985-2.009s4.756 0 7.865 8.08c3.109 8.081-4.536 14.164-6.218 15.006a7.256 7.256 0 01-6.066.393c-2.506-1.247-1.613-4.537-.847-6.233a15.328 15.328 0 00.301-10.528s3.156 5.772 1.392 10.262c-2.32 5.841 1.021 6.372 2.529 6.014a10.551 10.551 0 006.508-4.987 9.478 9.478 0 001.717-6.925 12.856 12.856 0 00-2.32-6.465 6.486 6.486 0 00-2.07-2.203 6.53 6.53 0 00-2.849-1.029c-4.025-.554-5.927.624-5.927.624z" fill="#BD2335"/><path d="M220.073 158.574a1.068 1.068 0 00-.862.956c-.012.154.009.308.062.452.151.289.87.381 1.346 0 .475-.381.962-1.881-.546-1.408zm1.044-2.828c-.661.254-.777 1.489-.383 1.743.395.254 1.044.092 1.044-.97s-.545-.819-.661-.773zm1.16 1.512c-.394.15-.464.866-.232 1.016.232.15.615.058.615-.566 0-.623-.313-.484-.383-.45zm-27.631-6.499c-.998.774.278 1.489 1.682 1.374 6.589-.554 12.087-3.844 12.83-6.083.742-2.24-8.376 1.258-10.812 1.027a12.058 12.058 0 01-3.7 3.682zm-5.139-11.831c2.726-2.309 8.723-.266 9.802 2.147a3.088 3.088 0 01-.174 3.07 3.523 3.523 0 00-.157-2.807 3.535 3.535 0 00-.893-1.128 3.57 3.57 0 00-1.27-.682c-3.48-1.42-5.579-1.304-6.844-.785-1.264.519-.464.185-.464.185z" fill="#BD2335"/><path d="M190.25 140.324s6.96-.808 7.667 3.463c.395 2.309-3.538 5.253-4.176 6.638a23.85 23.85 0 01-5.951 7.11c-3.306 2.713-15.938 10.735-24.661 12.698-4.942 1.154-7.668.623-7.877-.497-.208-1.119 4.304-3.463 6.125-7.584 1.821-4.12 12.157-7.11 15.718-11.058 3.561-3.948 3.863-5.367 4.861-5.875.997-.508 4.64-1.062 5.614-2.586 0 0 .255 1.882-4.13 3.221-1.044.323-4.35 6.383-10.498 9.984-6.148 3.602-8.12 3.521-9.674 5.195-1.554 1.674-2.413 4.363-5.058 6.602-2.644 2.24 1.961 1.536 3.202 1.363 1.241-.174 7.412-.866 20.346-9.385 4.814-3.174 8.457-5.979 10.44-9.235 1.984-3.255 3.654-4.617 4.107-5.898.452-1.281.313-3.867-5.127-4.04l-.928-.116z" fill="#BD2335"/><path d="M193.405 142.552c-1.694.358-.626 2.113.22 2.39.847.277 2.146-.416 1.752-1.328a1.721 1.721 0 00-.789-.892 1.736 1.736 0 00-1.183-.17zm-.905 3.313c-1.705.358-2.135 2.54-1.288 2.817.847.277 1.845-.681 2.111-1.628.232-.762-.081-1.339-.823-1.189zm-3.12-.104a1.019 1.019 0 00-.621 1.276c.056.166.154.315.284.433.29.173.975.277 1.241-.67.209-.75-.197-1.258-.904-1.039zm.916-2.262c-.476.727.557 1.87 1.16 1.754.325-.069.383-.496.301-1.073-.127-.774-.846-1.593-1.461-.681zm1.044-1.351c.139.462.997.45 1.16.162.162-.289-.07-.335-.348-.52-.279-.184-.951-.184-.812.358zm-4.779 5.714c.278.404 1.345.092 1.473-.242.128-.335-.162-.3-.557-.381-.394-.081-1.264.138-.916.623zm2.853.312c-.336.346 0 .923.348.865.348-.057.256-.23.29-.507.035-.277-.208-.797-.638-.358zm-5.707 5.252c-.336.346-.209 1.246.36 1.154.568-.092.591-.439.626-.727a.576.576 0 00-.348-.544.582.582 0 00-.638.117zm.267 2.205c-.325.346-.302.935.267.842.568-.092.568-.311.603-.588.035-.277-.464-.681-.87-.254zm3.515-5.945c.185.438.8.831 1.218.508.417-.324-.197-1.039-.441-1.155-.244-.115-1.021.127-.777.647zm2.273.75c-2.262.185-2.134 2.043-1.287 2.309.846.265 1.844-.681 2.111-1.639.209-.728-.081-.739-.824-.67zm-3.596 2.009c-1.334.9-.429 2.47.441 2.308.87-.161 1.16-.831.882-1.789-.186-.75-.708-.97-1.323-.519zm-1.241-2.967c-.522.577.198 1.685 1.091 1.743a.847.847 0 00.897-1.056.835.835 0 00-.294-.444c-.209-.243-1.195-.797-1.694-.243zm-33.222-1.431c1.16 1.743-7.134 7.295-11.067 8.726a28.127 28.127 0 01-12.238 1.559c-3.804-.37-3.538-2.078-2.076-2.909 1.462-.831 4.153-1.651 6.403-4.202 2.251-2.551 6.345-3.024 9.373-4.617a12.865 12.865 0 003.758-2.47 5.77 5.77 0 01-1.96 2.401c-1.578 1.235-7.865 3.463-9.802 5.148-1.937 1.685-4.872 2.747-6.032 3.567-1.16.819 1.984 1.939 4.118 1.754 2.134-.184 5.881.727 16.994-6.325 2.633-1.64 2.529-2.632 2.529-2.632z" fill="#BD2335"/><path d="M131.716 154.453c-.777 0-.928 1.743-.406 1.951.522.208 1.937-1.905.406-1.951zm3.364-1.062c-1.079-.785-1.613.52-1.439 1.028.418 1.223 2.68-.116 1.439-1.028zm2.981-2.701c-.731-.531-1.102.346-.974.693.278.831 1.809-.093.974-.693zm-1.786.935c-.453-.323-.685.219-.603.439.174.519 1.148-.069.603-.439zm45.565-8.323s-5.8 8.704-7.935 9.512c-1.554.589-14.024 1.489-19.198-3.359a47.208 47.208 0 01-5.081-5.31s3.55 2.505 15.022 2.505c10.568 0 13.34-1.581 17.192-3.348zm7.18-18.642c-2.795.554-2.679-.565-4.756 5.437-.719 2.113-1.601 4.063.545 3.682a37.127 37.127 0 0012.331-4.397c1.659-.947 1.16-1.455.789-2.609-.371-1.155-1.67-2.967-2.448-3.013a45.24 45.24 0 00-6.461.9zm-10.266.531c-5.034 1.501-6.751 5.472-9.118 9.12-2.366 3.647-4.025 4.744-2.32 5.217 1.706.473 6.96-.427 12.575-3.567 1.496-.842 2.076-1.916 2.795-4.19.72-2.274 1.601-3.29 2.425-6.187.267-.843-.186-2.251-6.357-.393z" fill="#BD2335"/><path d="M167.711 128.597a15.374 15.374 0 00-5.951 4.501c-1.485 1.663-6.148 6.245-5.904 7.053.243.808 4.118 2.251 8.282-.15 2.506-1.443 8.549-11.104 8.642-12.27.093-1.166-.951-.958-5.069.866zm-6.067 1.523c-1.427.104-8.839 5.241-9.396 6.153-.557.912.174 3.543 1.821 3.359 1.647-.185 2.32-1.674 3.028-2.413.707-.738 5.521-5.956 5.8-6.348.278-.393.359-.878-1.253-.751zm8.12-3.763a43 43 0 00-6.96 2.898c-.174.242.069.715 1.427.173 1.357-.543 6.484-2.898 6.565-3.013.081-.116-.916-.081-1.032-.058zm11.751-3.22c-1.961 0-10.44 2.655-10.44 2.77a6.134 6.134 0 002.668.704c1.38.104.058-.554 7.54-2.932 1.287-.438 1.125-.542.232-.542zm14.001-.981a45.336 45.336 0 00-12.574.715c-.198.069-.116.3 1.368.658.69.275 1.363.588 2.019.935 1.16.139 3.573-.739 5.278-1.073 1.359-.135 2.71-.34 4.048-.612.255-.219.847-.508-.139-.623zm1.23 1.119c.301-.993 1.647-1.027 3.108-.866 1.462.162 4.988 1.316 5.568 2.309.348.6.186.658-.255.82a23.7 23.7 0 01-4.002 1.812 2.481 2.481 0 01-1.937-.312c-.684-.554-.684-1.154-2.181-3.07-.243-.335-.406-.37-.301-.693z" fill="#BD2335"/><path d="M151.401 136.411c-.429 1.316.58 5.68 6.577 5.553.986 0 1.091.092.65.531a5.824 5.824 0 01-4.164 1.985c-2.32 0-6.752-2.055-6.96-6.28-.151-2.147 3.897-1.789 3.897-1.789z" fill="#0B3D86"/><path d="M157.851 144.272a7.868 7.868 0 014.814-2.943c1.751-.104 3.004-.381 2.784.461-.221.843-2.111 2.99-3.608 2.979-1.496-.012-4.315-.024-3.99-.497z" fill="#EE7601"/><path d="M164.846 144.434a9.231 9.231 0 012.621-3.059 25.636 25.636 0 014.64-.831c1.659-.266 1.822 0 1.81.115-.012.116-.348 2.759-1.682 3.821-.928.762-7.575.358-7.389-.046z" fill="#418CCB"/><path d="M175.68 139.297c1.16-.439 4.419-3.07 5.37-1.72.447.873.632 1.854.534 2.828a18.523 18.523 0 00-3.109 1.812c-2.32 1.709-4.443 2.217-4.454 2.009-.012-.208.696-4.571 1.659-4.929z" fill="#0065B1"/><path d="M182.211 136.781a2.906 2.906 0 00.232 2.747c.557.312 2.749-.127 6.194-2.228 5.139-3.14 7.598.393 7.946-1.154.116-.497-1.659-3.463-3.793-3.463-1.288-.035-9.756 2.528-10.579 4.098z" fill="#008E3D"/><path d="M195.388 132.452c0-1.062 1.357-1.443 2.448-2.193 1.09-.75 1.577-1.535 2.993-1.501 1.415.035 1.821 1.859 1.914 2.898.058.681-.372 1.154-1.358 1.373a14.261 14.261 0 00-3.48 2.124c-.475.358-1.16-.312-1.357-.646-.197-.335-1.16-1.409-1.16-2.055z" fill="#11722E"/><path d="M202.87 127.754a4.068 4.068 0 013.654-1.628c.638.127 2.587.543 2.17 1.662-.418 1.12-1.659-.15-2.32 1.27-2.019 4.56-2.68 4.11-2.703 3.925.12-.784.198-1.574.232-2.366-.093-.693-1.16-1.628-1.16-1.951 0-.323-.209-.52.127-.912z" fill="#903189"/><path d="M222.405 124.291s7.076-.704 7.946 2.17a7.952 7.952 0 00-3.016.104s-.638-2.274-4.93-2.274zm.255 1.05c1.578-.15 3.236.843 2.656 2.771a3.35 3.35 0 00-.725-1.594 3.374 3.374 0 00-1.432-1.015l-.499-.162z" fill="#BD2335"/><path d="M222.787 127.084c.43.566 1.16 1.062 1.613.982.452-.081-.139-1.247-.673-1.663-1.694-1.339-1.404.07-.94.681zm2.111 27.496c-.533-.346-1.682 1.535-1.426 1.986.255.45.765.323 1.16-.312.394-.635.568-1.478.266-1.674z" fill="#BD2335"/><g filter="url(#filter25_d_155_2343)"><path d="M160.6 277.815a17.445 17.445 0 01-12.304-5.072A17.271 17.271 0 01143.2 260.5v34.629c0-4.592 1.833-8.996 5.096-12.243a17.444 17.444 0 0112.304-5.071z" fill="#4E68C4"/></g><g filter="url(#filter26_d_155_2343)"><path d="M160.6 277.815c4.615 0 9.04 1.824 12.304 5.071A17.271 17.271 0 01178 295.129V260.5c0 4.592-1.833 8.996-5.096 12.243a17.447 17.447 0 01-12.304 5.072z" fill="#4E68C4"/></g><g filter="url(#filter27_d_155_2343)"><path d="M160.6 277.815c0-4.592 1.833-8.997 5.096-12.244A17.444 17.444 0 01178 260.5h-34.8c4.615 0 9.04 1.824 12.304 5.071a17.274 17.274 0 015.096 12.244z" fill="#4E68C4"/></g><path d="M160.6 277.815c0-4.592-1.833-8.997-5.096-12.244A17.446 17.446 0 00143.2 260.5c0 4.592 1.833 8.996 5.096 12.243a17.445 17.445 0 0012.304 5.072zm0 0c4.615 0 9.04-1.825 12.304-5.072A17.271 17.271 0 00178 260.5a17.444 17.444 0 00-12.304 5.071 17.274 17.274 0 00-5.096 12.244z" fill="#00A7A7"/><g filter="url(#filter28_d_155_2343)"><path d="M178 295.129a17.444 17.444 0 01-12.304-5.071 17.271 17.271 0 01-5.096-12.243c0 4.592-1.833 8.996-5.096 12.243a17.446 17.446 0 01-12.304 5.071H178z" fill="#4E68C4"/></g><path d="M160.6 277.815a17.444 17.444 0 00-12.304 5.071 17.271 17.271 0 00-5.096 12.243c4.615 0 9.04-1.824 12.304-5.071a17.271 17.271 0 005.096-12.243zm0 0c0 4.592 1.833 8.996 5.096 12.243A17.444 17.444 0 00178 295.129c0-4.592-1.833-8.996-5.096-12.243a17.446 17.446 0 00-12.304-5.071z" fill="#00A7A7"/><g filter="url(#filter29_d_155_2343)"><path d="M195.4 295.129H178v34.63h17.4l-17.272-17.315 17.272-17.315z" fill="#00A7A7"/></g><g filter="url(#filter30_d_155_2343)"><path d="M212.8 295.129h-17.4v34.63h17.4l-17.272-17.315 17.272-17.315z" fill="#00A7A7"/></g><g filter="url(#filter31_d_155_2343)"><path d="M304.289 260.5h-4.431l17.214 17.315-17.272 17.314V260.5h-17.342l17.214 17.315-17.272 17.314h34.8v-47.477c0 3.408-1.36 6.676-3.782 9.085a12.944 12.944 0 01-9.129 3.763z" fill="#039898"/></g><g filter="url(#filter32_d_155_2343)"><path d="M299.8 260.431v.069h.057l-.057-.069z" fill="#820046"/></g><g filter="url(#filter33_d_155_2343)"><path d="M282.4 260.431v.069h.057l-.057-.069z" fill="#820046"/></g><g filter="url(#filter34_d_155_2343)"><path d="M21.4 191.241a17.44 17.44 0 00-12.304 5.072A17.271 17.271 0 004 208.556c0 4.592 1.833 8.996 5.096 12.243a17.445 17.445 0 0012.304 5.072h17.4v-34.63H21.4zm-1.16 21.932a5.814 5.814 0 01-3.222-.973 5.774 5.774 0 01-2.136-2.59 5.743 5.743 0 01-.33-3.334 5.767 5.767 0 011.587-2.956 5.811 5.811 0 012.97-1.579 5.83 5.83 0 013.35.328 5.796 5.796 0 012.604 2.126 5.752 5.752 0 01-.722 7.288 5.816 5.816 0 01-4.101 1.69z" fill="#00A7A7"/></g><path d="M24.88 118.519c0-3.187-2.597-5.771-5.8-5.771s-5.8 2.584-5.8 5.771c0 3.188 2.597 5.772 5.8 5.772s5.8-2.584 5.8-5.772z" fill="#4E68C4"/><g filter="url(#filter35_d_155_2343)"><path d="M334.6 121.982h-17.4v34.63h17.4a17.44 17.44 0 0012.304-5.072A17.271 17.271 0 00352 139.297c0-4.592-1.833-8.996-5.096-12.243a17.445 17.445 0 00-12.304-5.072zm0 23.087a5.822 5.822 0 01-3.222-.973 5.778 5.778 0 01-2.136-2.59 5.745 5.745 0 011.257-6.29 5.814 5.814 0 016.321-1.251 5.793 5.793 0 012.603 2.126 5.753 5.753 0 01-.722 7.287 5.811 5.811 0 01-4.101 1.691z" fill="#008DBA"/></g><g filter="url(#filter36_d_155_2343)"><path d="M38.8 347.073v17.315h17.4c-4.615 0-9.04-1.824-12.304-5.071a17.272 17.272 0 01-5.096-12.244z" fill="#4E68C4"/></g><g filter="url(#filter37_d_155_2343)"><path d="M56.2 364.388h17.4v-17.315c0 4.593-1.833 8.997-5.096 12.244a17.444 17.444 0 01-12.304 5.071z" fill="#4E68C4"/></g><g filter="url(#filter38_d_155_2343)"><path d="M56.2 329.759H38.8v17.314c0-4.592 1.833-8.996 5.096-12.243a17.444 17.444 0 0112.304-5.071z" fill="#4E68C4"/></g><g filter="url(#filter39_d_155_2343)"><path d="M56.2 329.759c0 4.592-1.833 8.996-5.096 12.243a17.444 17.444 0 01-12.304 5.071c4.615 0 9.04 1.825 12.304 5.072a17.271 17.271 0 015.096 12.243c0-4.592 1.833-8.996 5.096-12.243a17.445 17.445 0 0112.304-5.072c-4.615 0-9.04-1.824-12.304-5.071a17.271 17.271 0 01-5.096-12.243z" fill="#4E68C4"/></g><g filter="url(#filter40_d_155_2343)"><path d="M56.2 329.759c4.615 0 9.04 1.824 12.304 5.071a17.27 17.27 0 015.096 12.243v-17.314H56.2z" fill="#4E68C4"/></g><path d="M321.836 68.122l-6.562 6.53 6.562 6.53 6.562-6.53-6.562-6.53z" fill="#4E68C4"/><path d="M317.413 312.247l-8.703 8.66 8.703 8.66 8.703-8.66-8.703-8.66zM129.486 40.223l-7.341 7.305 7.341 7.305 7.342-7.305-7.342-7.305z" fill="#00A7A7"/><g filter="url(#filter41_d_155_2343)"><path d="M225.56 34.255a17.444 17.444 0 01-12.304-5.072 17.272 17.272 0 01-5.096-12.243v34.63c0-4.593 1.833-8.997 5.096-12.244a17.444 17.444 0 0112.304-5.071z" fill="#4E68C4"/></g><g filter="url(#filter42_d_155_2343)"><path d="M225.56 34.255c4.615 0 9.04 1.824 12.303 5.071a17.269 17.269 0 015.097 12.243V16.94c0 4.593-1.833 8.997-5.097 12.244a17.441 17.441 0 01-12.303 5.072z" fill="#4E68C4"/></g><g filter="url(#filter43_d_155_2343)"><path d="M225.56 34.255c0-4.593 1.833-8.997 5.096-12.244a17.444 17.444 0 0112.304-5.071h-34.8c4.615 0 9.04 1.824 12.304 5.071a17.272 17.272 0 015.096 12.244z" fill="#4E68C4"/></g><g filter="url(#filter44_d_155_2343)"><path d="M242.96 51.57a17.444 17.444 0 01-12.304-5.072 17.272 17.272 0 01-5.096-12.243c0 4.592-1.833 8.996-5.096 12.243a17.446 17.446 0 01-12.304 5.071h34.8z" fill="#4E68C4"/></g><g filter="url(#filter45_d_155_2343)"><path d="M33.21 16.501l-12.053 12.49 12.562 11.982a17.276 17.276 0 01-5.345-12.13A17.269 17.269 0 0133.21 16.5z" fill="#FF8718"/></g><g filter="url(#filter46_d_155_2343)"><path d="M57.8 15.993L45.25 4 33.208 16.501a17.44 17.44 0 0112.19-5.319A17.447 17.447 0 0157.8 15.993z" fill="#FF8718"/></g><g filter="url(#filter47_d_155_2343)"><path d="M33.72 40.973l12.55 11.993 12.041-12.501a17.44 17.44 0 01-12.19 5.32 17.447 17.447 0 01-12.402-4.812z" fill="#FF8718"/></g><path d="M57.8 15.993a17.44 17.44 0 01-12.19 5.32 17.447 17.447 0 01-12.4-4.813 17.275 17.275 0 015.345 12.13 17.268 17.268 0 01-4.835 12.342 17.44 17.44 0 0112.19-5.32 17.447 17.447 0 0112.402 4.812 17.275 17.275 0 01-5.346-12.13A17.268 17.268 0 0157.8 15.992z" fill="#00A7A7"/><g filter="url(#filter48_d_155_2343)"><path d="M57.801 15.993a17.275 17.275 0 015.345 12.131 17.268 17.268 0 01-4.835 12.34l12.053-12.489L57.8 15.993z" fill="#FF8718"/></g><g filter="url(#filter49_d_155_2343)"><path d="M38.8 243.185v4.456a12.79 12.79 0 00.98 4.92 12.842 12.842 0 002.797 4.172 12.914 12.914 0 004.19 2.788c1.568.646 3.247.979 4.944.979h4.292a17.27 17.27 0 00-5.027-12.174 17.442 17.442 0 00-12.176-5.141z" fill="#DADADA"/></g><path d="M38.8 225.871v17.314a17.442 17.442 0 0112.176 5.141 17.27 17.27 0 015.027 12.174H73.6a34.546 34.546 0 00-10.193-24.487A34.888 34.888 0 0038.8 225.871z" fill="#EDEDED"/><defs><filter id="filter0_d_155_2343" x="0" y="221.871" width="42.8" height="42.629" filterUnits="userSpaceOnUse" color-interpolation-filters="sRGB"><feFlood flood-opacity="0" result="BackgroundImageFix"/><feColorMatrix in="SourceAlpha" values="0 0 0 0 0 0 0 0 0 0 0 0 0 0 0 0 0 0 127 0" result="hardAlpha"/><feOffset/><feGaussianBlur stdDeviation="2"/><feComposite in2="hardAlpha" operator="out"/><feColorMatrix values="0 0 0 0 0 0 0 0 0 0 0 0 0 0 0 0 0 0 0.25 0"/><feBlend in2="BackgroundImageFix" result="effect1_dropShadow_155_2343"/><feBlend in="SourceGraphic" in2="effect1_dropShadow_155_2343" result="shape"/></filter><filter id="filter1_d_155_2343" x="34.8" y="256.5" width="42.8" height="42.629" filterUnits="userSpaceOnUse" color-interpolation-filters="sRGB"><feFlood flood-opacity="0" result="BackgroundImageFix"/><feColorMatrix in="SourceAlpha" values="0 0 0 0 0 0 0 0 0 0 0 0 0 0 0 0 0 0 127 0" result="hardAlpha"/><feOffset/><feGaussianBlur stdDeviation="2"/><feComposite in2="hardAlpha" operator="out"/><feColorMatrix values="0 0 0 0 0 0 0 0 0 0 0 0 0 0 0 0 0 0 0.25 0"/><feBlend in2="BackgroundImageFix" result="effect1_dropShadow_155_2343"/><feBlend in="SourceGraphic" in2="effect1_dropShadow_155_2343" result="shape"/></filter><filter id="filter2_d_155_2343" x="69.6" y="256.5" width="42.8" height="42.629" filterUnits="userSpaceOnUse" color-interpolation-filters="sRGB"><feFlood flood-opacity="0" result="BackgroundImageFix"/><feColorMatrix in="SourceAlpha" values="0 0 0 0 0 0 0 0 0 0 0 0 0 0 0 0 0 0 127 0" result="hardAlpha"/><feOffset/><feGaussianBlur stdDeviation="2"/><feComposite in2="hardAlpha" operator="out"/><feColorMatrix values="0 0 0 0 0 0 0 0 0 0 0 0 0 0 0 0 0 0 0.25 0"/><feBlend in2="BackgroundImageFix" result="effect1_dropShadow_155_2343"/><feBlend in="SourceGraphic" in2="effect1_dropShadow_155_2343" result="shape"/></filter><filter id="filter3_d_155_2343" x="139.2" y="256.5" width="42.8" height="42.629" filterUnits="userSpaceOnUse" color-interpolation-filters="sRGB"><feFlood flood-opacity="0" result="BackgroundImageFix"/><feColorMatrix in="SourceAlpha" values="0 0 0 0 0 0 0 0 0 0 0 0 0 0 0 0 0 0 127 0" result="hardAlpha"/><feOffset/><feGaussianBlur stdDeviation="2"/><feComposite in2="hardAlpha" operator="out"/><feColorMatrix values="0 0 0 0 0 0 0 0 0 0 0 0 0 0 0 0 0 0 0.25 0"/><feBlend in2="BackgroundImageFix" result="effect1_dropShadow_155_2343"/><feBlend in="SourceGraphic" in2="effect1_dropShadow_155_2343" result="shape"/></filter><filter id="filter4_d_155_2343" x="208.8" y="256.5" width="42.8" height="42.629" filterUnits="userSpaceOnUse" color-interpolation-filters="sRGB"><feFlood flood-opacity="0" result="BackgroundImageFix"/><feColorMatrix in="SourceAlpha" values="0 0 0 0 0 0 0 0 0 0 0 0 0 0 0 0 0 0 127 0" result="hardAlpha"/><feOffset/><feGaussianBlur stdDeviation="2"/><feComposite in2="hardAlpha" operator="out"/><feColorMatrix values="0 0 0 0 0 0 0 0 0 0 0 0 0 0 0 0 0 0 0.25 0"/><feBlend in2="BackgroundImageFix" result="effect1_dropShadow_155_2343"/><feBlend in="SourceGraphic" in2="effect1_dropShadow_155_2343" result="shape"/></filter><filter id="filter5_d_155_2343" x="204.16" y="47.569" width="25.4" height="25.315" filterUnits="userSpaceOnUse" color-interpolation-filters="sRGB"><feFlood flood-opacity="0" result="BackgroundImageFix"/><feColorMatrix in="SourceAlpha" values="0 0 0 0 0 0 0 0 0 0 0 0 0 0 0 0 0 0 127 0" result="hardAlpha"/><feOffset/><feGaussianBlur stdDeviation="2"/><feComposite in2="hardAlpha" operator="out"/><feColorMatrix values="0 0 0 0 0 0 0 0 0 0 0 0 0 0 0 0 0 0 0.25 0"/><feBlend in2="BackgroundImageFix" result="effect1_dropShadow_155_2343"/><feBlend in="SourceGraphic" in2="effect1_dropShadow_155_2343" result="shape"/></filter><filter id="filter6_d_155_2343" x="221.56" y="47.569" width="25.4" height="25.315" filterUnits="userSpaceOnUse" color-interpolation-filters="sRGB"><feFlood flood-opacity="0" result="BackgroundImageFix"/><feColorMatrix in="SourceAlpha" values="0 0 0 0 0 0 0 0 0 0 0 0 0 0 0 0 0 0 127 0" result="hardAlpha"/><feOffset/><feGaussianBlur stdDeviation="2"/><feComposite in2="hardAlpha" operator="out"/><feColorMatrix values="0 0 0 0 0 0 0 0 0 0 0 0 0 0 0 0 0 0 0.25 0"/><feBlend in2="BackgroundImageFix" result="effect1_dropShadow_155_2343"/><feBlend in="SourceGraphic" in2="effect1_dropShadow_155_2343" result="shape"/></filter><filter id="filter7_d_155_2343" x="34.8" y="238.363" width="26.2" height="26.137" filterUnits="userSpaceOnUse" color-interpolation-filters="sRGB"><feFlood flood-opacity="0" result="BackgroundImageFix"/><feColorMatrix in="SourceAlpha" values="0 0 0 0 0 0 0 0 0 0 0 0 0 0 0 0 0 0 127 0" result="hardAlpha"/><feOffset/><feGaussianBlur stdDeviation="2"/><feComposite in2="hardAlpha" operator="out"/><feColorMatrix values="0 0 0 0 0 0 0 0 0 0 0 0 0 0 0 0 0 0 0.25 0"/><feBlend in2="BackgroundImageFix" result="effect1_dropShadow_155_2343"/><feBlend in="SourceGraphic" in2="effect1_dropShadow_155_2343" result="shape"/></filter><filter id="filter8_d_155_2343" x="208.8" y="291.129" width="42.8" height="42.629" filterUnits="userSpaceOnUse" color-interpolation-filters="sRGB"><feFlood flood-opacity="0" result="BackgroundImageFix"/><feColorMatrix in="SourceAlpha" values="0 0 0 0 0 0 0 0 0 0 0 0 0 0 0 0 0 0 127 0" result="hardAlpha"/><feOffset/><feGaussianBlur stdDeviation="2"/><feComposite in2="hardAlpha" operator="out"/><feColorMatrix values="0 0 0 0 0 0 0 0 0 0 0 0 0 0 0 0 0 0 0.25 0"/><feBlend in2="BackgroundImageFix" result="effect1_dropShadow_155_2343"/><feBlend in="SourceGraphic" in2="effect1_dropShadow_155_2343" result="shape"/></filter><filter id="filter9_d_155_2343" x="243.6" y="256.5" width="42.8" height="42.629" filterUnits="userSpaceOnUse" color-interpolation-filters="sRGB"><feFlood flood-opacity="0" result="BackgroundImageFix"/><feColorMatrix in="SourceAlpha" values="0 0 0 0 0 0 0 0 0 0 0 0 0 0 0 0 0 0 127 0" result="hardAlpha"/><feOffset/><feGaussianBlur stdDeviation="2"/><feComposite in2="hardAlpha" operator="out"/><feColorMatrix values="0 0 0 0 0 0 0 0 0 0 0 0 0 0 0 0 0 0 0.25 0"/><feBlend in2="BackgroundImageFix" result="effect1_dropShadow_155_2343"/><feBlend in="SourceGraphic" in2="effect1_dropShadow_155_2343" result="shape"/></filter><filter id="filter10_d_155_2343" x="17.4" y="256.5" width="25.4" height="25.315" filterUnits="userSpaceOnUse" color-interpolation-filters="sRGB"><feFlood flood-opacity="0" result="BackgroundImageFix"/><feColorMatrix in="SourceAlpha" values="0 0 0 0 0 0 0 0 0 0 0 0 0 0 0 0 0 0 127 0" result="hardAlpha"/><feOffset/><feGaussianBlur stdDeviation="2"/><feComposite in2="hardAlpha" operator="out"/><feColorMatrix values="0 0 0 0 0 0 0 0 0 0 0 0 0 0 0 0 0 0 0.25 0"/><feBlend in2="BackgroundImageFix" result="effect1_dropShadow_155_2343"/><feBlend in="SourceGraphic" in2="effect1_dropShadow_155_2343" result="shape"/></filter><filter id="filter11_d_155_2343" x="174" y="256.5" width="25.4" height="25.315" filterUnits="userSpaceOnUse" color-interpolation-filters="sRGB"><feFlood flood-opacity="0" result="BackgroundImageFix"/><feColorMatrix in="SourceAlpha" values="0 0 0 0 0 0 0 0 0 0 0 0 0 0 0 0 0 0 127 0" result="hardAlpha"/><feOffset/><feGaussianBlur stdDeviation="2"/><feComposite in2="hardAlpha" operator="out"/><feColorMatrix values="0 0 0 0 0 0 0 0 0 0 0 0 0 0 0 0 0 0 0.25 0"/><feBlend in2="BackgroundImageFix" result="effect1_dropShadow_155_2343"/><feBlend in="SourceGraphic" in2="effect1_dropShadow_155_2343" result="shape"/></filter><filter id="filter12_d_155_2343" x="174" y="256.5" width="42.8" height="42.629" filterUnits="userSpaceOnUse" color-interpolation-filters="sRGB"><feFlood flood-opacity="0" result="BackgroundImageFix"/><feColorMatrix in="SourceAlpha" values="0 0 0 0 0 0 0 0 0 0 0 0 0 0 0 0 0 0 127 0" result="hardAlpha"/><feOffset/><feGaussianBlur stdDeviation="2"/><feComposite in2="hardAlpha" operator="out"/><feColorMatrix values="0 0 0 0 0 0 0 0 0 0 0 0 0 0 0 0 0 0 0.25 0"/><feBlend in2="BackgroundImageFix" result="effect1_dropShadow_155_2343"/><feBlend in="SourceGraphic" in2="effect1_dropShadow_155_2343" result="shape"/></filter><filter id="filter13_d_155_2343" x="243.6" y="256.5" width="42.8" height="42.629" filterUnits="userSpaceOnUse" color-interpolation-filters="sRGB"><feFlood flood-opacity="0" result="BackgroundImageFix"/><feColorMatrix in="SourceAlpha" values="0 0 0 0 0 0 0 0 0 0 0 0 0 0 0 0 0 0 127 0" result="hardAlpha"/><feOffset/><feGaussianBlur stdDeviation="2"/><feComposite in2="hardAlpha" operator="out"/><feColorMatrix values="0 0 0 0 0 0 0 0 0 0 0 0 0 0 0 0 0 0 0.25 0"/><feBlend in2="BackgroundImageFix" result="effect1_dropShadow_155_2343"/><feBlend in="SourceGraphic" in2="effect1_dropShadow_155_2343" result="shape"/></filter><filter id="filter14_d_155_2343" x="28.8" y="76.199" width="298.4" height="194.301" filterUnits="userSpaceOnUse" color-interpolation-filters="sRGB"><feFlood flood-opacity="0" result="BackgroundImageFix"/><feColorMatrix in="SourceAlpha" values="0 0 0 0 0 0 0 0 0 0 0 0 0 0 0 0 0 0 127 0" result="hardAlpha"/><feOffset/><feGaussianBlur stdDeviation="5"/><feComposite in2="hardAlpha" operator="out"/><feColorMatrix values="0 0 0 0 0 0 0 0 0 0 0 0 0 0 0 0 0 0 0.26 0"/><feBlend in2="BackgroundImageFix" result="effect1_dropShadow_155_2343"/><feBlend in="SourceGraphic" in2="effect1_dropShadow_155_2343" result="shape"/></filter><filter id="filter15_d_155_2343" x="34.8" y="256.5" width="25.4" height="25.315" filterUnits="userSpaceOnUse" color-interpolation-filters="sRGB"><feFlood flood-opacity="0" result="BackgroundImageFix"/><feColorMatrix in="SourceAlpha" values="0 0 0 0 0 0 0 0 0 0 0 0 0 0 0 0 0 0 127 0" result="hardAlpha"/><feOffset/><feGaussianBlur stdDeviation="2"/><feComposite in2="hardAlpha" operator="out"/><feColorMatrix values="0 0 0 0 0 0 0 0 0 0 0 0 0 0 0 0 0 0 0.25 0"/><feBlend in2="BackgroundImageFix" result="effect1_dropShadow_155_2343"/><feBlend in="SourceGraphic" in2="effect1_dropShadow_155_2343" result="shape"/></filter><filter id="filter16_d_155_2343" x="198.8" y="315.759" width="62.8" height="62.629" filterUnits="userSpaceOnUse" color-interpolation-filters="sRGB"><feFlood flood-opacity="0" result="BackgroundImageFix"/><feColorMatrix in="SourceAlpha" values="0 0 0 0 0 0 0 0 0 0 0 0 0 0 0 0 0 0 127 0" result="hardAlpha"/><feOffset/><feGaussianBlur stdDeviation="7"/><feComposite in2="hardAlpha" operator="out"/><feColorMatrix values="0 0 0 0 0 0 0 0 0 0 0 0 0 0 0 0 0 0 0.25 0"/><feBlend in2="BackgroundImageFix" result="effect1_dropShadow_155_2343"/><feBlend in="SourceGraphic" in2="effect1_dropShadow_155_2343" result="shape"/></filter><filter id="filter17_d_155_2343" x="313.2" y="187.241" width="42.8" height="42.629" filterUnits="userSpaceOnUse" color-interpolation-filters="sRGB"><feFlood flood-opacity="0" result="BackgroundImageFix"/><feColorMatrix in="SourceAlpha" values="0 0 0 0 0 0 0 0 0 0 0 0 0 0 0 0 0 0 127 0" result="hardAlpha"/><feOffset/><feGaussianBlur stdDeviation="2"/><feComposite in2="hardAlpha" operator="out"/><feColorMatrix values="0 0 0 0 0 0 0 0 0 0 0 0 0 0 0 0 0 0 0.25 0"/><feBlend in2="BackgroundImageFix" result="effect1_dropShadow_155_2343"/><feBlend in="SourceGraphic" in2="effect1_dropShadow_155_2343" result="shape"/></filter><filter id="filter18_d_155_2343" x="313.2" y="187.241" width="25.4" height="25.315" filterUnits="userSpaceOnUse" color-interpolation-filters="sRGB"><feFlood flood-opacity="0" result="BackgroundImageFix"/><feColorMatrix in="SourceAlpha" values="0 0 0 0 0 0 0 0 0 0 0 0 0 0 0 0 0 0 127 0" result="hardAlpha"/><feOffset/><feGaussianBlur stdDeviation="2"/><feComposite in2="hardAlpha" operator="out"/><feColorMatrix values="0 0 0 0 0 0 0 0 0 0 0 0 0 0 0 0 0 0 0.25 0"/><feBlend in2="BackgroundImageFix" result="effect1_dropShadow_155_2343"/><feBlend in="SourceGraphic" in2="effect1_dropShadow_155_2343" result="shape"/></filter><filter id="filter19_d_155_2343" x="313.2" y="152.612" width="42.8" height="42.629" filterUnits="userSpaceOnUse" color-interpolation-filters="sRGB"><feFlood flood-opacity="0" result="BackgroundImageFix"/><feColorMatrix in="SourceAlpha" values="0 0 0 0 0 0 0 0 0 0 0 0 0 0 0 0 0 0 127 0" result="hardAlpha"/><feOffset/><feGaussianBlur stdDeviation="2"/><feComposite in2="hardAlpha" operator="out"/><feColorMatrix values="0 0 0 0 0 0 0 0 0 0 0 0 0 0 0 0 0 0 0.25 0"/><feBlend in2="BackgroundImageFix" result="effect1_dropShadow_155_2343"/><feBlend in="SourceGraphic" in2="effect1_dropShadow_155_2343" result="shape"/></filter><filter id="filter20_d_155_2343" x="313.2" y="169.927" width="25.4" height="25.315" filterUnits="userSpaceOnUse" color-interpolation-filters="sRGB"><feFlood flood-opacity="0" result="BackgroundImageFix"/><feColorMatrix in="SourceAlpha" values="0 0 0 0 0 0 0 0 0 0 0 0 0 0 0 0 0 0 127 0" result="hardAlpha"/><feOffset/><feGaussianBlur stdDeviation="2"/><feComposite in2="hardAlpha" operator="out"/><feColorMatrix values="0 0 0 0 0 0 0 0 0 0 0 0 0 0 0 0 0 0 0.25 0"/><feBlend in2="BackgroundImageFix" result="effect1_dropShadow_155_2343"/><feBlend in="SourceGraphic" in2="effect1_dropShadow_155_2343" result="shape"/></filter><filter id="filter21_d_155_2343" x="55.68" y="47.569" width="42.8" height="42.629" filterUnits="userSpaceOnUse" color-interpolation-filters="sRGB"><feFlood flood-opacity="0" result="BackgroundImageFix"/><feColorMatrix in="SourceAlpha" values="0 0 0 0 0 0 0 0 0 0 0 0 0 0 0 0 0 0 127 0" result="hardAlpha"/><feOffset/><feGaussianBlur stdDeviation="2"/><feComposite in2="hardAlpha" operator="out"/><feColorMatrix values="0 0 0 0 0 0 0 0 0 0 0 0 0 0 0 0 0 0 0.25 0"/><feBlend in2="BackgroundImageFix" result="effect1_dropShadow_155_2343"/><feBlend in="SourceGraphic" in2="effect1_dropShadow_155_2343" result="shape"/></filter><filter id="filter22_d_155_2343" x="73.08" y="64.884" width="25.4" height="25.315" filterUnits="userSpaceOnUse" color-interpolation-filters="sRGB"><feFlood flood-opacity="0" result="BackgroundImageFix"/><feColorMatrix in="SourceAlpha" values="0 0 0 0 0 0 0 0 0 0 0 0 0 0 0 0 0 0 127 0" result="hardAlpha"/><feOffset/><feGaussianBlur stdDeviation="2"/><feComposite in2="hardAlpha" operator="out"/><feColorMatrix values="0 0 0 0 0 0 0 0 0 0 0 0 0 0 0 0 0 0 0.25 0"/><feBlend in2="BackgroundImageFix" result="effect1_dropShadow_155_2343"/><feBlend in="SourceGraphic" in2="effect1_dropShadow_155_2343" result="shape"/></filter><filter id="filter23_d_155_2343" x="90.48" y="47.569" width="42.8" height="42.629" filterUnits="userSpaceOnUse" color-interpolation-filters="sRGB"><feFlood flood-opacity="0" result="BackgroundImageFix"/><feColorMatrix in="SourceAlpha" values="0 0 0 0 0 0 0 0 0 0 0 0 0 0 0 0 0 0 127 0" result="hardAlpha"/><feOffset/><feGaussianBlur stdDeviation="2"/><feComposite in2="hardAlpha" operator="out"/><feColorMatrix values="0 0 0 0 0 0 0 0 0 0 0 0 0 0 0 0 0 0 0.25 0"/><feBlend in2="BackgroundImageFix" result="effect1_dropShadow_155_2343"/><feBlend in="SourceGraphic" in2="effect1_dropShadow_155_2343" result="shape"/></filter><filter id="filter24_d_155_2343" x="90.48" y="64.884" width="25.4" height="25.315" filterUnits="userSpaceOnUse" color-interpolation-filters="sRGB"><feFlood flood-opacity="0" result="BackgroundImageFix"/><feColorMatrix in="SourceAlpha" values="0 0 0 0 0 0 0 0 0 0 0 0 0 0 0 0 0 0 127 0" result="hardAlpha"/><feOffset/><feGaussianBlur stdDeviation="2"/><feComposite in2="hardAlpha" operator="out"/><feColorMatrix values="0 0 0 0 0 0 0 0 0 0 0 0 0 0 0 0 0 0 0.25 0"/><feBlend in2="BackgroundImageFix" result="effect1_dropShadow_155_2343"/><feBlend in="SourceGraphic" in2="effect1_dropShadow_155_2343" result="shape"/></filter><filter id="filter25_d_155_2343" x="139.2" y="256.5" width="25.4" height="42.629" filterUnits="userSpaceOnUse" color-interpolation-filters="sRGB"><feFlood flood-opacity="0" result="BackgroundImageFix"/><feColorMatrix in="SourceAlpha" values="0 0 0 0 0 0 0 0 0 0 0 0 0 0 0 0 0 0 127 0" result="hardAlpha"/><feOffset/><feGaussianBlur stdDeviation="2"/><feComposite in2="hardAlpha" operator="out"/><feColorMatrix values="0 0 0 0 0 0 0 0 0 0 0 0 0 0 0 0 0 0 0.25 0"/><feBlend in2="BackgroundImageFix" result="effect1_dropShadow_155_2343"/><feBlend in="SourceGraphic" in2="effect1_dropShadow_155_2343" result="shape"/></filter><filter id="filter26_d_155_2343" x="156.6" y="256.5" width="25.4" height="42.629" filterUnits="userSpaceOnUse" color-interpolation-filters="sRGB"><feFlood flood-opacity="0" result="BackgroundImageFix"/><feColorMatrix in="SourceAlpha" values="0 0 0 0 0 0 0 0 0 0 0 0 0 0 0 0 0 0 127 0" result="hardAlpha"/><feOffset/><feGaussianBlur stdDeviation="2"/><feComposite in2="hardAlpha" operator="out"/><feColorMatrix values="0 0 0 0 0 0 0 0 0 0 0 0 0 0 0 0 0 0 0.25 0"/><feBlend in2="BackgroundImageFix" result="effect1_dropShadow_155_2343"/><feBlend in="SourceGraphic" in2="effect1_dropShadow_155_2343" result="shape"/></filter><filter id="filter27_d_155_2343" x="38.2" y="155.5" width="244.8" height="227.315" filterUnits="userSpaceOnUse" color-interpolation-filters="sRGB"><feFlood flood-opacity="0" result="BackgroundImageFix"/><feColorMatrix in="SourceAlpha" values="0 0 0 0 0 0 0 0 0 0 0 0 0 0 0 0 0 0 127 0" result="hardAlpha"/><feOffset/><feGaussianBlur stdDeviation="52.5"/><feComposite in2="hardAlpha" operator="out"/><feColorMatrix values="0 0 0 0 0 0 0 0 0 0 0 0 0 0 0 0 0 0 1 0"/><feBlend in2="BackgroundImageFix" result="effect1_dropShadow_155_2343"/><feBlend in="SourceGraphic" in2="effect1_dropShadow_155_2343" result="shape"/></filter><filter id="filter28_d_155_2343" x="38.2" y="172.815" width="244.8" height="227.315" filterUnits="userSpaceOnUse" color-interpolation-filters="sRGB"><feFlood flood-opacity="0" result="BackgroundImageFix"/><feColorMatrix in="SourceAlpha" values="0 0 0 0 0 0 0 0 0 0 0 0 0 0 0 0 0 0 127 0" result="hardAlpha"/><feOffset/><feGaussianBlur stdDeviation="52.5"/><feComposite in2="hardAlpha" operator="out"/><feColorMatrix values="0 0 0 0 0 0 0 0 0 0 0 0 0 0 0 0 0 0 1 0"/><feBlend in2="BackgroundImageFix" result="effect1_dropShadow_155_2343"/><feBlend in="SourceGraphic" in2="effect1_dropShadow_155_2343" result="shape"/></filter><filter id="filter29_d_155_2343" x="174" y="291.129" width="25.4" height="42.629" filterUnits="userSpaceOnUse" color-interpolation-filters="sRGB"><feFlood flood-opacity="0" result="BackgroundImageFix"/><feColorMatrix in="SourceAlpha" values="0 0 0 0 0 0 0 0 0 0 0 0 0 0 0 0 0 0 127 0" result="hardAlpha"/><feOffset/><feGaussianBlur stdDeviation="2"/><feComposite in2="hardAlpha" operator="out"/><feColorMatrix values="0 0 0 0 0 0 0 0 0 0 0 0 0 0 0 0 0 0 0.25 0"/><feBlend in2="BackgroundImageFix" result="effect1_dropShadow_155_2343"/><feBlend in="SourceGraphic" in2="effect1_dropShadow_155_2343" result="shape"/></filter><filter id="filter30_d_155_2343" x="191.4" y="291.129" width="25.4" height="42.629" filterUnits="userSpaceOnUse" color-interpolation-filters="sRGB"><feFlood flood-opacity="0" result="BackgroundImageFix"/><feColorMatrix in="SourceAlpha" values="0 0 0 0 0 0 0 0 0 0 0 0 0 0 0 0 0 0 127 0" result="hardAlpha"/><feOffset/><feGaussianBlur stdDeviation="2"/><feComposite in2="hardAlpha" operator="out"/><feColorMatrix values="0 0 0 0 0 0 0 0 0 0 0 0 0 0 0 0 0 0 0.25 0"/><feBlend in2="BackgroundImageFix" result="effect1_dropShadow_155_2343"/><feBlend in="SourceGraphic" in2="effect1_dropShadow_155_2343" result="shape"/></filter><filter id="filter31_d_155_2343" x="278.4" y="243.652" width="42.8" height="55.477" filterUnits="userSpaceOnUse" color-interpolation-filters="sRGB"><feFlood flood-opacity="0" result="BackgroundImageFix"/><feColorMatrix in="SourceAlpha" values="0 0 0 0 0 0 0 0 0 0 0 0 0 0 0 0 0 0 127 0" result="hardAlpha"/><feOffset/><feGaussianBlur stdDeviation="2"/><feComposite in2="hardAlpha" operator="out"/><feColorMatrix values="0 0 0 0 0 0 0 0 0 0 0 0 0 0 0 0 0 0 0.25 0"/><feBlend in2="BackgroundImageFix" result="effect1_dropShadow_155_2343"/><feBlend in="SourceGraphic" in2="effect1_dropShadow_155_2343" result="shape"/></filter><filter id="filter32_d_155_2343" x="295.8" y="256.431" width="8.058" height="8.069" filterUnits="userSpaceOnUse" color-interpolation-filters="sRGB"><feFlood flood-opacity="0" result="BackgroundImageFix"/><feColorMatrix in="SourceAlpha" values="0 0 0 0 0 0 0 0 0 0 0 0 0 0 0 0 0 0 127 0" result="hardAlpha"/><feOffset/><feGaussianBlur stdDeviation="2"/><feComposite in2="hardAlpha" operator="out"/><feColorMatrix values="0 0 0 0 0 0 0 0 0 0 0 0 0 0 0 0 0 0 0.25 0"/><feBlend in2="BackgroundImageFix" result="effect1_dropShadow_155_2343"/><feBlend in="SourceGraphic" in2="effect1_dropShadow_155_2343" result="shape"/></filter><filter id="filter33_d_155_2343" x="278.4" y="256.431" width="8.058" height="8.069" filterUnits="userSpaceOnUse" color-interpolation-filters="sRGB"><feFlood flood-opacity="0" result="BackgroundImageFix"/><feColorMatrix in="SourceAlpha" values="0 0 0 0 0 0 0 0 0 0 0 0 0 0 0 0 0 0 127 0" result="hardAlpha"/><feOffset/><feGaussianBlur stdDeviation="2"/><feComposite in2="hardAlpha" operator="out"/><feColorMatrix values="0 0 0 0 0 0 0 0 0 0 0 0 0 0 0 0 0 0 0.25 0"/><feBlend in2="BackgroundImageFix" result="effect1_dropShadow_155_2343"/><feBlend in="SourceGraphic" in2="effect1_dropShadow_155_2343" result="shape"/></filter><filter id="filter34_d_155_2343" x="0" y="187.241" width="42.8" height="42.629" filterUnits="userSpaceOnUse" color-interpolation-filters="sRGB"><feFlood flood-opacity="0" result="BackgroundImageFix"/><feColorMatrix in="SourceAlpha" values="0 0 0 0 0 0 0 0 0 0 0 0 0 0 0 0 0 0 127 0" result="hardAlpha"/><feOffset/><feGaussianBlur stdDeviation="2"/><feComposite in2="hardAlpha" operator="out"/><feColorMatrix values="0 0 0 0 0 0 0 0 0 0 0 0 0 0 0 0 0 0 0.25 0"/><feBlend in2="BackgroundImageFix" result="effect1_dropShadow_155_2343"/><feBlend in="SourceGraphic" in2="effect1_dropShadow_155_2343" result="shape"/></filter><filter id="filter35_d_155_2343" x="313.2" y="117.982" width="42.8" height="42.629" filterUnits="userSpaceOnUse" color-interpolation-filters="sRGB"><feFlood flood-opacity="0" result="BackgroundImageFix"/><feColorMatrix in="SourceAlpha" values="0 0 0 0 0 0 0 0 0 0 0 0 0 0 0 0 0 0 127 0" result="hardAlpha"/><feOffset/><feGaussianBlur stdDeviation="2"/><feComposite in2="hardAlpha" operator="out"/><feColorMatrix values="0 0 0 0 0 0 0 0 0 0 0 0 0 0 0 0 0 0 0.25 0"/><feBlend in2="BackgroundImageFix" result="effect1_dropShadow_155_2343"/><feBlend in="SourceGraphic" in2="effect1_dropShadow_155_2343" result="shape"/></filter><filter id="filter36_d_155_2343" x="20.8" y="329.073" width="53.4" height="53.315" filterUnits="userSpaceOnUse" color-interpolation-filters="sRGB"><feFlood flood-opacity="0" result="BackgroundImageFix"/><feColorMatrix in="SourceAlpha" values="0 0 0 0 0 0 0 0 0 0 0 0 0 0 0 0 0 0 127 0" result="hardAlpha"/><feOffset/><feGaussianBlur stdDeviation="9"/><feComposite in2="hardAlpha" operator="out"/><feColorMatrix values="0 0 0 0 0 0 0 0 0 0 0 0 0 0 0 0 0 0 0.34 0"/><feBlend in2="BackgroundImageFix" result="effect1_dropShadow_155_2343"/><feBlend in="SourceGraphic" in2="effect1_dropShadow_155_2343" result="shape"/></filter><filter id="filter37_d_155_2343" x="38.2" y="329.073" width="53.4" height="53.315" filterUnits="userSpaceOnUse" color-interpolation-filters="sRGB"><feFlood flood-opacity="0" result="BackgroundImageFix"/><feColorMatrix in="SourceAlpha" values="0 0 0 0 0 0 0 0 0 0 0 0 0 0 0 0 0 0 127 0" result="hardAlpha"/><feOffset/><feGaussianBlur stdDeviation="9"/><feComposite in2="hardAlpha" operator="out"/><feColorMatrix values="0 0 0 0 0 0 0 0 0 0 0 0 0 0 0 0 0 0 0.34 0"/><feBlend in2="BackgroundImageFix" result="effect1_dropShadow_155_2343"/><feBlend in="SourceGraphic" in2="effect1_dropShadow_155_2343" result="shape"/></filter><filter id="filter38_d_155_2343" x="20.8" y="311.759" width="53.4" height="53.315" filterUnits="userSpaceOnUse" color-interpolation-filters="sRGB"><feFlood flood-opacity="0" result="BackgroundImageFix"/><feColorMatrix in="SourceAlpha" values="0 0 0 0 0 0 0 0 0 0 0 0 0 0 0 0 0 0 127 0" result="hardAlpha"/><feOffset/><feGaussianBlur stdDeviation="9"/><feComposite in2="hardAlpha" operator="out"/><feColorMatrix values="0 0 0 0 0 0 0 0 0 0 0 0 0 0 0 0 0 0 0.34 0"/><feBlend in2="BackgroundImageFix" result="effect1_dropShadow_155_2343"/><feBlend in="SourceGraphic" in2="effect1_dropShadow_155_2343" result="shape"/></filter><filter id="filter39_d_155_2343" x="20.8" y="311.759" width="70.8" height="70.629" filterUnits="userSpaceOnUse" color-interpolation-filters="sRGB"><feFlood flood-opacity="0" result="BackgroundImageFix"/><feColorMatrix in="SourceAlpha" values="0 0 0 0 0 0 0 0 0 0 0 0 0 0 0 0 0 0 127 0" result="hardAlpha"/><feOffset/><feGaussianBlur stdDeviation="9"/><feComposite in2="hardAlpha" operator="out"/><feColorMatrix values="0 0 0 0 0 0 0 0 0 0 0 0 0 0 0 0 0 0 0.34 0"/><feBlend in2="BackgroundImageFix" result="effect1_dropShadow_155_2343"/><feBlend in="SourceGraphic" in2="effect1_dropShadow_155_2343" result="shape"/></filter><filter id="filter40_d_155_2343" x="38.2" y="311.759" width="53.4" height="53.315" filterUnits="userSpaceOnUse" color-interpolation-filters="sRGB"><feFlood flood-opacity="0" result="BackgroundImageFix"/><feColorMatrix in="SourceAlpha" values="0 0 0 0 0 0 0 0 0 0 0 0 0 0 0 0 0 0 127 0" result="hardAlpha"/><feOffset/><feGaussianBlur stdDeviation="9"/><feComposite in2="hardAlpha" operator="out"/><feColorMatrix values="0 0 0 0 0 0 0 0 0 0 0 0 0 0 0 0 0 0 0.34 0"/><feBlend in2="BackgroundImageFix" result="effect1_dropShadow_155_2343"/><feBlend in="SourceGraphic" in2="effect1_dropShadow_155_2343" result="shape"/></filter><filter id="filter41_d_155_2343" x="204.16" y="12.94" width="25.4" height="42.629" filterUnits="userSpaceOnUse" color-interpolation-filters="sRGB"><feFlood flood-opacity="0" result="BackgroundImageFix"/><feColorMatrix in="SourceAlpha" values="0 0 0 0 0 0 0 0 0 0 0 0 0 0 0 0 0 0 127 0" result="hardAlpha"/><feOffset/><feGaussianBlur stdDeviation="2"/><feComposite in2="hardAlpha" operator="out"/><feColorMatrix values="0 0 0 0 0 0 0 0 0 0 0 0 0 0 0 0 0 0 0.25 0"/><feBlend in2="BackgroundImageFix" result="effect1_dropShadow_155_2343"/><feBlend in="SourceGraphic" in2="effect1_dropShadow_155_2343" result="shape"/></filter><filter id="filter42_d_155_2343" x="221.56" y="12.94" width="25.4" height="42.629" filterUnits="userSpaceOnUse" color-interpolation-filters="sRGB"><feFlood flood-opacity="0" result="BackgroundImageFix"/><feColorMatrix in="SourceAlpha" values="0 0 0 0 0 0 0 0 0 0 0 0 0 0 0 0 0 0 127 0" result="hardAlpha"/><feOffset/><feGaussianBlur stdDeviation="2"/><feComposite in2="hardAlpha" operator="out"/><feColorMatrix values="0 0 0 0 0 0 0 0 0 0 0 0 0 0 0 0 0 0 0.25 0"/><feBlend in2="BackgroundImageFix" result="effect1_dropShadow_155_2343"/><feBlend in="SourceGraphic" in2="effect1_dropShadow_155_2343" result="shape"/></filter><filter id="filter43_d_155_2343" x="204.16" y="12.94" width="42.8" height="25.315" filterUnits="userSpaceOnUse" color-interpolation-filters="sRGB"><feFlood flood-opacity="0" result="BackgroundImageFix"/><feColorMatrix in="SourceAlpha" values="0 0 0 0 0 0 0 0 0 0 0 0 0 0 0 0 0 0 127 0" result="hardAlpha"/><feOffset/><feGaussianBlur stdDeviation="2"/><feComposite in2="hardAlpha" operator="out"/><feColorMatrix values="0 0 0 0 0 0 0 0 0 0 0 0 0 0 0 0 0 0 0.25 0"/><feBlend in2="BackgroundImageFix" result="effect1_dropShadow_155_2343"/><feBlend in="SourceGraphic" in2="effect1_dropShadow_155_2343" result="shape"/></filter><filter id="filter44_d_155_2343" x="204.16" y="30.255" width="42.8" height="25.315" filterUnits="userSpaceOnUse" color-interpolation-filters="sRGB"><feFlood flood-opacity="0" result="BackgroundImageFix"/><feColorMatrix in="SourceAlpha" values="0 0 0 0 0 0 0 0 0 0 0 0 0 0 0 0 0 0 127 0" result="hardAlpha"/><feOffset/><feGaussianBlur stdDeviation="2"/><feComposite in2="hardAlpha" operator="out"/><feColorMatrix values="0 0 0 0 0 0 0 0 0 0 0 0 0 0 0 0 0 0 0.25 0"/><feBlend in2="BackgroundImageFix" result="effect1_dropShadow_155_2343"/><feBlend in="SourceGraphic" in2="effect1_dropShadow_155_2343" result="shape"/></filter><filter id="filter45_d_155_2343" x="17.157" y="12.501" width="20.563" height="32.471" filterUnits="userSpaceOnUse" color-interpolation-filters="sRGB"><feFlood flood-opacity="0" result="BackgroundImageFix"/><feColorMatrix in="SourceAlpha" values="0 0 0 0 0 0 0 0 0 0 0 0 0 0 0 0 0 0 127 0" result="hardAlpha"/><feOffset/><feGaussianBlur stdDeviation="2"/><feComposite in2="hardAlpha" operator="out"/><feColorMatrix values="0 0 0 0 0 0 0 0 0 0 0 0 0 0 0 0 0 0 0.25 0"/><feBlend in2="BackgroundImageFix" result="effect1_dropShadow_155_2343"/><feBlend in="SourceGraphic" in2="effect1_dropShadow_155_2343" result="shape"/></filter><filter id="filter46_d_155_2343" x="29.209" y="0" width="32.592" height="20.501" filterUnits="userSpaceOnUse" color-interpolation-filters="sRGB"><feFlood flood-opacity="0" result="BackgroundImageFix"/><feColorMatrix in="SourceAlpha" values="0 0 0 0 0 0 0 0 0 0 0 0 0 0 0 0 0 0 127 0" result="hardAlpha"/><feOffset/><feGaussianBlur stdDeviation="2"/><feComposite in2="hardAlpha" operator="out"/><feColorMatrix values="0 0 0 0 0 0 0 0 0 0 0 0 0 0 0 0 0 0 0.25 0"/><feBlend in2="BackgroundImageFix" result="effect1_dropShadow_155_2343"/><feBlend in="SourceGraphic" in2="effect1_dropShadow_155_2343" result="shape"/></filter><filter id="filter47_d_155_2343" x="29.72" y="36.465" width="32.592" height="20.501" filterUnits="userSpaceOnUse" color-interpolation-filters="sRGB"><feFlood flood-opacity="0" result="BackgroundImageFix"/><feColorMatrix in="SourceAlpha" values="0 0 0 0 0 0 0 0 0 0 0 0 0 0 0 0 0 0 127 0" result="hardAlpha"/><feOffset/><feGaussianBlur stdDeviation="2"/><feComposite in2="hardAlpha" operator="out"/><feColorMatrix values="0 0 0 0 0 0 0 0 0 0 0 0 0 0 0 0 0 0 0.25 0"/><feBlend in2="BackgroundImageFix" result="effect1_dropShadow_155_2343"/><feBlend in="SourceGraphic" in2="effect1_dropShadow_155_2343" result="shape"/></filter><filter id="filter48_d_155_2343" x="53.801" y="11.993" width="20.563" height="32.471" filterUnits="userSpaceOnUse" color-interpolation-filters="sRGB"><feFlood flood-opacity="0" result="BackgroundImageFix"/><feColorMatrix in="SourceAlpha" values="0 0 0 0 0 0 0 0 0 0 0 0 0 0 0 0 0 0 127 0" result="hardAlpha"/><feOffset/><feGaussianBlur stdDeviation="2"/><feComposite in2="hardAlpha" operator="out"/><feColorMatrix values="0 0 0 0 0 0 0 0 0 0 0 0 0 0 0 0 0 0 0.25 0"/><feBlend in2="BackgroundImageFix" result="effect1_dropShadow_155_2343"/><feBlend in="SourceGraphic" in2="effect1_dropShadow_155_2343" result="shape"/></filter><filter id="filter49_d_155_2343" x="34.8" y="239.185" width="25.203" height="25.315" filterUnits="userSpaceOnUse" color-interpolation-filters="sRGB"><feFlood flood-opacity="0" result="BackgroundImageFix"/><feColorMatrix in="SourceAlpha" values="0 0 0 0 0 0 0 0 0 0 0 0 0 0 0 0 0 0 127 0" result="hardAlpha"/><feOffset/><feGaussianBlur stdDeviation="2"/><feComposite in2="hardAlpha" operator="out"/><feColorMatrix values="0 0 0 0 0 0 0 0 0 0 0 0 0 0 0 0 0 0 0.25 0"/><feBlend in2="BackgroundImageFix" result="effect1_dropShadow_155_2343"/><feBlend in="SourceGraphic" in2="effect1_dropShadow_155_2343" result="shape"/></filter></defs></svg>