<svg width="17" height="12" fill="none" xmlns="http://www.w3.org/2000/svg"><path d="M4.992 9.719l2.516-6.172H9.14L5.633 12H4.352l-3.5-8.453h1.632l2.508 6.172zM2 3.547V12H.117V3.547H2zM7.984 12V3.547h1.891V12h-1.89zm8.407-6.344V6.79h-4.758v-.953l2.242-2.07c.213-.193.383-.37.508-.532.13-.166.224-.317.281-.453a.855.855 0 00.094-.344.726.726 0 00-.219-.546c-.146-.146-.357-.22-.633-.22-.333 0-.583.095-.75.282a.977.977 0 00-.242.672h-1.422c0-.38.094-.73.281-1.047.193-.318.464-.57.813-.758.354-.187.776-.28 1.266-.28.494 0 .914.075 1.257.226.35.15.615.367.797.648.188.281.281.62.281 1.016 0 .286-.062.552-.187.797-.125.24-.307.479-.547.718-.234.24-.526.503-.875.79l-1.101.921h2.914z" fill="#959595"/></svg>