<svg width="53" height="44" viewBox="0 0 53 44" fill="none" xmlns="http://www.w3.org/2000/svg"><path d="M47.85 23.41c-.1.8-.2 1.6-.34 2.38-.64 3.6-2.21 6.99-4.56 9.8-.28.36-.6.45-.9.27-.3-.18-.37-.48-.25-.8.07-.15.17-.28.29-.4a18.96 18.96 0 0 0 3.74-7.27c1.77-6.87.44-13.1-4.16-18.53a19 19 0 0 0-11.94-6.68c-6.14-.94-11.64.6-16.37 4.66a19.56 19.56 0 0 0-6.59 11.42A20.1 20.1 0 0 0 28.35 42a19.81 19.81 0 0 0 11.3-4.81l.25-.22c.35-.28.7-.29.96 0 .25.27.22.67-.15.97-.78.62-1.55 1.27-2.37 1.83a20.54 20.54 0 0 1-8.9 3.39A21.22 21.22 0 0 1 5.78 26.98c-1.87-8.29.45-15.4 6.76-21.11A20.1 20.1 0 0 1 23.24.9l1.68-.25h3.17l1.39.19c3.82.55 7.27 2 10.29 4.42a21 21 0 0 1 7.75 12.98c.13.75.22 1.5.33 2.25v2.92Z" fill="#F6F6F6"/><path d="M13.4 23.3H39.6v-2.63H21.75a5 5 0 0 1-.5 0c-.36-.05-.55-.25-.57-.6a.61.61 0 0 1 .57-.65H39.4c1 0 1.51.52 1.51 1.51v2.21c0 .9-.55 1.44-1.42 1.44h-26c-.85 0-1.4-.56-1.4-1.41v-2.38c0-.82.56-1.37 1.4-1.37h4.7c.48 0 .77.24.78.62 0 .38-.28.63-.77.63H13.4v2.62ZM27.14 28.98v6.99c.01.15 0 .3-.02.46-.06.34-.28.55-.62.55-.35 0-.56-.22-.63-.55a2.14 2.14 0 0 1-.02-.42v-7.03l-.08-.02L25 30.2c-.21.34-.41.7-.63 1.03-.25.41-.6.52-.94.32-.33-.21-.37-.57-.13-1l.45-.74 2.08-3.45c.4-.67.91-.67 1.32 0a1773.4 1773.4 0 0 1 2.6 4.32c.17.34.09.7-.21.87-.3.18-.65.11-.87-.23-.42-.67-.82-1.35-1.23-2.02l-.22-.35-.09.02ZM33.94 28.96l-1.2 1.98-.24.39c-.23.33-.56.41-.87.24-.3-.18-.4-.55-.2-.91.18-.34.4-.67.6-1 .66-1.12 1.33-2.24 2.01-3.35.36-.59.88-.6 1.23-.03l2.62 4.3c.23.4.15.8-.19.99-.34.19-.65.06-.9-.33l-.13-.21-1.08-1.78a.65.65 0 0 0-.28-.28v7.23c-.02.48-.26.78-.63.78s-.65-.3-.66-.8v-7.2l-.08-.02ZM17.6 28.97l-1.27 2.09-.2.32c-.22.29-.55.36-.84.18a.62.62 0 0 1-.22-.84c.09-.18.2-.36.31-.54l2.32-3.84c.38-.63.9-.63 1.28 0l2.54 4.2c.26.44.22.8-.12 1.02-.35.21-.7.09-.96-.36L19 28.84l-.02.54v6.84c-.02.47-.26.77-.64.77-.37 0-.65-.3-.66-.8V29l-.1-.02ZM25.76 10.1l-1.12 1.86-.28.46c-.25.37-.6.46-.92.26-.3-.19-.37-.56-.16-.92.25-.44.53-.88.79-1.32l1.78-2.95c.4-.66.9-.67 1.3-.02l2.54 4.2c.26.43.2.82-.13 1.02-.34.2-.7.06-.96-.37-.45-.75-.9-1.49-1.43-2.22l-.02.43v6.79c-.01.5-.26.8-.65.8-.4-.01-.64-.31-.64-.82v-7.18l-.1-.03ZM17.6 10.1c-.45.75-.9 1.5-1.37 2.24a1 1 0 0 1-.57.42.65.65 0 0 1-.54-.26.77.77 0 0 1-.04-.66c.89-1.52 1.8-3.03 2.72-4.53.3-.49.83-.42 1.16.13l2.57 4.24.06.1c.18.36.1.7-.18.9-.3.19-.68.1-.9-.23-.42-.67-.82-1.35-1.23-2.03a.8.8 0 0 0-.3-.3V17.39c-.02.45-.27.73-.64.73-.36 0-.63-.28-.65-.72v-7.28l-.1-.02ZM35.31 10.11v7.02c0 .67-.2.98-.64.98-.43 0-.65-.32-.65-.97V10l-.25.35c-.4.68-.8 1.36-1.22 2.03-.25.4-.62.5-.95.3-.3-.2-.37-.57-.13-.96l2.6-4.31c.34-.56.86-.56 1.2 0 .88 1.43 1.75 2.87 2.61 4.3.24.4.17.76-.14.96-.33.21-.7.1-.94-.3l-1.38-2.28-.11.02Z" fill="#F6F6F6"/></svg>