<svg width="53" height="44" fill="none" xmlns="http://www.w3.org/2000/svg"><path d="M8.74 42.44a2.65 2.65 0 01-1.88-.8 2.63 2.63 0 01-.7-2.5c1.17-4.84 3.15-13.53 3.15-17.16 0-3.63-1.97-12.28-3.13-17.12A2.66 2.66 0 019.4 1.64c4.83 1.22 13.5 3.28 17.12 3.28 3.62 0 12.24-2.05 17.06-3.23a2.63 2.63 0 012.55.7 2.64 2.64 0 01.7 2.53C45.56 9.76 43.48 18.37 43.48 22c0 3.61 2.07 12.27 3.35 17.12a2.66 2.66 0 01-3.19 3.22c-4.83-1.14-13.5-3.05-17.11-3.05-3.62 0-12.33 1.92-17.19 3.07-.2.05-.4.08-.61.1zm0-39.47a1.24 1.24 0 00-1.2 1.53c1.18 4.9 3.16 13.7 3.16 17.45S8.73 34.6 7.55 39.49a1.22 1.22 0 00.86 1.48c.2.06.41.06.62.01 4.91-1.16 13.7-3.1 17.5-3.1 3.82 0 12.59 1.94 17.42 3.09a1.23 1.23 0 001.5-1.53c-1.26-4.9-3.38-13.7-3.38-17.48 0-3.78 2.12-12.52 3.37-17.4a1.2 1.2 0 00-.32-1.17 1.22 1.22 0 00-1.17-.34c-4.89 1.24-13.64 3.3-17.4 3.3-3.78 0-12.57-2.07-17.48-3.31C8.97 3 8.87 3 8.76 3l-.02-.03z" fill="#fff"/><path d="M18.18 29.72l-4.83 4.76-.08-2.46a.56.56 0 00-.96-.36.56.56 0 00-.15.4l.1 3.74.01.05a.46.46 0 00.02.1l.02.05.03.05a.41.41 0 00.06.09l.03.03c.01 0 0 0 0 0l.02.02c.1.1.24.16.38.16l3.74.11a.56.56 0 00.03-1.11l-2.47-.08 4.84-4.76a.56.56 0 000-.8.56.56 0 00-.79 0zm15.24.72l4.76 4.84-2.45.07a.56.56 0 00-.18 1.08c.07.02.14.04.21.03l3.74-.1.05-.01h.04l.06-.02.05-.02c.02 0 .03-.02.05-.03a.42.42 0 00.12-.09l.02-.02c.1-.1.16-.23.17-.38l.1-3.73a.56.56 0 00-.16-.41.56.56 0 00-.78-.02.56.56 0 00-.17.4l-.07 2.46-4.77-4.83a.56.56 0 00-.79 0 .56.56 0 000 .78zm.72-15.24l4.84-4.76.07 2.46a.56.56 0 00.58.54.56.56 0 00.54-.58l-.11-3.74v-.05a.48.48 0 00-.02-.1L40 8.92a.42.42 0 00-.02-.05.41.41 0 00-.07-.09l-.02-.03h-.01l-.01-.02a.56.56 0 00-.38-.16l-3.74-.11a.56.56 0 00-.58.54.56.56 0 00.54.57l2.48.08-4.84 4.76a.56.56 0 000 .8.56.56 0 00.78 0zm-15.24-.72l-4.76-4.84 2.46-.07a.56.56 0 00.18-1.08.56.56 0 00-.22-.03l-3.73.1-.06.01a.48.48 0 00-.1.02l-.04.02a.42.42 0 00-.05.03.42.42 0 00-.1.06l-.02.03h-.01l-.01.02c-.1.1-.17.23-.17.38l-.11 3.73a.56.56 0 00.17.42.56.56 0 00.77 0 .56.56 0 00.18-.38l.07-2.47 4.77 4.83a.56.56 0 00.78 0 .56.56 0 000-.78z" fill="#fff"/></svg>