<svg width="28" height="28" fill="none" xmlns="http://www.w3.org/2000/svg"><path d="M.5 17.52c.27-.33.5-.33.8-.01a3 3 0 004.27.16c.1-.1.15-.23.16-.36v-2.26l.01-.2c.03-.23.2-.36.42-.34.24.01.36.14.37.35v1.25c0 .3.04.6 0 .89-.09.47.17.75.57.98l.43.25V8.91c0-1.18.56-2.08 1.77-2.58 1.85-.78 4.07.46 4.12 2.28.02.8 0 1.62 0 2.44v.27h1v-.2c0-.79.02-1.58 0-2.37-.01-1.76-1.37-3.19-3.32-3.5-2.17-.35-4.37 1.14-4.53 3.1-.06.77-.03 1.54-.04 2.32v2.73c0 .24-.15.38-.38.39-.23 0-.4-.15-.4-.4v-1.35H.87a.37.37 0 01-.24-.1.3.3 0 01-.1-.22c0-.18.08-.3.27-.36.1-.02.21-.03.32-.02h4.62v-.3c.01-.9-.03-1.8.04-2.7.17-2.2 2.35-3.92 4.82-3.83 1.88.06 3.23.88 4.12 2.34l.1.17.12-.19a4.92 4.92 0 015.1-2.26 4.5 4.5 0 013.83 3.64c.04.35.06.7.05 1.06v2.05l.3.01h2.72c.1 0 .24 0 .3.04.11.1.23.22.25.35.02.16-.12.28-.32.31H17.03l-.02.26.01 5c.01.14.07.28.18.39a3 3 0 004.26-.17c.3-.33.5-.33.81.01a3.02 3.02 0 004.39.03l.1-.1c.18-.2.41-.23.6-.1.18.14.19.34.02.53a3.71 3.71 0 01-2.12 1.23 3.81 3.81 0 01-3.18-.76l-.22-.18a3.86 3.86 0 01-5.23 0 3.92 3.92 0 01-5.25 0 3.87 3.87 0 01-5.24 0 3.88 3.88 0 01-5.56-.33l-.08-.09v-.23zm14.72.65l.06.05.7-.48c.19-.12.25-.29.25-.5-.01-2.19 0-4.37 0-6.55 0-.64-.02-1.29 0-1.93.03-1.72 1.72-2.96 3.57-2.6 1.4.27 2.5 1.4 2.3 3.04-.01.18-.16.3-.37.3a.4.4 0 01-.27-.1.33.33 0 01-.1-.1.3.3 0 01-.03-.12 3.98 3.98 0 010-.47c-.02-1-.9-1.84-1.98-1.9-1.16-.06-2.2.63-2.29 1.65-.09.94-.03 1.88-.04 2.82l.03.04h4.27v-.7c0-.26.17-.43.41-.42.24 0 .38.16.38.42v.7h1v-.45c-.01-.88.05-1.77-.06-2.65-.25-2.02-2.56-3.4-4.78-2.93-1.81.39-3.05 1.79-3.05 3.47v9.41zm-2.59-6.84V8.49c-.15-1.12-1.4-1.9-2.62-1.63-1 .21-1.67.98-1.68 1.96v2.32c0 .06 0 .13.02.2l4.28-.01zm1.79 4.88H8.34v2.23c.98.16 1.95-.19 2.67-.96.26-.28.46-.26.75 0 .32.29.68.54 1.06.76.48.25 1.04.3 1.6.22V16.2zm0-4.15H8.35v1.72h6.07v-1.72zm0 2.46H8.35v.94h6.07v-.94zm4.83 7.98a3.92 3.92 0 01-5.23 0c-.26.18-.51.36-.78.52-.25.15-.49.12-.62-.07-.13-.2-.04-.36.19-.52.29-.2.57-.43.83-.67.25-.22.49-.23.71.01a3.01 3.01 0 004.52.02c.26-.28.49-.27.75.01a3.01 3.01 0 004.49 0c.2-.22.42-.27.6-.14.2.13.2.35 0 .58a3.87 3.87 0 01-5.26.42l-.2-.17zm-10.49 0a3.87 3.87 0 01-5.52-.3c-.16-.2-.15-.4.02-.53.18-.13.43-.1.6.09.65.7 1.46 1.09 2.5 1.02.8-.05 1.45-.39 1.97-.93.34-.35.51-.36.85 0a2.95 2.95 0 002.23.95c.23.03.38.18.37.36-.01.2-.18.33-.43.33-.85 0-1.6-.26-2.25-.73l-.34-.27z" fill="#FF3F4A"/></svg>