<svg width="28" height="28" fill="none" xmlns="http://www.w3.org/2000/svg"><path d="M28 15.1v.27c-.26.44-.73.19-1.07.29v.84h.53c.24-.01.42.07.53.3v.26c-.27.42-.72.19-1.07.29v.92h.47c.24-.02.46.04.6.26v2.08c-.12.23-.31.3-.57.28H25.6v4.19h1.86c.24-.01.43.06.53.29v.27a.65.65 0 01-.58.26h-1.94a1.37 1.37 0 01-1.07-.44c-.31-.33-.64-.65-.96-.96-.56-.54-1.3-.54-1.86 0l-.92.94a1.38 1.38 0 01-1.1.45h-1.93c-.35 0-.66-.08-.93-.32s-.64-.25-.9 0c-.39.38-.93.4-1.4-.07-.27-.28-.54-.56-.83-.83-.56-.56-1.3-.56-1.87 0-.31.3-.63.6-.93.92-.31.34-.7.47-1.15.47H.41c-.24-.03-.4-.2-.4-.41 0-.22.17-.4.43-.4h2v-4.36H.5c-.35 0-.5-.15-.5-.5v-1.62c0-.36.15-.5.52-.5h.55v-.97H.43c-.27-.01-.44-.19-.43-.43 0-.22.18-.38.45-.38h.62v-.87H.4a.39.39 0 01-.38-.4.38.38 0 01.31-.4c.08-.02.16-.03.24-.02h3.67V7.82l-.6.32-.61.32c-.28.13-.47.08-.62-.2l-.7-1.34c-.15-.3-.1-.49.2-.64L4.34 5c.25-.12.48-.06.59.15.1.2.04.43-.2.57l-.9.46-1.25.66.38.73.27-.14L13.63 2a.7.7 0 01.74 0L22 6l3.02 1.57.37-.72a6 6 0 01-.2-.12L14.22.98a.43.43 0 00-.44 0l-6.9 3.63c-.09.05-.18.12-.26.1-.14-.02-.34-.05-.42-.15-.08-.1-.07-.3-.02-.44.03-.1.18-.17.3-.23 2.26-1.2 4.54-2.38 6.8-3.57.2-.1.38-.22.56-.32h.33c.11.07.22.15.34.21L26 6.23c.4.2.45.38.25.77l-.57 1.09c-.26.5-.4.54-.9.28l-1.04-.54v6.99h3.71c.26 0 .43.06.55.28zM5.16 20.9v4.31c.03.02.06.03.1.03l4.5-.01a.66.66 0 00.38-.18c.34-.31.66-.65.99-.98.38-.38.9-.6 1.44-.62.72-.03 1.27.3 1.74.8.26.28.54.55.8.81.83-.62 1.34-.63 2.2-.06.09.05.2.07.3.07h1.97a.84.84 0 00.5-.22c.3-.26.56-.57.84-.85.34-.33.72-.6 1.2-.68.25-.04.51-.03.79-.04V20.9h-1.27a.37.37 0 01-.38-.39c-.02-.22.11-.37.34-.42.09-.01.18-.02.27 0h5.29v-.97H.86v.96h18.6c.25.02.42.18.41.4 0 .23-.16.4-.42.4h-.27l-14.02.01zM8.22 5.74l.01.06h1.22c.31 0 .5.17.49.43-.01.27-.18.4-.5.4-.55 0-1.12.03-1.69-.02a3.5 3.5 0 00-2.27.56c-.4.26-.44.27-.33.79h10.48c.21.04.35.18.33.37-.01.15-.14.3-.26.4-.08.06-.24.04-.37.04H5.13v6.01H7.2v-4.04c0-.5.1-.62.6-.62h4.98c.5 0 .61.11.61.62v4.03h1.63v-4.06c0-.46.12-.57.58-.57h4.95c.48 0 .6.1.6.6v4.05h1.75v-6h-4.6c-.12 0-.28.01-.35-.05-.12-.1-.24-.25-.26-.4-.02-.2.13-.33.33-.36.1-.01.18-.02.27-.01h4.6c.08-.57.08-.56-.38-.8a7.99 7.99 0 00-.7-.37c-.21-.1-.44-.15-.67-.17h-8.77l-.3-.01a.37.37 0 01-.35-.36c-.02-.22.08-.37.3-.43.11-.02.23-.03.35-.03h7.15l.28-.01c-.75-.45-1.5-.84-2.27-1.23a1.15 1.15 0 00-.49-.12l-5.76-.01c-.36 0-.72.08-1.04.26-.68.37-1.36.71-2.03 1.06zM8.04 11v3.8h4.51V11h-4.5zm7.81 0v3.8h4.44V11h-4.44zm7.05 6.35h-9.5v.91h9.5v-.9zm-19.59 7.9c.25 0 .48-.01.72.01.23.02.29-.06.29-.28V21.2l-.02-.27h-1v4.32zm9.24-6.99v-.9h-4.5v.9h4.5zm.01-2.6H8.04v.83h4.52v-.82zm7.75 0h-4.45v.83h4.45v-.82zm4.44 8.99V20.9h-1.01v2.68c0 .05.02.09.05.12l.96.93zm-20.48-7.3H1.94v.91h2.33v-.9zm19.5 0v.92h2.3v-.93h-2.3zM4.26 16.5v-.83h-2.3v.83h2.3zm19.5-.01h2.31v-.83h-2.31v.83zM5.12 18.25H7.2v-.9H5.12v.9zm2.07-1.76v-.83H5.12v.83H7.2zm13.97-.01h1.75v-.84h-1.75v.84zM12.35 3.6h3.33l-1.57-.82a.23.23 0 00-.2 0c-.5.25-1 .52-1.56.82zm1.06 12.05v.86l1.47-.01a.19.19 0 00.14-.12v-.73h-1.6zM28 27.72c-.13.22-.32.28-.58.28H.6l-.22-.01c-.22-.05-.35-.19-.35-.42.01-.22.14-.35.35-.39H27.4c.26 0 .47.03.6.27v.27z" fill="#FF3F4A"/><path d="M22.82 25.23a.39.39 0 01-.35.42h-.02a.39.39 0 01-.4-.38v-.04a.39.39 0 01.36-.4h.03a.37.37 0 01.39.36l-.01.04zM12.8 26.34a.38.38 0 01-.39-.38v-.02c0-.25.16-.42.4-.41a.37.37 0 01.38.4.4.4 0 01-.37.41h-.02zm11-.61a.38.38 0 01.38.37v.04a.38.38 0 01-.35.4h-.06c-.23-.01-.37-.18-.37-.42a.36.36 0 01.35-.39h.04z" fill="#FF3F4A"/></svg>