<svg width="53" height="44" viewBox="0 0 53 44" fill="none" xmlns="http://www.w3.org/2000/svg"><path d="M5.15 32.54c.26-.26.57-.34.94-.34 1.7.02 3.39 0 5.08.02a.96.96 0 0 0 .76-.32c1.08-1.09 2.15-2.18 3.27-3.22a6.4 6.4 0 0 1 5.31-1.63c2.51.26 5.03.5 7.57.32.89-.07 1.74.05 2.48.62a2.98 2.98 0 0 1 1.06 3.24l-.12.39.08.1c.42-.3.9-.56 1.27-.92 2.23-2.2 4.4-4.45 6.63-6.65.78-.77 1.6-1.5 2.47-2.18.74-.6 1.65-.94 2.6-1a3.12 3.12 0 0 1 3.3 3.05 3.25 3.25 0 0 1-.95 2.5c-4.08 4.32-8.15 8.64-12.21 12.98a6.72 6.72 0 0 1-5.18 2.23H6.04c-.36 0-.64-.09-.9-.33l.01-8.86Zm1.18 8.02H29.46c1.75 0 3.19-.6 4.4-1.9 4.07-4.36 8.18-8.7 12.27-13.04.65-.7.74-1.67.22-2.55-.45-.78-1.25-1.1-2.19-.86a6.57 6.57 0 0 0-2.99 1.9c-2.32 2.32-4.66 4.63-6.93 7a6.89 6.89 0 0 1-5.03 2.24c-3.15.07-6.3.04-9.46.05-.08 0-.19.01-.24-.03-.16-.13-.38-.26-.4-.42a.74.74 0 0 1 .2-.58c.13-.12.38-.15.58-.15h4.54c1.47 0 2.95 0 4.42-.02 1.11-.02 1.93-1.14 1.67-2.22-.24-.99-1.05-1.54-2.21-1.45-2.4.19-4.78-.05-7.16-.22-.86-.07-1.73-.16-2.57-.07-1.27.13-2.24.92-3.13 1.79-1.01.98-2.01 2-3 3.01a1.13 1.13 0 0 1-.89.37H6.77c-.14 0-.29 0-.44.02v7.13ZM28.28 7.57l1.12-1.43c.32-.39.68-.42.98-.04a37.97 37.97 0 0 1 4.5 6.56 5.4 5.4 0 0 1-.16 5.64 5.66 5.66 0 0 1-9.75-.24c-.14-.24-.28-.34-.57-.33a5.6 5.6 0 0 1-5.7-5.93c.04-.85.4-1.7.77-2.48.97-2.07 2.38-3.86 3.76-5.65l.54-.69c.38-.48.76-.5 1.12-.01 1.05 1.4 2.09 2.81 3.12 4.22.09.1.16.22.27.38Zm1.64-.19-.42.52c-1.3 1.71-2.62 3.42-3.52 5.4a5.09 5.09 0 0 0-.55 1.86 4.48 4.48 0 0 0 5.57 4.5c2.57-.64 4.07-3.48 3.14-5.74-1.01-2.42-2.63-4.44-4.22-6.54Zm-5.57 9.16a3.12 3.12 0 0 1-.06-.43c0-.54-.06-1.1.03-1.62.22-1.23.83-2.3 1.47-3.34.54-.87 1.13-1.71 1.73-2.64l-3.15-4.4c-1.54 1.98-3 3.87-4.03 6.05-.4.86-.62 1.73-.44 2.7a4.57 4.57 0 0 0 4.45 3.68ZM15.26 6.91c-.02.35-.23.51-.58.57-.43.07-.89.1-1.29.27a3.37 3.37 0 0 0-2.14 3.02c-.04.5-.25.76-.6.74-.36-.01-.56-.28-.58-.78A3.43 3.43 0 0 0 7 7.5a5.08 5.08 0 0 1-.42-.05c-.32-.05-.5-.25-.5-.57 0-.32.2-.52.5-.58.28-.05.58-.05.86-.11a3.4 3.4 0 0 0 2.64-3.19c.02-.45.23-.72.57-.74.26-.02.6.26.63.69.14 1.96 1.36 3.15 3.33 3.33.42.03.66.25.66.62Zm-2.99-.02-1.6-1.6-1.61 1.6 1.6 1.6 1.61-1.6ZM19.45 21.54c0 .38-.26.6-.7.62-1.46.1-2.49.82-3.06 2.16-.16.39-.19.83-.26 1.26-.07.42-.26.61-.6.6-.35-.01-.58-.25-.58-.65a3.44 3.44 0 0 0-3.39-3.37.6.6 0 0 1-.62-.6c0-.33.24-.53.64-.57 1.8-.17 3-1.2 3.32-2.87.03-.16.04-.33.05-.5.03-.42.24-.66.6-.66.4.01.55.25.58.62a3.36 3.36 0 0 0 2.1 3.1c.4.19.87.24 1.32.3.37.05.55.23.6.56Zm-6.2.03 1.6 1.6 1.6-1.6-1.6-1.62-1.6 1.62ZM46.92 10.46c-.03.27-.2.46-.55.51-.38.04-.76.1-1.13.21a3.38 3.38 0 0 0-2.32 3.11c-.02.46-.24.71-.6.71s-.56-.22-.58-.67a3.49 3.49 0 0 0-3.38-3.36c-.44-.02-.66-.26-.63-.62.03-.39.3-.54.65-.56a3.4 3.4 0 0 0 3.34-3.16l.03-.3c.02-.34.22-.54.56-.55.36-.01.55.21.6.56.06.36.08.75.19 1.1a3.4 3.4 0 0 0 3.08 2.35c.48.02.74.24.74.67Zm-4.6-1.68-1.6 1.6 1.6 1.62 1.61-1.61-1.6-1.6Z" fill="#F6F6F6"/><path d="M29.75 18.9a3.64 3.64 0 0 1-3.41-3.5c0-.44.22-.72.57-.73.36-.01.57.25.6.7a2.45 2.45 0 0 0 2.31 2.35c.45.04.7.27.67.62-.03.35-.31.56-.74.55Z" fill="#F6F6F6"/></svg>