<svg width="53" height="44" fill="none" xmlns="http://www.w3.org/2000/svg"><path d="M5.12 19c.28-.27.55-.54.84-.8L26.06.86l.24-.2h.5l10.56 9.1c.38.33.45.72.2 1.02-.25.3-.65.3-1.06-.06l-9.65-8.33-.3-.25-3.17 2.74-16.7 14.4a.74.74 0 00-.3.65c.02.85 0 1.71 0 2.64.16-.1.26-.16.34-.24l19.02-16.4.19-.17c.51-.43.72-.44 1.23 0l3.32 2.86 15.88 13.7.35.25c0-1.01.01-1.95-.01-2.9 0-.12-.15-.27-.27-.38l-7.87-6.8c-.14-.13-.33-.3-.33-.45 0-.25.09-.5.25-.68.23-.23.55-.16.8.05l2.06 1.77c2.07 1.8 4.15 3.6 6.23 5.38a1.1 1.1 0 01.43.93c-.02 1.45-.02 2.89 0 4.34 0 .32-.04.6-.37.77-.35.17-.6 0-.86-.22l-9.05-7.81L26.87 7.2l-.32-.26-2.4 2.07L6.36 24.35c-.53.47-.82.44-1.24-.1V19z" fill="#fff"/><path d="M41.11 42.05V22.02c0-.68.2-.97.63-.98.44 0 .64.3.64.97v20.4c0 .8-.15.94-.94.94H11.63c-.75 0-.91-.16-.91-.9V21.93l.01-.37a.58.58 0 01.62-.5.58.58 0 01.62.5c.02.16.03.33.02.5v19.99H41.1zM17.73 4.92h-5.48v6.98c0 .48-.18.72-.54.77-.41.05-.72-.2-.73-.65V4.44c0-.6.2-.81.8-.81h6.48c.56 0 .78.22.79.79v1.41c-.01.5-.24.76-.65.76-.4 0-.63-.28-.63-.76v-.79a.92.92 0 00-.04-.12zM9.5 34.43v-.05a.37.37 0 00-.01-.11.43.43 0 00-.04-.1.44.44 0 00-.07-.1l-.02-.03-2.56-2.72a.56.56 0 00-.82.76l1.69 1.8-6.8.04a.56.56 0 00-.55.56.56.56 0 00.56.55l6.79-.05-1.7 1.8a.56.56 0 10.81.77l2.57-2.72c.1-.1.15-.24.15-.39v-.01z" fill="#fff"/><path d="M39.4 26.84v-.05a.37.37 0 00-.03-.1l-.01-.06a.52.52 0 00-.03-.05.58.58 0 00-.02-.05.53.53 0 00-.04-.05.32.32 0 00-.02-.03l-2.57-2.72a.56.56 0 00-.8-.02.56.56 0 00-.02.79l1.7 1.78-6.8.05a.56.56 0 00-.56.56.56.56 0 00.56.56l6.8-.05-1.7 1.8a.56.56 0 00.63.9.56.56 0 00.18-.14l2.56-2.72c.1-.1.16-.24.16-.38v-.02zm12.73 7.08l-6.79-.05 1.7-1.8a.56.56 0 00-.43-.93.56.56 0 00-.4.18l-2.56 2.71a.43.43 0 00-.03.05.4.4 0 00-.03.03c0 .02-.02.04-.03.05l-.02.05-.02.05a.38.38 0 00-.02.11v.06c0 .01 0 0 0 0 0 .15.06.3.16.4l2.56 2.72a.56.56 0 00.81-.77l-1.7-1.8 6.8.05a.56.56 0 00.55-.55.56.56 0 00-.55-.56zm-29.88-7.58l-6.8-.05 1.7-1.8a.56.56 0 00-.64-.88.56.56 0 00-.18.13l-2.56 2.71-.04.05a.47.47 0 00-.05.09l-.02.04-.02.05a.43.43 0 00-.02.11v.07c0 .14.05.28.15.39l2.56 2.71a.56.56 0 00.41.18.56.56 0 00.56-.54.56.56 0 00-.15-.4l-1.7-1.8 6.8.05a.56.56 0 00.55-.56.56.56 0 00-.55-.55z" fill="#fff"/></svg>