<svg width="28" height="28" viewBox="0 0 28 28" fill="none" xmlns="http://www.w3.org/2000/svg"><path d="M28 26.25c-.16.2-.37.25-.62.25h-5.6c-.1 0-.2 0-.28-.02a.38.38 0 0 1-.25-.13.37.37 0 0 1-.09-.26c0-.22.13-.35.35-.4h2.46v-3.04h-13.1v3.03h8.78l.3.01c.23.03.37.17.38.4 0 .22-.13.36-.36.4l-.25.01H7.44c-.5 0-.61-.12-.61-.6v-5.44c0-1.03.45-1.67 1.44-2.06.07-.03.14-.16.14-.25.03-.54 0-1.09.05-1.62a2.49 2.49 0 0 1 2.42-2.15c.5-.02 1-.01 1.5 0 .3 0 .48.16.48.4 0 .26-.18.4-.49.4h-1.36c-.98.01-1.72.7-1.76 1.67-.02.45-.02.9 0 1.34a.3.3 0 0 0 .17.22c.91.33 1.4 1 1.42 1.96v1.43h13.14v-.7c0-.4-.03-.8.04-1.18.17-.83.72-1.33 1.54-1.56 0-.57.05-1.14-.01-1.7-.1-.88-.82-1.47-1.72-1.47h-9.61c-.13 0-.3-.04-.4-.13a.46.46 0 0 1-.1-.38c.03-.11.18-.2.29-.29.05-.03.14-.01.21-.01h9.58c1.25 0 2.3.79 2.53 1.96.1.48.05.99.07 1.48v.54c.65.18 1.13.54 1.4 1.13.08.16.13.33.2.5v6.26Zm-17.98-.58v-5.3c0-.43-.15-.78-.51-1.02-.38-.26-.8-.29-1.21-.07-.44.22-.65.6-.65 1.08v5.12l.02.19h2.35Zm17.12 0 .03-.07v-5.36c0-.51-.4-.95-.9-1.06a1.17 1.17 0 0 0-1.46 1.15v5.2l.02.14h2.31ZM11.92 2.4c.2.19.39.38.6.56.08.06.18.1.29.1h9.22c.1 0 .2-.04.28-.1.21-.18.4-.38.64-.6a2.37 2.37 0 0 0-.25-.04h-1.1c-.28-.01-.44-.18-.44-.41 0-.24.16-.4.43-.4h2.35c.27 0 .4.16.43.43v9.25c0 .56-.1.65-.67.65H11.1c-.54 0-.64-.1-.64-.63V2.15c0-.55.1-.65.65-.65h8.59c.43 0 .64.14.63.42 0 .28-.2.4-.63.4h-7.75l-.03.08Zm5.06 5.7.23-.23 1.92-2.1c.5-.54 1.25-.54 1.76 0l.48.51.58.62v-3H12.9v4.04l1.08-1.19c.56-.6 1.23-.6 1.79.02l1.22 1.34Zm4.99 1.37V8.24a.31.31 0 0 0-.08-.2l-1.6-1.72c-.18-.2-.36-.2-.55 0l-.5.53-1.7 1.87c.18.2.36.37.5.56a.5.5 0 0 0 .45.2c.7-.02 1.4-.01 2.08-.01h1.4Zm1 1.55c-.24-.24-.43-.43-.64-.6a.58.58 0 0 0-.33-.14h-9.18c-.08 0-.16.01-.23.05-.24.21-.46.43-.73.69h11.11Zm-5.9-1.57a8016.28 8016.28 0 0 0-1.97-2.19c-.17-.19-.32-.19-.5 0-.54.6-1.09 1.19-1.62 1.8-.08.09-.1.24-.15.39h4.25Zm-5.78 1c.24-.24.44-.41.6-.6.09-.1.14-.21.14-.34V3.82c0-.07 0-.18-.04-.22-.2-.23-.43-.44-.7-.7v7.55Zm12.24-7.47-.06-.05c-.18.2-.37.37-.54.57-.08.1-.13.2-.14.33v5.69c0 .08 0 .18.05.23.2.23.43.44.7.7V2.98Z" fill="#FF3F4A"/><path d="M5.28 10.2H4.23v14c.22.01.44.02.65.05.43.05.82.26 1.1.58.3.32.46.72.47 1.15 0 .36-.14.5-.51.51H1.7c-.42 0-.56-.16-.53-.57.07-.98.8-1.67 1.84-1.7h.36V10.18H.52c-.44 0-.59-.2-.5-.63l1.4-5.99c.07-.32.19-.42.53-.42h3.72c.33 0 .45.1.53.42l1.38 6c.1.42-.05.6-.52.61H6.2a.42.42 0 0 0-.1.04v4.35c.01.1 0 .2-.02.29a.37.37 0 0 1-.14.24.38.38 0 0 1-.27.07c-.1 0-.2-.03-.26-.1a.37.37 0 0 1-.12-.26V10.2ZM.92 9.35h5.77L5.45 3.97H2.17L.92 9.35Zm4.6 16.32c-.12-.35-.37-.6-.72-.6-.66-.04-1.32-.04-1.99 0-.35 0-.6.24-.75.6h3.47ZM16.97 6.6a1.16 1.16 0 0 1-1.06-.72 1.13 1.13 0 0 1 .01-.87A1.13 1.13 0 0 1 17 4.32a1.17 1.17 0 0 1 1.07.71 1.13 1.13 0 0 1-.64 1.5c-.14.05-.3.08-.45.08Zm0-.8c.09 0 .18-.04.24-.1.07-.06.11-.15.11-.24a.32.32 0 0 0-.22-.3.33.33 0 0 0-.13-.02c-.21.02-.32.14-.31.34a.3.3 0 0 0 .19.3l.12.02Z" fill="#FF3F4A"/></svg>