<svg width="28" height="28" viewBox="0 0 28 28" fill="none" xmlns="http://www.w3.org/2000/svg"><path d="M7.33 26.5c-.56-.33-.7-.71-.5-1.44.11-.43.35-.8.67-1.08.33-.27.72-.41 1.13-.4h.32v-2.44c0-.26.13-.43.33-.43s.33.16.33.42V23.58h5.65c.09 0 .17.04.23.1.05.08.09.17.09.26a.4.4 0 0 1-.1.25.32.32 0 0 1-.22.11H8.7c-.69 0-1.17.44-1.28 1.17-.04.24 0 .3.22.3h12.7c.2 0 .26-.08.23-.29-.1-.7-.6-1.18-1.25-1.18h-2.46c-.28 0-.42-.13-.41-.37 0-.24.14-.36.4-.36h1.51v-9.65H9.61v5.39c0 .34-.25.53-.5.38-.14-.1-.16-.25-.16-.42v-5.35a1.3 1.3 0 0 1-1.12-.77c-.23-.47-.22-.96.06-1.44a2.82 2.82 0 0 1-1.46-2.38A2.9 2.9 0 0 1 7.6 6.75a2.38 2.38 0 0 1-.94-1.49c-.01-.06-.1-.12-.15-.13C5.5 4.83 5 4.1 5 2.95v-.51c0-.6.3-.94.84-.94h16.3c.56 0 .86.33.86.95 0 .35.02.7-.04 1.04-.16.87-.66 1.41-1.43 1.62-.12.04-.18.08-.21.23-.13.6-.44 1.05-.93 1.4.8.64 1.24 1.48 1.18 2.58a2.8 2.8 0 0 1-1.45 2.38c.56 1.05-.11 2.15-1.06 2.22v9.65h.36c.48.01.94.23 1.28.6.34.38.53.89.55 1.42 0 .47-.23.73-.58.91H7.33ZM20.66 5.16h-9.35a.3.3 0 0 1-.12-.03.32.32 0 0 1-.1-.08.39.39 0 0 1-.08-.26c0-.24.14-.36.4-.36h9.68c.67 0 1.16-.5 1.24-1.22.01-.2.02-.41 0-.61 0-.36 0-.36-.32-.36H5.86c-.14-.01-.2.06-.2.21v.69c.01.3.12.6.3.83.18.23.43.38.7.43.12.03.24.04.35.03h2.77c.21 0 .36.17.35.38 0 .2-.14.34-.34.35H7.33l.1.31c.29.6.74.87 1.33.87h10.62c.3-.02.59-.14.82-.35.23-.21.39-.5.46-.83Zm-9.19 3.62h2.31c.26 0 .4.13.4.36 0 .24-.14.37-.4.37H11.46c-.09.67-.36 1.21-.77 1.7h6.64a3.11 3.11 0 0 1-.8-1.7h-1.07c-.25 0-.4-.14-.4-.37 0-.23.15-.36.4-.36h1.07l.1-.45c.07-.24.24-.35.43-.29.18.07.25.25.22.5a4.4 4.4 0 0 0-.08.72c.02 1.05.87 2.05 2 1.94 1.11-.1 1.9-1.26 1.68-2.43-.19-1.04-.94-1.7-1.94-1.7H9.07c-.14 0-.28.01-.42.04-.86.15-1.53.97-1.55 1.92-.02 1.04.57 1.92 1.44 2.13.43.1.87.04 1.26-.18a2 2 0 0 0 .86-1.03c.17-.45.2-.94.08-1.4-.06-.26.02-.45.22-.51.19-.06.34.05.41.3l.1.44Zm2.55 3.17h-5.2c-.35.02-.55.33-.44.7.09.35.33.52.71.52h9.93a.7.7 0 0 0 .64-.7c0-.34-.23-.52-.64-.52h-5Z" fill="#FF3F4A"/><path d="M10.37 18.72V15.8c0-.46.16-.83.54-1.04.34-.2.69-.18 1.02.07.13.1.25.24.32.4.08.16.12.35.11.53v5.95c0 .67-.44 1.13-1.01 1.13-.55 0-.98-.49-.98-1.14v-2.98Zm1.31 0V15.8c0-.26-.13-.44-.32-.43-.2 0-.3.17-.31.42v5.82c0 .1-.01.24.04.3.1.08.23.17.35.17.17-.02.25-.18.24-.38v-2.97ZM13 18.72V15.8c0-.46.17-.83.54-1.04.35-.2.7-.18 1.02.07.3.22.43.54.43.93v5.95c0 .67-.44 1.13-1 1.13S13 22.35 13 21.7v-2.98Zm.68.02V21.77a.35.35 0 0 0 .1.24c.03.03.06.06.1.07.04.02.08.02.12.02.18 0 .3-.12.31-.33v-6.11a.34.34 0 0 0-.1-.2.28.28 0 0 0-.21-.08.28.28 0 0 0-.2.07.34.34 0 0 0-.1.21c-.02.08-.02.17-.02.25v2.83ZM15.63 18.74V15.8c0-.7.43-1.18 1.02-1.18.57 0 .98.5.98 1.19v5.85c0 .68-.42 1.16-.98 1.17-.59 0-1.01-.48-1.01-1.18v-2.92Zm1.32-.02v-2.9c0-.28-.13-.46-.33-.45-.2 0-.3.18-.3.45v5.78c0 .1-.01.25.04.3.08.1.22.2.33.18.17 0 .26-.17.26-.38v-2.98ZM20.27 9.14c0 .35-.14.69-.36.93-.23.25-.53.4-.85.4-.31 0-.6-.15-.83-.4a1.43 1.43 0 0 1-.35-.92c0-.72.55-1.34 1.2-1.34.31.01.61.15.83.4.22.25.35.58.36.93Zm-1.2-.57a.46.46 0 0 0-.2.04.5.5 0 0 0-.17.13.6.6 0 0 0-.14.4.6.6 0 0 0 .14.4.46.46 0 0 0 .36.16c.08.02.14 0 .2-.03a.5.5 0 0 0 .18-.12.61.61 0 0 0 .14-.42.6.6 0 0 0-.15-.4.5.5 0 0 0-.17-.12.45.45 0 0 0-.2-.04ZM10.14 9.15c0 .35-.13.68-.35.93-.22.25-.52.39-.84.39a1.1 1.1 0 0 1-.46-.1 1.2 1.2 0 0 1-.38-.3c-.11-.12-.2-.27-.26-.43a1.46 1.46 0 0 1 .27-1.44c.23-.25.53-.38.84-.39.32.01.61.15.83.4.22.25.35.59.35.94Zm-1.2.56a.5.5 0 0 0 .37-.16.6.6 0 0 0 .02-.8.5.5 0 0 0-.74-.02.63.63 0 0 0-.16.41c0 .15.05.3.15.4.1.11.23.17.36.17Z" fill="#FF3F4A"/></svg>