<svg width="53" height="44" fill="none" xmlns="http://www.w3.org/2000/svg"><path d="M5.15 36.49c.58-2.07 1.18-4.14 1.75-6.21 2.6-9.35 5.17-18.7 7.75-28.06C15 1 16 .42 17.22.75l7.56 2.1c1.27.36 1.8 1.38 1.44 2.7l-3.6 13.03-.06.3c.54-.49 1.01-.9 1.48-1.34l8.84-8.04c.96-.88 2.09-.83 2.97.14l5.24 5.8c.9 1 .82 2.15-.19 3.06a13545.07 13545.07 0 00-14.02 12.77h18.67c.3-.01.6.02.9.09a1.88 1.88 0 011.4 1.85v8.17a1.95 1.95 0 01-1.92 1.96H11.15a6 6 0 01-5.8-4.43l-.2-.76V36.5zM21.4 18.14l1.04-3.79-1.98-.56-2.45-.68c-.38-.11-.58-.43-.5-.75.08-.36.38-.55.79-.49l.24.07 4.25 1.18 1.04-3.8-9.14-2.54-1.04 3.79 1.11.3 1.08.32c.61.17.83.44.71.87-.11.4-.46.52-1.07.35l-2.18-.6-1.04 3.78 9.14 2.55zM31 32.57h-3.87v9.48h3.88v-.86c0-.49.24-.76.63-.77.4 0 .64.26.65.76v.88h3.88v-9.5H32.3v5.75c0 .57-.22.85-.63.85-.42 0-.65-.28-.65-.83v-2.01L31 32.57zm-15.57-.02h-4.16a4.73 4.73 0 00-4.83 4.2c-.37 2.5 1.58 5.06 4.07 5.25 1.59.12 3.19.06 4.79.08a.5.5 0 00.14-.04v-9.5zm1.32 9.5h3.87v-9.48h-3.87v9.49zm5.18-9.49v9.5h3.86v-9.5h-3.86zm15.58 0v9.5h3.85v-9.5h-3.85zM23.76 19.52l6.37 7.06 2.9-2.64-6.37-7.06-2.9 2.64zm-.94.85l-2.9 2.65 6.37 7.06 2.9-2.65-6.37-7.06zm7.69-6.99l-2.9 2.64 6.37 7.06 2.9-2.64-6.37-7.06zm12.18 19.17v9.52c1.1 0 2.18.02 3.26 0 .43-.02.64-.34.64-.83V33.4c0-.53-.25-.85-.7-.86h-3.2zM31.45 12.52l6.37 7.07c.82-.76 1.64-1.49 2.43-2.24.29-.27.25-.64-.05-.97l-5.33-5.92c-.34-.37-.7-.4-1.06-.07-.78.69-1.55 1.4-2.36 2.13zm-16.4-6.97L24.2 8.1l.82-3c.15-.54-.03-.86-.56-1.01l-1.43-.4-6.04-1.68c-.58-.17-.93-.03-1.07.44-.3 1.03-.57 2.04-.86 3.1zM10.9 20.56l.09.08c2.38.67 4.77 1.33 7.16 1.98.13.04.34-.05.46-.15.54-.46 1.02-.99 1.59-1.41.56-.43.74-1.03.85-1.7l-9.11-2.54-1.04 3.74zm8.07 3.31l-2.87 2.62.1.16c1.34 1.49 2.68 2.98 4.04 4.46.1.11.31.16.48.16 1.3.01 2.6.02 3.91 0 .24 0 .48-.16.78-.27l-6.44-7.13zM9.5 25.63l4.15 1.15a.5.5 0 00.38-.14l3-2.72.19-.22-6.67-1.86c-.34 1.27-.7 2.51-1.05 3.79zm5.63 1.74l-4.26 3.88h7.76l-3.5-3.88zm-5.97-.51l-1.53 5.56 5.08-4.57-3.55-1z" fill="#F6F6F6"/><path d="M13.65 37.3a2.44 2.44 0 01-2.4 2.43 2.44 2.44 0 01-2.4-2.4 2.44 2.44 0 012.4-2.43 2.38 2.38 0 012.4 2.4zm-2.38 1.13a1.12 1.12 0 001.12-1.11 1.17 1.17 0 00-1.14-1.15 1.12 1.12 0 00-1.11 1.16 1.1 1.1 0 001.13 1.1z" fill="#F6F6F6"/></svg>