<svg width="28" height="28" viewBox="0 0 28 28" fill="none" xmlns="http://www.w3.org/2000/svg"><path d="m15.48 3.42.15 5.75c.6.13 1 .52 1.34 1 .45.63 1.32.59 1.77-.05.33-.46.7-.82 1.27-.95l-.59-5.86c-.27.12-.42.3-.54.53-.26.46-.63.77-1.17.85-.24.04-.38-.05-.42-.24-.05-.26.05-.45.3-.5.33-.07.55-.27.71-.56.67-1.14 2.13-1.2 2.85-.09.25.37.52.66 1 .7.18.02.29.18.32.38l.26 1.8a5407.05 5407.05 0 0 1 2.13 14.72l.14 1.05c.03.25-.1.44-.31.46-.17.02-.36-.14-.39-.36l-.36-2.44-.1-.7a.24.24 0 0 0-.16-.15 2.13 2.13 0 0 1-1.36-.92c-.16-.23-.4-.4-.67-.46l.59 5.84c.21.07.43.13.63.21.38.14.7.4.94.73.2.28.46.44.82.52l-.11-.77a3.46 3.46 0 0 1-.03-.23c-.01-.2.09-.34.29-.39.2-.04.35.07.4.28.1.34.16.69.23 1.03l.08.39a.4.4 0 0 1-.22.44.39.39 0 0 1-.17.04c-.73 0-1.4-.23-1.82-.84-.57-.81-2.06-.83-2.69.01-.84 1.14-2.81 1.14-3.66 0-.62-.84-2.09-.8-2.69 0a2.37 2.37 0 0 1-3.67-.01c-.6-.8-2.05-.83-2.68 0-.87 1.15-2.78 1.14-3.68 0-.33-.41-.76-.6-1.27-.64-.36-.02-.48-.15-.43-.52l.44-3.06a1280.85 1280.85 0 0 0 1.01-7.16A3817.24 3817.24 0 0 1 5.03 5.8l.38-2.75c.07-.5.24-.62.73-.51a1.66 1.66 0 0 1 1.14.83l.07.12c.44.67 1.24.66 1.64-.04a1.7 1.7 0 0 1 1.06-.9c.75-.19 1.47.12 1.87.78l.09.16c.43.67 1.23.66 1.62-.03.3-.51.72-.8 1.28-.93a1.6 1.6 0 0 1 1.74.97c.07.2-.01.34-.17.45-.17.1-.36.05-.5-.1l-.43-.49-.07.06Zm.15 6.58v.2l.07 3.31v.5c0 .18-.09.32-.28.35-.21.03-.37-.06-.44-.26a.85.85 0 0 1-.04-.27l-.06-3.47v-.27c-.31.1-.48.3-.64.53a1.88 1.88 0 0 1-2.14.77 1.82 1.82 0 0 1-1.06-.83c-.15-.24-.33-.44-.63-.5l-.4 6.6c.62.1 1.06.4 1.4.89.56.76 1.7.72 2.24-.04.11-.14.22-.31.37-.4.3-.21.64-.37 1-.57 0-.22-.03-.5-.04-.78 0-.27.13-.46.36-.47.23-.01.4.17.4.46v.67c0 .06.05.16.1.17.62.15 1.04.54 1.43 1.02.51.62 1.57.62 2.04 0 .38-.51.85-.85 1.48-1l-.67-6.64c-.32.09-.5.28-.67.52a1.89 1.89 0 0 1-3.26-.04.96.96 0 0 0-.56-.45ZM9.57 23.27c.76.15 1.05.34 1.55.9.2.2.43.37.7.46.73.22 1.38.08 1.88-.55.3-.38.7-.64 1.18-.72.23-.04.25-.13.25-.32l-.1-5.46-.02-.17c-.3.06-.57.24-.74.5-.8 1.21-2.73 1.19-3.52-.03a1.18 1.18 0 0 0-.77-.5L9.9 18.4c-.02.25-.15.39-.37.39s-.35-.14-.37-.4l-.09-1.02c-.3.06-.55.24-.72.5-.8 1.21-2.74 1.17-3.52-.04a1.11 1.11 0 0 0-.77-.5l-.85 5.9c.66.1 1.14.43 1.53.92.57.7 1.86.72 2.44.02a2.5 2.5 0 0 1 1.6-.94l.05-.79.16-2.42c.02-.28.2-.45.41-.44.22 0 .36.2.35.48l-.07 1.16-.11 2.04Zm6.28 0c.7.13 1.19.36 1.5.82.56.82 2.04.85 2.64.04.3-.4.7-.64 1.17-.79l.22-.07-.6-5.9c-.34.1-.6.26-.78.54-.8 1.22-2.72 1.18-3.5 0a1.12 1.12 0 0 0-.76-.5l.11 5.87Zm-6.59-6.66.4-6.57L9.6 10l-.51.54c-.25.23-.47.5-.75.66-.86.47-1.93.16-2.45-.67-.16-.26-.35-.48-.69-.55l-.95 6.67c.68.2.93.37 1.36.9.6.75 1.68.74 2.24-.02.35-.49.8-.8 1.41-.9Zm5.58-7.37-.11-5.84-.08-.04c-.13.16-.3.3-.4.48-.2.32-.44.59-.79.75-.8.36-1.7.06-2.14-.72-.12-.22-.24-.43-.5-.52-.1 1.98-.22 3.94-.33 5.89.61.19.9.4 1.2.85.49.78 1.44.8 1.94.02a1.92 1.92 0 0 1 1.21-.87Zm-8.71-5.9L5.28 9.2c.51.13.95.45 1.22.9.46.7 1.36.75 1.86.06a2.2 2.2 0 0 1 1.3-.96l.37-5.78-.06-.04c-.14.17-.29.32-.4.5-.22.35-.5.62-.88.76-.78.28-1.6-.03-2.02-.77-.13-.22-.26-.43-.54-.53Zm16.55 8.03a2 2 0 0 1-1.34-.96c-.1-.16-.3-.28-.44-.43 0 .7.07 1.35.14 2l.44 4.44c.02.12.06.17.17.2.52.11.98.43 1.28.87a1.11 1.11 0 0 0 .7.48l-.95-6.6Zm-.14-.83.05-.04-.84-5.8a1.7 1.7 0 0 1-1.22-.97c-.07-.13-.19-.23-.28-.34l-.07.04.59 5.74c.6.12 1.03.48 1.37.98.1.16.26.27.4.4Z" fill="#FF3F4A"/><path d="m4.4 21.26.28-2.15a.34.34 0 0 1 .37-.3.38.38 0 0 1 .37.39l-.11.94-.17 1.26c-.04.25-.21.39-.45.37-.2-.02-.32-.18-.3-.51ZM6.38 11.86l-.25 1.9-.3 2.3c-.03.14-.09.32-.2.42-.07.08-.29.1-.38.05a.48.48 0 0 1-.2-.37c.02-.36.09-.72.14-1.08l.45-3.34c.04-.26.17-.36.42-.34.22.02.33.16.32.46ZM6.06 8.66c.1-.8.23-1.67.35-2.54.02-.12.02-.23.05-.35.05-.23.22-.34.46-.3.2.04.31.23.28.44l-.4 2.9c-.04.27-.2.39-.44.36-.21-.02-.32-.17-.3-.51Z" fill="#FF3F4A"/></svg>