<svg width="28" height="28" viewBox="0 0 28 28" fill="none" xmlns="http://www.w3.org/2000/svg"><path d="M3.5 9.37c.16-.4.45-.53.87-.53h8.52c.5 0 .88.26.87.86-.03 1.1-.01 2.2-.01 3.3 0 .56-.26.82-.83.82H4.37c-.4.03-.7-.13-.87-.52V9.37Zm.62 3.8.2.01 8.61.01c.17 0 .2-.06.2-.21v-3.3c0-.17-.05-.21-.2-.21H4.37c-.09 0-.17.02-.26.03v3.67ZM14.73 24.5c-.38-.18-.5-.5-.5-.91.03-1.1.01-2.19.01-3.28 0-.5.26-.77.77-.77h8.72c.5 0 .76.26.76.76 0 1.1-.01 2.2.01 3.31 0 .42-.12.72-.5.89h-9.27Zm4.66-4.35H15.1c-.2 0-.26.06-.25.26v3.2c0 .27 0 .27.29.27h8.5c.17 0 .23-.04.23-.23V20.4c0-.2-.06-.26-.25-.25h-4.24ZM6.58 24.5c-.15-.1-.26-.22-.2-.41.08-.19.23-.2.4-.2h6.07c.28 0 .28-.01.28-.29v-3.2c0-.2-.05-.25-.25-.25H4.32c-.17 0-.2.06-.2.22v3.3c0 .16.04.23.21.22h.8c.18-.01.34.01.4.2.07.18-.04.3-.18.4H4a1 1 0 0 1-.5-.48v-3.98c.18-.38.47-.5.89-.5h8.54c.57 0 .82.25.82.82v3.24c.01.42-.1.73-.5.9H6.59ZM3.5 14.7c.17-.4.46-.53.88-.52h3.24c.42 0 .67.17.77.5.02.08.03.17.03.25v3.48c0 .47-.28.75-.75.75h-3.3c-.42.01-.72-.13-.87-.53V14.7Zm4.3 1.99v-1.66c0-.16-.03-.22-.2-.22H4.32c-.16 0-.2.05-.2.21v3.3c0 .16.04.22.2.22H7.6c.16 0 .21-.05.2-.22V16.7ZM3.5 6.58c.11-.13.25-.25.42-.15a.44.44 0 0 1 .19.3c.02.3.02.61 0 .92 0 .15.04.2.2.2h3.3c.15 0 .2-.04.2-.2V4.33c0-.16-.06-.2-.2-.2H4.31c-.16 0-.21.05-.2.2v.83c0 .17-.01.33-.2.4-.19.08-.3-.03-.42-.16V4c.18-.37.47-.5.89-.49 1.09.02 2.18 0 3.27 0 .5 0 .76.28.76.77V7.7c0 .5-.27.76-.76.76-1.09 0-2.18-.02-3.27 0-.42.01-.72-.11-.89-.5V6.59ZM19.37 8.84h4.3c.47-.01.84.28.83.81-.03 1.13-.01 2.26-.01 3.38 0 .52-.26.78-.78.79h-8.57c-.1 0-.2 0-.3-.02a.66.66 0 0 1-.6-.65V9.5c0-.39.32-.66.76-.66h4.37Zm4.5.65-.26-.01-8.54-.01c-.18 0-.21.07-.21.23v3.24c0 .19.04.25.24.25h8.63c.05-.04.14-.1.14-.14V9.49ZM14 8.47H9.65c-.52 0-.78-.26-.78-.78V4.27c0-.5.27-.76.76-.76h8.73c.5 0 .76.26.76.76V7.7c0 .5-.26.76-.76.76H14Zm0-.62h4.27c.14 0 .24 0 .24-.19V4.3c0-.14-.05-.18-.2-.18h-8.6c-.18 0-.23.06-.22.24V7.6c0 .21.06.26.26.25H14ZM18.5 18.51v-3.5c.01-.16-.04-.2-.18-.2-.34.01-.67.02-1 0a.47.47 0 0 1-.32-.2c-.05-.07 0-.22.05-.31.04-.06.15-.1.23-.1.41-.01.82-.02 1.23 0 .38.03.6.31.61.7v3.56c0 .38-.26.66-.64.7H9.67c-.41 0-.67-.17-.77-.5a.82.82 0 0 1-.03-.22v-3.5c0-.45.25-.7.68-.75h6.07c.1 0 .19 0 .28.02.15.03.23.13.24.27 0 .16-.06.27-.22.31-.08.02-.17.03-.26.03H9.74c-.2 0-.26.05-.25.25v3.23c0 .18.04.24.22.24h8.5l.3-.03ZM24.5 16.69v1.74c0 .44-.3.73-.74.73H20.3c-.44 0-.73-.3-.73-.74v-3.48c0-.46.26-.74.73-.75h3.41c.4 0 .65.16.75.5.02.07.03.15.03.23v1.77Zm-.62-.01v-1.66c0-.15-.04-.2-.2-.2h-3.32c-.15 0-.18.05-.18.19v3.34c0 .14.06.19.2.19h3.3c.16 0 .2-.07.2-.22v-1.64ZM24.5 5.98v1.77c0 .44-.29.72-.72.72H20.3c-.44 0-.72-.28-.73-.72V4.23c0-.44.28-.72.72-.72h3.48c.44 0 .72.28.72.71v1.76Zm-.63.03V4.33c0-.17-.05-.21-.2-.21h-3.28c-.15 0-.2.05-.2.2v3.34c0 .15.05.2.2.2h3.28c.16 0 .21-.05.21-.21V6Z" fill="#FF3F4A"/></svg>