<svg width="28" height="28" viewBox="0 0 28 28" fill="none" xmlns="http://www.w3.org/2000/svg"><path d="M11.92 26.49c-.19-.1-.26-.26-.26-.48v-2.3c0-.17.03-.34.2-.43a.33.33 0 0 1 .33.02c.05.03.1.07.12.13.03.05.04.1.04.17.02.27.02.57.02.85v1.3h3.23v-4.77a9.3 9.3 0 0 0-3.23 0v.88c0 .17-.04.32-.2.4-.24.12-.48-.04-.5-.32v-.77c-.95.29-1.78.72-2.48 1.37-.67.61-1.3 1.28-1.93 1.93a2.42 2.42 0 0 1-3.58.01c-.37-.4-.6-.92-.66-1.47-.08-.85.17-1.56.75-2.17.58-.6 1.15-1.18 1.7-1.79a7.22 7.22 0 0 0 1.87-4.3c.2-2.16-.38-4.1-1.8-5.73-.58-.67-1.22-1.29-1.82-1.93-1.21-1.3-.84-3.45.73-4.14a2.3 2.3 0 0 1 2.69.45c.5.48.97 1 1.45 1.5.8.84 1.77 1.47 2.84 1.85l.23.07V2.07c0-.47.1-.57.56-.57h3.6c.4 0 .5.11.5.52v4.8a6.34 6.34 0 0 0 2.48-1.37c.68-.62 1.31-1.31 1.97-1.97a2.4 2.4 0 0 1 3.04-.4c1.32.85 1.6 2.73.55 3.91-.5.56-1.04 1.06-1.54 1.62-.37.42-.7.89-1.06 1.34l-.08.12c-.14.18-.33.22-.5.1a.35.35 0 0 1-.15-.21.36.36 0 0 1 .07-.3c.29-.41.57-.84.9-1.22.55-.62 1.14-1.2 1.71-1.8a1.9 1.9 0 0 0 .42-2.13c-.56-1.18-1.96-1.41-2.9-.47-.57.58-1.13 1.2-1.73 1.76a7.34 7.34 0 0 1-4.16 2c-1.52.2-3.01.1-4.46-.47-1.08-.44-2-1.1-2.82-1.95-.5-.5-.97-1.04-1.5-1.5A1.68 1.68 0 0 0 4.23 4c-.62.66-.7 1.72-.1 2.42.46.55.97 1.05 1.47 1.56a8.3 8.3 0 0 1 2.5 5.54A8.37 8.37 0 0 1 5.7 19.9c-.48.5-.97.99-1.43 1.49-.9.96-.69 2.4.45 2.99.66.34 1.45.19 2.05-.41l1.31-1.36a7.55 7.55 0 0 1 4.02-2.3c2.3-.44 4.5-.2 6.5 1.18.48.33.93.75 1.36 1.16.5.49.96 1.02 1.48 1.5.67.6 1.7.53 2.33-.12.64-.65.71-1.73.12-2.44-.46-.55-.97-1.05-1.48-1.57a8.41 8.41 0 0 1-2.1-8.63c.1-.2.27-.29.45-.23a.33.33 0 0 1 .2.18.36.36 0 0 1 .02.27c-.07.3-.17.61-.22.92a7.49 7.49 0 0 0 1.67 6.44c.58.67 1.23 1.3 1.84 1.95 1.29 1.39.77 3.65-.97 4.24-.9.3-1.73.11-2.44-.55-.5-.48-.97-1-1.46-1.5a7.13 7.13 0 0 0-3-1.9h-.08v4.74c0 .23-.03.43-.25.55l-4.16-.01ZM15.59 7V2.25h-3.2V7c.9.2 2.29.2 3.2 0Z" fill="#FF3F4A"/><path d="M11.64 18.42V9.6c-.5 0-1-.02-1.5 0-.2.02-.34.2-.38.41-.03.12-.04.24-.04.36v4.54c0 .1.02.22-.02.29a.63.63 0 0 1-.3.26c-.15.05-.3-.05-.35-.22a.94.94 0 0 1-.03-.31v-4.61c0-.95.52-1.48 1.43-1.49h7.1c.9 0 1.42.54 1.42 1.47v7.4c0 .91-.52 1.45-1.4 1.45h-7.15c-.87 0-1.39-.54-1.4-1.45v-.82c0-.3.13-.46.35-.46.21 0 .34.16.35.45v.86c0 .47.22.69.67.7h1.25Zm4.7-8.82v8.8c.47 0 .93.03 1.38 0 .32-.02.48-.2.53-.54l.01-.22v-7.29c0-.11 0-.23-.03-.34-.04-.22-.18-.4-.4-.4-.5-.03-.99-.01-1.49-.01Zm-3.3 8.81c.06-.75.38-1.14.92-1.15.57-.01.88.34 1 1.16h.31c.34 0 .34 0 .34-.35V9.92a.7.7 0 0 0 0-.22.2.2 0 0 0-.05-.08.2.2 0 0 0-.08-.05h-.53c-.1.8-.39 1.16-.93 1.15a1.25 1.25 0 0 1-.6-.2c-.32-.2-.4-.57-.38-.94h-.66v8.82h.65v.01Zm.65-8.83c.08.16.12.3.2.38.03.04.19.03.22 0 .07-.1.1-.24.14-.38h-.56Zm.58 8.83c-.06-.15-.09-.28-.16-.37-.04-.05-.21-.04-.25 0-.07.1-.09.23-.14.37h.55ZM5.48 6.58c-.34 0-.66-.13-.9-.37a1.33 1.33 0 0 1-.01-1.84 1.24 1.24 0 0 1 1.78-.02c.24.24.38.57.39.92v.01c0 .35-.14.68-.38.92-.23.24-.55.38-.88.38Zm0-.73a.53.53 0 0 0 .38-.17.57.57 0 0 0 .16-.4c0-.16-.07-.3-.18-.4a.55.55 0 0 0-.4-.16.55.55 0 0 0-.37.18.6.6 0 0 0-.15.4c0 .14.06.29.17.39.1.1.24.16.39.16ZM22.52 6.58c-.33 0-.65-.13-.89-.37a1.34 1.34 0 0 1-.38-.92c0-.34.13-.67.36-.92a1.24 1.24 0 0 1 1.78-.02c.24.24.38.57.38.92v.01c0 .35-.13.68-.37.92-.23.24-.55.38-.88.38Zm0-.73c.14 0 .28-.06.39-.17a.6.6 0 0 0 .16-.4.6.6 0 0 0-.17-.4.55.55 0 0 0-.38-.17.55.55 0 0 0-.4.17c-.1.1-.16.25-.16.4 0 .16.06.3.17.4.1.12.24.17.39.17ZM5.46 21.4c.33 0 .65.14.89.38s.37.57.38.91c.02.7-.55 1.31-1.24 1.32a1.22 1.22 0 0 1-.9-.37 1.3 1.3 0 0 1-.38-.91v-.01c0-.35.13-.68.36-.93.24-.24.55-.38.89-.39Zm0 1.87c.14 0 .29-.05.4-.16a.59.59 0 0 0 0-.8.55.55 0 0 0-.39-.17.55.55 0 0 0-.38.16.6.6 0 0 0-.17.39c0 .15.05.3.15.4.1.11.24.18.39.18ZM22.51 24c-.33 0-.65-.13-.89-.37a1.34 1.34 0 0 1-.27-1.42 1.32 1.32 0 0 1 .69-.7c.15-.07.32-.1.48-.1.34 0 .66.14.9.38a1.34 1.34 0 0 1-.01 1.84c-.25.24-.57.38-.9.38Zm0-1.86a.55.55 0 0 0-.38.16c-.1.1-.17.25-.17.4 0 .16.06.3.16.4.1.11.25.17.4.17.14 0 .28-.06.38-.16a.6.6 0 0 0 .17-.4c0-.15-.06-.3-.17-.4a.55.55 0 0 0-.38-.17ZM14.93 23.98v.39a.99.99 0 0 1-.3.64.92.92 0 0 1-1.28 0 .98.98 0 0 1-.3-.64v-.76c.01-.25.11-.48.29-.66a.91.91 0 0 1 1.3 0 1 1 0 0 1 .29.66v.37Zm-.71 0c0-.1.03-.23 0-.33-.04-.1-.15-.21-.23-.22-.07 0-.2.12-.22.2-.03.23-.03.46 0 .68.01.09.15.21.23.2.08 0 .18-.12.22-.21.04-.1 0-.2 0-.31ZM8.75 8.24c-.06.08-.12.21-.21.25-.1.03-.28.04-.35-.03a8.91 8.91 0 0 1-.83-.9.29.29 0 0 1 .1-.33c.1-.07.32-.13.4-.07.3.26.56.56.83.85.03.04.03.11.06.23ZM20.27 7.1c.3.03.47.34.3.55-.24.3-.52.58-.81.83-.08.06-.29.02-.4-.05a.28.28 0 0 1-.12-.18.3.3 0 0 1 .04-.21 13.48 13.48 0 0 1 .84-.88c.03-.04.12-.04.15-.05ZM8.42 19.42c.09.07.22.12.26.22.04.11.04.3-.03.38a8.6 8.6 0 0 1-.75.8c-.14.12-.31.09-.44-.04-.13-.14-.16-.31-.05-.45.25-.28.51-.54.78-.8.04-.05.12-.06.23-.1ZM19.57 19.4c.12.08.23.12.3.2.23.2.43.42.64.65.16.17.16.39.02.54-.15.14-.35.14-.5-.02a6.52 6.52 0 0 1-.66-.69c-.08-.1-.1-.29-.06-.42 0-.1.15-.17.26-.25ZM13.04 4c.01-.18 0-.36.04-.53a.96.96 0 0 1 .36-.57.9.9 0 0 1 .63-.18.9.9 0 0 1 .58.28c.16.16.25.38.27.6.02.27.02.54 0 .81a.98.98 0 0 1-.3.64.92.92 0 0 1-1.27-.01 1 1 0 0 1-.3-.63V4h-.01Zm1.18.02c0-.12.03-.25-.01-.36-.03-.09-.14-.2-.22-.2-.08 0-.2.12-.22.2-.03.23-.03.46 0 .7.01.07.14.2.2.2.1 0 .2-.12.24-.2.04-.1 0-.23 0-.34Z" fill="#FF3F4A"/><path d="M14.93 14v1.35c0 .6-.4 1.03-.94 1.03-.53 0-.94-.43-.94-1.02v-2.73c0-.6.41-1.03.94-1.02.53 0 .93.44.93 1.04l.01 1.36Zm-.7 0v-1.32c0-.17-.04-.34-.25-.34-.19 0-.23.15-.23.33v2.65c0 .18.05.33.24.32.2 0 .23-.15.23-.33V14Z" fill="#FF3F4A"/></svg>