<svg width="135" height="25" fill="none" xmlns="http://www.w3.org/2000/svg"><path d="M129.57 0v.66h-1.35V4h-.85V.66H126V0h3.57zm4.62 4l-.16-2.36V.52h-.05l-.36 1.2-.77 2.22h-.88l-.77-2.28-.3-1.14v1.12L130.74 4h-.81l.3-4h1.15l.74 1.98c.1.3.17.6.28.98l.31-.98.74-1.98h1.22l.33 4h-.81z" fill="#FF3F4A"/><path d="M0 4.09h5.11c1.1-.02 2.18.05 3.26.2a5.59 5.59 0 014.16 2.95c.52 1.06.77 2.23.74 3.4a6.03 6.03 0 01-1.87 4.83c-1.25 1.09-3.1 1.63-5.58 1.62H4.7v7.5H0V4.1zM4.7 7.5v6.12h1.09a2.97 2.97 0 002.24-.71c.5-.69.75-1.54.67-2.4A2.52 2.52 0 005.67 7.5H4.7z" fill="#0B3D86"/><path d="M26.89 15.83v7.37c0 .49.08.95.15 1.4h-4.18l-.18-1.98a6.05 6.05 0 01-2.02 1.74c-.78.39-1.64.59-2.51.57a4.17 4.17 0 01-3.2-1.3 4.78 4.78 0 01-1.23-3.4 4.6 4.6 0 011.88-3.93 9.01 9.01 0 015.38-1.37h1.5v-.44a2.29 2.29 0 00-.75-1.85 3.34 3.34 0 00-2.2-.63 6.34 6.34 0 00-3.97 1.42l-.24-3.4c.9-.34 1.8-.6 2.74-.8a12.9 12.9 0 012.5-.26c2.33 0 3.95.48 4.87 1.46 1 .97 1.46 2.76 1.46 5.4zm-4.36 1.58l-.57-.04h-.76a4 4 0 00-2.42.62 2.12 2.12 0 00-.83 1.8 2.02 2.02 0 00.53 1.5 1.96 1.96 0 001.47.54 2.24 2.24 0 001.94-.84c.48-.8.7-1.74.62-2.68l.02-.9z" fill="#EE7601"/><path d="M30.38 2.69h4.45v4h-4.45v-4zm0 6.6h4.45V24.6h-4.45V9.29z" fill="#0065B1"/><path d="M51.14 14.13V24.6h-4.5v-9.45c.05-.64-.1-1.28-.4-1.85a1.49 1.49 0 00-1.3-.58 1.67 1.67 0 00-1.52.84c-.4.72-.57 1.54-.52 2.36v8.71h-4.48V10.62c0-.46-.06-.9-.1-1.3h4.08c.05.46.1.88.12 1.27.03.38 0 .73 0 1.07.34-.81.93-1.5 1.67-1.95.8-.48 1.7-.73 2.62-.7a3.96 3.96 0 013.22 1.3c.8 1.11 1.2 2.46 1.1 3.82z" fill="#008E3D"/><path d="M59.61 4.77v4.48h2.93v3.16H59.6v6.4a4.3 4.3 0 00.38 2.22 1.55 1.55 0 001.33.52c.2 0 .4-.02.6-.06.24 0 .52-.1.84-.17v3.22a19.36 19.36 0 01-2.87.32c-1.74 0-2.96-.4-3.67-1.17-.7-.77-1.06-2.31-1.06-4.63v-6.65h-2.5V9.25h2.5v-3.1l4.45-1.38z" fill="#903189"/><path d="M68.67 18.18a4.2 4.2 0 001.1 2.72 3.57 3.57 0 002.61.9c.67 0 1.34-.1 1.98-.29.71-.2 1.4-.5 2.03-.88l.15 3.28a11.94 11.94 0 01-4.78 1.04 7.38 7.38 0 01-5.59-2.07 8.09 8.09 0 01-1.98-5.83c-.1-2.1.54-4.19 1.8-5.87a5.86 5.86 0 014.73-2.22 5.84 5.84 0 014.85 2.14c1.16 1.42 1.73 3.44 1.73 6.04v1l-8.63.04zm4.47-2.51v-.69a3.69 3.69 0 00-.57-2.2A1.82 1.82 0 0071 12a1.95 1.95 0 00-1.74.88c-.46.86-.7 1.82-.7 2.79h4.6zm15.75-6.64v4.12h-.18c-.29-.07-.58-.12-.88-.14a2.85 2.85 0 00-2.44 1.02 5.4 5.4 0 00-.77 3.26v7.37h-4.48v-12c0-.88 0-1.55-.04-2.02l-.1-1.3h4.06v.16c.07.93.11 1.6.11 2.04V12c.29-.87.83-1.64 1.56-2.2.67-.54 1.5-.84 2.37-.84.15 0 .39 0 .68.04l.11.03zm5.55 9.15a4.2 4.2 0 001.1 2.72 3.59 3.59 0 002.6.9c.68 0 1.35-.1 2-.29.7-.21 1.38-.5 2.02-.88l.15 3.28a12.3 12.3 0 01-4.78 1.04 7.38 7.38 0 01-5.59-2.07 8.05 8.05 0 01-1.99-5.83c-.1-2.1.54-4.19 1.8-5.87a5.86 5.86 0 014.74-2.22 5.84 5.84 0 014.85 2.14c1.15 1.42 1.73 3.44 1.73 6.04v1l-8.63.04zm4.47-2.51v-.69a3.69 3.69 0 00-.56-2.2 1.84 1.84 0 00-1.58-.78 1.95 1.95 0 00-1.74.88 5.66 5.66 0 00-.71 2.79h4.59zm15.96-6.05l-.07 3.36a6.8 6.8 0 00-3.34-.9 2.7 2.7 0 00-1.54.35 1.23 1.23 0 00-.52 1.08c0 .59.73 1.17 2.17 1.75 1.82.72 2.97 1.4 3.46 2.05.53.8.8 1.77.73 2.74a4.4 4.4 0 01-1.62 3.64 7.18 7.18 0 01-4.6 1.3c-.65 0-1.31-.07-1.97-.18-.74-.13-1.47-.32-2.19-.55v-3.62c.64.4 1.33.71 2.05.94.66.22 1.35.33 2.05.34a2.8 2.8 0 001.67-.42 1.3 1.3 0 00.6-1.14c0-.6-.7-1.15-2.1-1.67l-.64-.25a7.52 7.52 0 01-2.94-1.82c-.58-.71-.88-1.6-.84-2.52a4.73 4.73 0 011.5-3.72 6.08 6.08 0 014.2-1.33c.65 0 1.32.05 1.97.15.67.09 1.33.23 1.97.42zm8.7-4.85v4.48h2.92v3.16h-2.92v6.4a4.3 4.3 0 00.37 2.22 1.56 1.56 0 001.34.52c.2.01.4 0 .6-.01.23 0 .5-.1.83-.17v3.22a19.33 19.33 0 01-2.88.32c-1.74 0-2.96-.4-3.66-1.17-.7-.77-1.06-2.31-1.06-4.62v-6.66h-2.51V9.3h2.5V6.2l4.47-1.43z" fill="#FF3F4A"/></svg>