<svg xmlns="http://www.w3.org/2000/svg" viewBox="0 0 606.6 71.8"><g data-name="Слой 2"><path d="M0 1.2h11.2c.4 0 1 .8 1.1 1.3l6 22.5 7.8 29 .5-1.2L40.8 3.4c.5-1.6 1-2.4 2.8-2.2a74.8 74.8 0 007.8 0c1.1 0 1.5.3 1.8 1.4l14.4 50.3.5 1.5 2.5-9L82 2.7a1.6 1.6 0 011.8-1.4h10.8L91.5 13l-15 55.7c-.3 1.4-.8 1.9-2.3 1.8H63.4c-1.2 0-1.6-.4-2-1.4L48.9 24.3a30.4 30.4 0 00-1.8-4.8l-1.8 6L33 68.8a1.8 1.8 0 01-2.2 1.6h-11a1.4 1.4 0 01-1.7-1.2L.3 3 0 1.2zm246.7 69.1v-69H274a20 20 0 0118.4 10.5c3.3 6 3.2 16.2-4 22l-.8.7c1 .7 2 1.3 2.8 2a18.7 18.7 0 010 29 20 20 0 01-13 4.8h-30.7zm11.5-10.5c6.5 0 12.8.1 19-.1a10 10 0 005.3-2.4 9.5 9.5 0 002.6-10.8 9.1 9.1 0 00-8.9-6h-17l-1 .1zm0-29.8c5.8 0 11.5.3 17.2 0 4.7-.3 7.9-4.6 7.6-9.6a8.7 8.7 0 00-8.6-8.4h-16.2zm-82.4 40.3v-69h26.5a33 33 0 0133.4 29.3 35.5 35.5 0 01-11.3 32 29 29 0 01-19.3 7.8c-9.4.2-18.8 0-28.3 0l-1-.1zm11.5-10.8c6.3 0 12.5.1 18.6-.1a18.3 18.3 0 0011.7-5.2c9.1-8.3 9.3-23.5 3.7-32-4-6.2-9.7-9.7-17.2-9.9h-15.9a5.9 5.9 0 00-1 .2zm209-15.9l15.6 26.8a45.8 45.8 0 00-7 0c-4.2.7-6.5-1-8.4-4.7-3.4-6.6-7.4-12.9-11.1-19.3a2 2 0 00-2-1.2h-12v25.1H360v-69h27.5a22.3 22.3 0 0121.6 16A21.8 21.8 0 01398 42.8zm-24.9-31.5V35a3.5 3.5 0 00.8.2h16a10 10 0 008-4.6c5-6.8 1-17.5-7-18.2-5.8-.6-11.7-.2-17.8-.2zm85.5 31.5l15.6 26.8h-11.2a2 2 0 01-2.1-1.2l-13-22.6a2.4 2.4 0 00-2.5-1.4H432v25.1h-11.3v-69H448A22 22 0 01470.5 25 20.8 20.8 0 01459 42.5l-2.1 1.1zM432 35a7.9 7.9 0 001 .1h15a11.2 11.2 0 002.8-.4c5.5-1.5 8.8-6.9 8-13A11 11 0 00448 12h-16zm172.6-19.7l-9.4 5.4-2-3.3a15.4 15.4 0 00-18.2-5.3 7.9 7.9 0 00-5.3 7.1 6.9 6.9 0 004 7.2c4 1.8 8.3 3.3 12.4 4.9 3 1.1 6 2.1 8.8 3.4 7 3 11.3 8.2 11.7 16s-3 13.8-9.9 17.7c-9.3 5.3-27.2 4.7-35.7-4.6-2-2.3-3.5-5.2-5.1-7.9-.6-.8-.3-1.4.6-2l8.6-5 .5.9c3.3 7.6 9.1 11.3 17.4 10.6a26 26 0 007.8-1.8c2.8-1.1 4.2-3.6 4.3-6.8s-1-5.8-4-7c-4.4-2-9-3.5-13.6-5.3a90.2 90.2 0 01-10-4.2c-7.4-4-10.3-10.3-9-18.5s6.3-13.2 13.8-15.5a26 26 0 0131.5 12.2l.8 1.8zm-255.4-3.2h-30V30h27.6v10.8h-27.5v18.8h30.4v10.7H308v-69h41.3zM505.7 1.4h41.2V12H517v18h25.8c1.4 0 1.9.4 1.8 1.7v9H517v18.8h30.4v10.7h-41.7zM128 70.2V1.4h11.2v58.1h28.1v10.7zM114.4 1.3v69h-11.5V3.2c0-1.6.4-2 2-2h9.5zm377.6 69h-11.1v-69H492z" fill="#fff" data-name="Слой 1"/></g></svg>