<svg xmlns="http://www.w3.org/2000/svg" viewBox="0 0 463.9 101.4"><g data-name="Слой 2"><path d="M285.5 101.4a91.9 91.9 0 01-45.9-10.7 51.7 51.7 0 01-24.5-26c-6.4-16.3-1.7-30.5 9.8-42.7 10.6-11 24-17 38.9-20a93.8 93.8 0 0151 3.5 63.8 63.8 0 0131 21.7 38.5 38.5 0 01-2 49.6 69.6 69.6 0 01-36 21.4 81.6 81.6 0 01-10.6 2.2c-4.6.6-9.3.8-11.7 1zm3.3-77.5c-12.2-.4-22.2 1-30.2 4.2a45.2 45.2 0 00-17 10.6c-7.6 8-7.6 16.8.3 24.4a40.8 40.8 0 009.6 7 69 69 0 0058.3 2.5c7-2.7 13-6.7 17.4-12.9 4.2-6 4.4-12 0-17.8a41 41 0 00-9.6-8.8 57.3 57.3 0 00-28.8-9.2zM0 50.7C0 22.3 22 .7 50.9 0a51.2 51.2 0 0150.5 50.7 51 51 0 01-50 50.7A50.2 50.2 0 01.1 50.7zm23.5 0a27 27 0 1027.3-27 27 27 0 00-27.3 27zm371-3v39.1c0 7.3-5.2 12.5-12.2 12.4A11.6 11.6 0 01371 87.7V6.5c0-1.6.3-3 1.8-3.7s2.9-.2 4 .7l32.4 25.7 29.5 23.5a16.5 16.5 0 001.6 1V14.4a11.8 11.8 0 1123.6 0v80.4c0 1.8-.5 3.6-2.2 4a5.3 5.3 0 01-4-1l-43-34.1zM153.7 75.6h40.2a11.7 11.7 0 018.8 19.4 12 12 0 01-9.7 4.2h-78.4c-1.8 0-3.7 0-4.6-1.9s.1-3.5 1.3-5l45-59.4 5.2-7h-33.3a11.7 11.7 0 01-11.8-13.3c.8-6 5.8-10.2 12.3-10.2H201c1.8 0 3.5.2 4.3 2s0 3-1 4.4L158 70l-4.2 5.6z" fill="#fff" data-name="Слой 1"/></g></svg>