<svg width="124" height="33" fill="none" xmlns="http://www.w3.org/2000/svg"><path d="M120.38 0v.5h-.9V3h-.57V.5H118V0h2.38zm3.08 3l-.1-1.77V.39h-.04l-.24.9-.52 1.67h-.58l-.51-1.72-.2-.85v.84L121.15 3h-.54l.2-3h.77l.49 1.48.19.74.2-.74.5-1.48h.81l.22 3h-.54z" fill="#FF3F4A"/><path d="M.2 2.85h4.77C5.98 2.83 7 2.9 8 3.05a5.18 5.18 0 013.87 2.73c.48.96.72 2.04.69 3.12a5.53 5.53 0 01-1.74 4.46c-1.17 1-2.9 1.5-5.2 1.5H4.58v6.93H.2V2.85zM4.59 6v5.65H5.6A2.79 2.79 0 007.69 11c.47-.63.7-1.42.62-2.2a2.31 2.31 0 00-1.64-2.77c-.39-.1-.8-.11-1.18-.02h-.91z" fill="#0B3D86"/><path d="M25.25 13.7v6.8c0 .45.08.88.14 1.3h-3.9l-.16-1.84a5.04 5.04 0 01-4.22 2.14 3.91 3.91 0 01-2.98-1.2 4.39 4.39 0 01-1.14-3.14 4.21 4.21 0 011.75-3.64 8.45 8.45 0 015.01-1.26h1.4v-.4a2.1 2.1 0 00-.7-1.71 3.13 3.13 0 00-2.05-.58 5.95 5.95 0 00-3.7 1.3l-.22-3.14c.83-.3 1.68-.55 2.55-.73.77-.15 1.55-.24 2.33-.24 2.17 0 3.68.45 4.54 1.34.92.9 1.35 2.56 1.35 5zm-4.06 1.45l-.53-.03h-.7c-.8-.06-1.59.14-2.26.57a1.96 1.96 0 00-.77 1.66 1.85 1.85 0 00.5 1.38 1.83 1.83 0 001.36.5 2.1 2.1 0 001.8-.77c.45-.75.65-1.61.59-2.48l.01-.83z" fill="#EE7601"/><path d="M28.5 1.56h4.14v3.69H28.5v-3.7zm0 6.1h4.14v14.13H28.5V7.65z" fill="#0065B1"/><path d="M47.83 12.13v9.66h-4.18v-8.73c.04-.59-.1-1.18-.38-1.7a1.38 1.38 0 00-1.21-.54 1.57 1.57 0 00-1.41.78 3.97 3.97 0 00-.49 2.18v8.04h-4.17V8.88c0-.42-.06-.83-.1-1.2h3.8c.06.43.1.81.12 1.17.02.36 0 .68 0 1 .31-.76.86-1.39 1.56-1.81a4.57 4.57 0 012.43-.65 3.72 3.72 0 013 1.21 5.35 5.35 0 011.03 3.53z" fill="#008E3D"/><path d="M55.72 3.48v4.14h2.73v2.92h-2.73v5.9c-.07.7.05 1.41.35 2.05a1.45 1.45 0 001.25.48c.19 0 .38-.02.56-.05.22 0 .48-.09.78-.16v2.98a18.16 18.16 0 01-2.68.3c-1.62 0-2.76-.37-3.41-1.09-.66-.7-1-2.13-1-4.27v-6.14h-2.33V7.62h2.34V4.76l4.14-1.28z" fill="#903189"/><path d="M64.16 15.87c.03.93.39 1.82 1.03 2.5a3.33 3.33 0 002.43.83 6.6 6.6 0 001.84-.26c.66-.2 1.3-.47 1.9-.81l.13 3.03a11.2 11.2 0 01-4.45.96 6.93 6.93 0 01-5.2-1.92 7.43 7.43 0 01-1.85-5.38c-.1-1.95.5-3.87 1.68-5.42a5.45 5.45 0 014.4-2.05 5.48 5.48 0 014.52 1.97c1.08 1.32 1.6 3.18 1.6 5.59v.92l-8.03.04zm4.16-2.33v-.63a3.38 3.38 0 00-.52-2.03 1.7 1.7 0 00-1.48-.72 1.83 1.83 0 00-1.62.81 5.28 5.28 0 00-.65 2.57h4.27zM83 7.41v3.81h-.17a4.91 4.91 0 00-.83-.13 2.68 2.68 0 00-2.27.94c-.56.9-.8 1.96-.72 3.02v6.8h-4.17V10.76c0-.82 0-1.44-.04-1.86-.03-.43-.05-.83-.1-1.2h3.79v.14c.07.85.1 1.48.1 1.88v.43c.27-.8.78-1.52 1.46-2.04.62-.5 1.4-.77 2.2-.77.15 0 .37 0 .64.04l.1.02zm5.16 8.46c.02.93.38 1.82 1.02 2.5a3.35 3.35 0 002.43.83 6.6 6.6 0 001.85-.26c.66-.2 1.3-.47 1.9-.81l.12 3.03a11.55 11.55 0 01-4.44.96 6.93 6.93 0 01-5.2-1.92 7.42 7.42 0 01-1.86-5.38c-.1-1.95.5-3.87 1.68-5.42a5.45 5.45 0 014.41-2.05 5.48 5.48 0 014.52 1.97c1.07 1.32 1.6 3.18 1.6 5.59v.92l-8.03.04zm4.16-2.33v-.63a3.38 3.38 0 00-.52-2.03 1.71 1.71 0 00-1.47-.72 1.83 1.83 0 00-1.62.81 5.19 5.19 0 00-.66 2.57h4.27zm14.86-5.58l-.06 3.1a6.39 6.39 0 00-3.11-.84c-.5-.03-1 .08-1.44.33a1.13 1.13 0 00-.48 1c0 .55.68 1.08 2.02 1.61 1.7.67 2.77 1.3 3.22 1.9.5.75.74 1.63.69 2.53a4.04 4.04 0 01-1.51 3.36 6.73 6.73 0 01-4.28 1.2c-.62 0-1.23-.06-1.84-.17-.69-.12-1.37-.29-2.04-.5v-3.34c.6.36 1.23.65 1.9.86.62.2 1.27.3 1.92.31.55.04 1.09-.1 1.55-.38a1.2 1.2 0 00.56-1.05c0-.55-.65-1.07-1.95-1.55l-.6-.22A7.02 7.02 0 0199 14.4a3.43 3.43 0 01-.78-2.31 4.32 4.32 0 011.4-3.43 5.7 5.7 0 013.9-1.24c.61 0 1.23.05 1.84.14.62.08 1.23.21 1.83.4zm8.1-4.48v4.14H118v2.92h-2.72v5.9c-.06.7.06 1.41.36 2.05a1.44 1.44 0 001.24.48c.19.02.37.01.55 0 .22 0 .48-.09.78-.16v2.97a18.16 18.16 0 01-2.68.3c-1.62 0-2.75-.37-3.4-1.08-.66-.71-1-2.14-1-4.27v-6.14h-2.33V7.67h2.33V4.8l4.15-1.32z" fill="#FF3F4A"/><path d="M3.8 27.54v4.16h-.96v-3.35H.96v3.35H0v-4.13l3.8-.03zm1.54 3.97a1.55 1.55 0 01-.85-1.42 1.55 1.55 0 01.85-1.42c.28-.15.6-.22.91-.21.32-.01.63.06.9.2.26.14.48.34.63.59a1.69 1.69 0 010 1.68 1.6 1.6 0 01-.62.58c-.28.15-.6.22-.9.21-.32 0-.64-.06-.92-.2zm1.5-.77c.15-.18.23-.4.22-.64a.91.91 0 00-.22-.65.84.84 0 00-1.18 0 .88.88 0 00-.23.65.9.9 0 00.23.64.84.84 0 001.18 0zm1.8-2.24h.92v1.9l1.56-1.9h.85v3.2h-.93v-1.89l-1.55 1.9h-.86v-3.2zm4.22 0h.92v1.24h1.4V28.5h.92v3.2h-.93v-1.18h-1.4v1.18h-.91v-3.2zm6.81.75H18.6v2.45h-.93v-2.42H16.6v-.78h3.12l-.04.75zm3.46 1.1H20.7c.04.19.15.36.31.47a1.221 1.221 0 001.06.09c.13-.05.25-.13.35-.23l.5.53a1.66 1.66 0 01-1.29.5c-.33 0-.66-.07-.96-.22-.27-.13-.49-.33-.64-.58a1.61 1.61 0 01-.23-.84c0-.3.07-.6.23-.85.14-.24.36-.44.61-.58.27-.14.56-.21.87-.2a1.55 1.55 0 011.45.77c.14.26.22.56.21.86 0 0-.04.13-.04.28zm-2.18-1.03a.77.77 0 00-.25.5h1.55a.73.73 0 00-.26-.49.78.78 0 00-.52-.18.78.78 0 00-.52.17zm5.6-.66c.25.13.44.33.57.57a1.86 1.86 0 010 1.72c-.13.24-.33.44-.57.57a1.7 1.7 0 01-1.3.12 1.23 1.23 0 01-.44-.3v1.48h-.93V28.5h.87v.37a1.2 1.2 0 011-.41c.28 0 .56.06.8.2zm-.39 2.07c.16-.17.24-.4.23-.64a.88.88 0 00-.23-.64.83.83 0 00-1.16 0 .88.88 0 00-.24.64.9.9 0 00.24.64.83.83 0 001.16 0zm4.91-.39h-2.43c.04.2.15.36.31.48.18.11.4.17.6.17.16 0 .31-.03.45-.08s.26-.13.36-.23l.5.53a1.65 1.65 0 01-1.32.51c-.34 0-.66-.06-.96-.2a1.54 1.54 0 01-.86-1.42c-.01-.3.06-.6.21-.85s.36-.45.62-.59c.27-.14.57-.21.87-.2.3-.01.59.06.85.19.24.14.45.34.59.58.15.26.23.56.22.87v.24zm-2.17-1.02a.77.77 0 00-.26.5h1.56a.77.77 0 00-.26-.49.78.78 0 00-.53-.18.78.78 0 00-.51.17zm3.5 2.19a1.55 1.55 0 01-.88-1.43 1.55 1.55 0 01.86-1.42c.29-.15.6-.22.92-.21.31 0 .61.06.88.2.25.14.45.35.56.6l-.72.39a.78.78 0 00-.72-.44.78.78 0 00-.6.24 1 1 0 000 1.28.83.83 0 00.6.24.78.78 0 00.72-.44l.72.39c-.12.25-.31.46-.56.6-.26.13-.56.2-.87.19-.31.01-.62-.05-.9-.19zm2.92-3.01h.92v1.24h1.39V28.5h.92v3.2h-.92v-1.18h-1.39v1.18h-.92v-3.2zm7.22 1.84H40.1c.04.2.15.36.31.48.19.11.4.17.61.17a1.1 1.1 0 00.8-.31l.5.53a1.66 1.66 0 01-1.32.51c-.33.01-.66-.06-.96-.2a1.55 1.55 0 01-.87-1.43 1.55 1.55 0 01.84-1.42c.27-.15.56-.22.86-.21.3-.01.6.06.86.19.25.14.45.34.6.58.14.26.22.56.21.87l-.01.24zm-2.18-1.02a.77.77 0 00-.25.5h1.55a.73.73 0 00-.26-.49.78.78 0 00-.52-.18.78.78 0 00-.52.17zm5.99 1.02h-2.41c.04.2.15.36.3.48.19.11.4.17.6.17a1.11 1.11 0 00.81-.31l.5.53a1.67 1.67 0 01-1.32.51c-.34 0-.66-.06-.96-.2a1.55 1.55 0 01-.87-1.43c0-.3.08-.59.23-.84.14-.25.35-.45.6-.59.27-.14.57-.2.88-.2a1.55 1.55 0 011.45.77c.14.27.22.56.22.87l-.03.24zm-2.13-1.02a.77.77 0 00-.27.5h1.56a.77.77 0 00-.26-.49.78.78 0 00-.53-.18.78.78 0 00-.5.17zm7.42-.82v3.2h-.93v-1.18c-.27.14-.58.2-.88.2-.36.02-.7-.08-.99-.29a1.17 1.17 0 01-.32-.9v-1h.92v.93a.52.52 0 00.16.42c.12.1.28.14.44.13.23 0 .46-.05.67-.15v-1.33l.93-.03zm3.99 1.84H53.2c.04.2.15.36.3.48.19.11.4.17.61.17a1.1 1.1 0 00.8-.31l.5.53a1.66 1.66 0 01-1.32.51c-.33.01-.66-.06-.96-.2-.26-.13-.49-.34-.64-.59a1.61 1.61 0 01-.23-.84c0-.3.08-.59.23-.84.14-.25.36-.45.61-.59.27-.14.57-.2.87-.2.3-.01.58.06.85.19.25.13.45.33.6.58.15.26.22.56.21.87l-.01.24zm-2.18-1.02a.77.77 0 00-.25.5h1.56a.73.73 0 00-.27-.49.78.78 0 00-.52-.18.78.78 0 00-.52.17zm6.03 2.38v-1.9l-.96 1.59h-.4l-.93-1.6v1.91h-.84v-3.17h.98l1.02 1.83 1.09-1.83h.86v3.17h-.82zm3.99-.19a1.62 1.62 0 01-.63-2.25c.15-.25.37-.46.63-.6.28-.14.6-.21.9-.2.32-.01.63.06.9.2a1.55 1.55 0 01.87 1.43 1.55 1.55 0 01-.86 1.42 1.9 1.9 0 01-.9.21c-.32 0-.63-.06-.9-.2zm1.5-.77c.15-.18.23-.4.22-.64a.91.91 0 00-.22-.65.84.84 0 00-1.18 0 .88.88 0 00-.23.65.9.9 0 00.23.64.84.84 0 001.18 0zm4.45-1.84c.23.12.4.3.53.52.13.24.2.5.19.78a1.47 1.47 0 01-.84 1.31c-.28.14-.6.2-.9.2a1.67 1.67 0 01-1.32-.54c-.35-.44-.52-.99-.49-1.54a2.5 2.5 0 01.43-1.55c.3-.42.77-.7 1.28-.78l1.56-.3.12.77-1.34.28c-.29.04-.56.16-.78.34-.19.2-.3.44-.31.7.13-.14.3-.26.5-.33.2-.09.41-.13.63-.13.27.03.52.13.74.28zm-.45 1.9a.84.84 0 00.22-.58.77.77 0 00-.22-.57.78.78 0 00-.58-.22.78.78 0 00-.77.78.82.82 0 00.22.58.78.78 0 00.58.23c.2 0 .4-.08.55-.22zm4.43-1a1.12 1.12 0 010 1.6c-.3.2-.67.3-1.03.29H70.8V28.5h.92v1.02h.78c.32-.02.63.08.89.27zm-.74 1.12a.44.44 0 00.14-.36.4.4 0 00-.14-.34.69.69 0 00-.4-.07h-.55v.92h.55a.6.6 0 00.4-.14v-.01zm1.4-2.42h.92v3.2h-.92v-3.2zm4.69 0v3.2h-.93v-1.18c-.28.14-.58.2-.89.2-.35.02-.7-.08-.98-.29a1.17 1.17 0 01-.33-.9v-1h.93v.93a.52.52 0 00.16.42c.12.1.27.14.43.13.24 0 .47-.05.68-.15v-1.33l.93-.03zm.89 0h.92v1.24h1.4V28.5h.92v3.2h-.92v-1.18h-1.4v1.18h-.92v-3.2zm6.76 1.3a.97.97 0 01.31.77.98.98 0 01-.36.82c-.3.21-.66.32-1.03.3h-1.56V28.5h.96v1.02h.78c.32-.02.64.08.9.27zm-.78 1.12a.43.43 0 00.14-.36.4.4 0 00-.14-.34.69.69 0 00-.4-.1h-.5v.92h.55c.14 0 .27-.03.38-.11l-.03-.01zm1.4-2.42h.92v3.2h-.88l-.03-3.2zm4.94 1.84h-2.42c.04.2.15.36.31.48.18.11.4.17.61.17a1.1 1.1 0 00.8-.31l.5.53a1.66 1.66 0 01-1.32.51c-.33.01-.66-.06-.96-.2a1.55 1.55 0 01-.87-1.43 1.55 1.55 0 01.83-1.42c.27-.15.57-.22.87-.21.3-.01.59.06.85.19.25.13.46.33.6.58.15.26.23.56.22.87l-.02.24zm-2.17-1.02a.77.77 0 00-.26.5h1.56a.77.77 0 00-.26-.49.78.78 0 00-.52-.18.78.78 0 00-.52.17zm5.99 1.15h-.48v1.23h-.93v-3.17h.93v1.23h.5l.87-1.23h.99l-1.12 1.54 1.2 1.66h-1.1l-.86-1.26zm5.1-1.81c.25.13.45.33.58.57a1.86 1.86 0 010 1.72 1.56 1.56 0 01-1.88.69 1.26 1.26 0 01-.44-.3v1.48h-.93V28.5h.89v.37a1.23 1.23 0 011-.41c.28 0 .55.06.78.2zm-.38 2.07c.16-.18.24-.4.23-.64a.92.92 0 00-.23-.64.84.84 0 00-1.18 0 .91.91 0 00-.22.64c-.01.23.07.46.22.64a.84.84 0 001.18 0zm4.14-1.93a1.33 1.33 0 01.4 1.07v1.83h-.85v-.4a1.04 1.04 0 01-.98.45 1.5 1.5 0 01-.64-.13.94.94 0 01-.41-.34.9.9 0 01-.14-.5.82.82 0 01.34-.69c.3-.2.67-.28 1.03-.26h.74c0-.08 0-.17-.04-.25a.58.58 0 00-.15-.21.78.78 0 00-.55-.16c-.17 0-.34.03-.5.07-.15.06-.29.13-.42.22l-.33-.64a2.68 2.68 0 011.41-.38c.39-.02.78.1 1.1.32zm-.77 2.2a.59.59 0 00.26-.33v-.32h-.64c-.38 0-.57.12-.57.38a.33.33 0 00.14.27c.12.08.25.11.39.1.14 0 .28-.03.4-.1h.02zm2.58.51a1.6 1.6 0 01-.64-.58 1.7 1.7 0 010-1.68c.16-.25.38-.45.64-.59.29-.14.6-.21.92-.2.3-.01.61.06.88.2.25.13.44.34.55.6l-.71.39a.83.83 0 00-1.33-.2 1 1 0 000 1.28.83.83 0 00.6.24.78.78 0 00.73-.44l.71.39c-.11.25-.3.46-.55.6-.27.14-.57.21-.88.2-.32 0-.63-.06-.92-.2zm4.33-1.04h-.49v1.23h-.93v-3.17h.93v1.23h.5l.87-1.23h1l-1.13 1.54 1.23 1.63h-1.1l-.88-1.23zm2.4-1.97h.92v1.9l1.56-1.9h.86v3.2h-.93v-1.89l-1.56 1.9h-.86l.01-3.2zm4.25 3.07a.5.5 0 01-.16-.38.5.5 0 01.16-.38c.11-.1.26-.15.4-.15a.57.57 0 01.42.15.5.5 0 01.17.38.5.5 0 01-.17.38.62.62 0 01-.78 0h-.04zm-.14-4.03h1.1l-.18 2.7h-.78l-.14-2.7z" fill="#0B3D86"/></svg>