<svg width="123" height="123" fill="none" xmlns="http://www.w3.org/2000/svg"><path d="M103.23 113.09h-9.65v-9.81h-9.83v9.79h4.8v4.92h9.95V123H78.7v-4.87h-9.9V123h-9.67v-19.85h-5.01V93.5l9.74.04v4.88h4.85v-4.85h-4.88v-4.9h-9.68v4.86H39.43v-9.89h4.88v4.89h4.92v-4.89h9.96v-4.95h4.7v5.02h4.97v4.82h9.83v-9.84h19.72v-4.96h-4.89v-4.9h-9.88v-5h-4.9v-4.7l-.04.03h9.92v-4.98l-.03.04h4.98l-.04-.04v4.98h4.98l-.03-.03v9.7h4.75l-.03-.03v9.93h9.93l-.04-.03v4.94h-4.87v9.83h4.87v-4.83h4.92v-4.91h4.92v9.78h-4.84v4.93h-9.86v4.74h4.78v9.92h-4.87l.03.03v-4.88h-4.98v4.88l.04-.03zm-29.47-4.95h4.89V93.63H73.8v14.54h-4.9v4.86h4.86v-4.9zm9.94-9.73h14.7V83.7H83.7v14.7zM.01 0h34.33v34.4H0V0zM29.4 29.4V5.06H5.03V29.4h24.36zM.01 88.6h34.4V123H.01V88.6zm29.4 5.02H5.06v24.36H29.4V93.62zM.01 39.35h9.82v4.9h-4.8v9.93H0V39.35zm4.93 34.4h9.9v4.98l.02-.03H9.94v4.96H.02V78.7h4.93v-4.95zM113.11 123v-4.87h9.9V123h-9.9zm-73.75 0v-9.93h4.92l-.03-.03.06 9.95h-4.95zM9.92 59.12v4.74H0v-4.72l9.92-.02z" fill="#005A86"/><path d="M4.98 73.77L0 73.75v-4.94h4.97v4.96zm58.91-44.3v-4.93H59.2v-4.69h9.55v-5h5.01l-.03-.02v4.93h9.87v24.45h4.96v-4.8h14.56v4.87h-4.57v4.92h4.64v9.96l.03-.03h-4.75l.03.03v-4.99h-4.98l.03.04v-4.89h-4.98v4.88l.04-.03-9.93.03v-9.83h-4.85v9.8h4.89l-.04 4.98.04-.03h-9.97v4.78h-4.92v4.92h-4.7v-5H49.2v-4.7h-4.92l.03.03v-4.97l-.03.03h24.45v-5h-9.58v-4.93l-.03.03h4.7v-4.94h4.98v-9.92l4.94.04v4.83h4.91v-4.8H73.7V24.6h-4.89v4.88l-4.97-.04.04.03z" fill="#005A86"/><path d="M88.68.05h34.25v34.26H88.69V.05zM118 29.4V5.02H93.63V29.4H118zM34.43 78.69v4.88h-9.87V63.91h-9.72v-4.79h4.93v-4.87h4.7v4.9h19.85l-.04-.03v4.78h-4.85v9.85h4.89c0 1.66-.01 3.32-.04 4.98l.04-.03-9.93.03v-4.9h-4.85v4.86h4.9zM29.56 63.9v4.84h4.78V63.9h-4.78zm9.82-24.54V19.84h4.95v-5.01l-.04.03h4.93v4.91h4.96v19.6l.04-.04H49.2V24.57h-4.92v14.76h-4.94l.04.03zm4.94 14.82H29.48v-4.95l-.03.03h4.88v-4.98h-4.88l.03.03v-4.95h9.9l-.04-.02v9.92h4.98l-.03-.03v4.97l.03-.02zm.01-39.35h-4.9V4.99h9.77V.07h4.94v9.76h-9.85v5.02l.04-.02zm29.45.03V9.92h-4.9V5.01h4.84V.07h4.96V4.9h4.9v4.95h-4.8v4.97h-5.02l.02.03zm29.42 44.29h4.92v4.73h5l-.03-.03v9.92l.04-.03h-5v-4.95h-4.93l.03.03v-9.7l-.03.03z" fill="#005A86"/><path d="M113.13 63.88v-4.66h9.8v14.53h-4.89l.04.03v-9.92h-4.98l.03.02zm4.92-19.56h4.89v9.8h-9.77V49.3h4.91v-5.01l-.03.04zm.03-.04h-9.83v-4.85h9.8v4.89l.03-.04zM14.87 59.15H9.89v-4.88h4.98v4.88z" fill="#005A86"/><path d="M118.04 73.75v4.95h-4.95l.03.03v-4.98l-.03.03h4.98l-.03-.03zM29.48 49.23H24.6v-4.92h4.89l-.04-.03v4.98l.03-.03zm24.7-9.86h4.95v4.94l.03-.03h-4.94v-4.95l-.04.04zm-39.26 0h4.79v4.85h-4.79v-4.85zm103.18 73.65v-4.8h4.81v4.8h-4.8zm-9.95.07v4.88h-4.92v-4.88l-.03.03h4.98l-.03-.03zm-44.3-83.65v4.88h-4.63v-4.85h4.67l-.04-.03zM44.3 108.18h9.82v9.8h-4.86v-4.92h-5.02l.04.02c0-1.64.03-3.29.04-4.94l-.03.04zM14.83 78.71h4.89v4.86h-4.86v-4.89l-.03.03zm34.43 4.96h-4.98l.03-4.98-.03.04 4.98-.03v4.97z" fill="#005A86"/><path d="M44.33 108.14h-4.89v-4.85h4.85v4.89l.04-.04zm34.4-29.42H63.86v-4.93h4.95v-4.93h4.9v4.89h5.02v4.97z" fill="#005A86"/><path d="M83.67 68.8v4.97H78.7v-4.98h4.98zm-34.43 9.92v-4.97h4.98v4.98l-4.98-.01z" fill="#005A86"/><path d="M54.18 73.77v-4.98h4.98v4.98h-4.98zm39.32 14.9v4.81h-4.82v-4.8h4.82zM9.93 24.43V9.99h14.51v14.44H9.93zm14.54 74.14v14.48H10V98.56h14.47zm19.85-49.31v-4.88h4.86v4.85h-4.9l.04.03zm4.94 24.51h-4.98v-4.88h4.98v4.88zM98.58 9.94h14.47v14.49H98.58V9.94z" fill="#005A86"/></svg>