<svg width="123" height="123" viewBox="0 0 123 123" fill="none" xmlns="http://www.w3.org/2000/svg"><path d="M83.66 59.15v-4.97l-.04.03h4.89v-4.98h-4.88l.03.03v-5.01h-4.87V24.57h4.87V39.4h19.55v4.92h-4.8v4.97H93.6v4.83h9.6v-9.83h5v4.95h4.92v5h-5.03v4.95h-9.62v4.72h-4.9v9.87h-4.9v4.85h4.86v-4.89h9.73v-9.81h4.92v4.93h4.88v4.92h-4.93v4.96h-4.84v9.8h14.7V83.6h-4.8v-4.9H123v19.8h-4.97V93.6h-9.9v4.91h-4.92v19.5h-4.72l.03.04v-4.95h-4.98l.04.03v-5.01h4.87v-4.85H78.68v4.8h-4.92V93.52l-.04.03h4.89v-9.92h-4.89l.04.03-.04-4.98h4.98v-4.94l-.03.03h5.02v-5h4.82v-9.65h-4.9l.05.03Zm.03 39.26h14.7V83.7h-14.7v14.71Z" fill="#126408"/><path d="M83.65 54.18H63.93V44.3h4.8v-4.88H54.15v9.83l.04-.03H44.3v-4.9h-4.88v-24.5h9.74V9.95h-9.81V0h4.94v4.93h9.9v4.89h4.87V4.96h-4.9L54.2 0h29.46v4.97h-9.9v4.84H68.8v-4.8h-4.9v9.84h-9.6v4.98h4.9v9.63l-4.94-.04v-4.85h-9.9v14.7h4.95V29.4h4.94v4.92h4.88v-4.88h4.75v4.88h4.91v-4.88h5.01v19.82h9.86l-.03-.03v4.98l.03-.03ZM34.4 0v34.4H0V0h34.4Zm-5.02 29.4V5.04H5V29.4h24.37ZM122.99 34.4h-34.4V0h34.4v34.4Zm-29.4-5.02h24.37V5H93.6v24.37ZM0 88.6h34.4V123H0V88.6Zm5 29.38h24.36V93.6H5v24.38ZM63.87 98.47v9.67h4.87v4.92h-4.81v4.97h9.83V123H59.14v-4.96h-4.96l.03.03v-4.97l-.03.03h4.88v-9.93h-9.83l.03.03v-4.75l-.03.03 14.64-.04ZM14.86 59.12H9.88l.03.03v-9.9H.01v-9.9h14.8v9.9h5l-.03-.03v4.98l.04-.03h-4.98v4.97l.02-.02Z" fill="#126408"/><path d="M39.35 123V108.2h4.9v-4.98h5l-.03-.03v5h4.95v4.92l.03-.03h-4.98v4.98l.04-.04h-4.97V123h-4.94ZM78.7 123v-9.86h4.93v-4.93h4.92v4.91h5l-.03-.03v4.98l.03-.03H88.6V123h-9.9ZM122.99 54.2h-4.91v-4.94h-5v-9.9h9.9v14.83ZM9.88 59.12v14.63H0v-4.94h4.87v-4.95H0v-4.72l9.9.01-.02-.03ZM122.99 113.1h-9.81v-4.94h9.8v4.94ZM118.03 63.88l4.96-.02v9.9h-4.93v-9.9l-.03.02ZM0 78.7h9.82v4.95H0V78.7ZM49.24 123l.02-4.97-.03.04h4.98l-.04-.03c0 1.65 0 3.3.02 4.96h-4.95Z" fill="#126408"/><path d="m93.53 123 .02-4.97-.03.04h4.98l-.03-.04V123h-4.94ZM118.04 123v-4.95H123V123h-4.95ZM24.52 78.68h-4.7v4.9h-4.96V59.12l-.04.03h4.98v-4.97l-.03.03h9.7l-.03-.03v4.92h4.9v4.69h-9.78v5h-4.7v4.91h4.64v5.01l.02-.03ZM63.87 78.68h-9.66v-4.94l-.04.03h4.89v-9.9h-4.8v-4.64h9.56v4.65h5.01l-.03-.04v5.01h-4.95v9.87l.02-.04Z" fill="#126408"/><path d="M68.82 63.88v-4.73h14.84l-.04-.03v4.78h-4.94v9.87l.03-.03-4.98.03v-9.92h-4.95l.04.03ZM73.76 93.53h-4.93v4.97h-5v-9.86h4.98v-5l-.03.02h4.98l-.04-.03v9.93l.04-.03ZM19.8 49.26v-4.93h4.7v-4.92h9.81v4.84h-4.87v5.01l.03-.03h-9.7l.03.03ZM39.33 54.2h9.83v9.59h-9.8v-9.6l-.03.02ZM49.3 88.53h-9.9V83.7h4.87v-4.94h4.99v9.8l.03-.03ZM54.2 73.74h-9.82v-4.86h9.8v4.9l.03-.04ZM24.49 78.71h9.83v4.86h-9.8v-4.89l-.03.03ZM49.26 98.48h-9.83v-4.92h9.82l-.03-.03v4.98l.04-.03ZM49.26 93.56l.03-5.02-.03.03h9.8v4.96h-9.84l.04.03Z" fill="#126408"/><path d="M39.37 54.18h-9.93l.03.03v-4.98l-.03.03h9.9v4.95l.03-.03ZM34.33 73.7H29.5v-4.8h4.82v4.8ZM68.82 83.63h-4.95v-4.95l-.03.04 4.98-.03-.03 4.97.03-.03ZM54.17 49.26h4.89v4.86H54.2v-4.9l-.04.04ZM68.82 29.47h-4.98V14.83h9.83v9.64h-4.85v5ZM83.56 14.8h-4.8V9.95h4.8v4.85ZM118.06 63.85h-4.88V59.2h4.85v4.67l.03-.03ZM93.45 93.5h-4.8v-4.8h4.8v4.8Z" fill="#126408"/><path d="M68.79 78.72v-4.98h4.97v4.98h-4.97ZM24.46 9.97v14.48H9.98V9.97h14.48ZM113.05 9.97v14.48H98.58V9.97h14.47ZM9.95 113.04V98.58h14.48v14.46H9.95Z" fill="#126408"/></svg>