<svg width="123" height="123" fill="none" xmlns="http://www.w3.org/2000/svg"><path d="M83.66 59.15v-4.97l-.04.03h4.89v-4.98h-4.88l.03.03v-5.01h-4.87V24.57h4.87V39.4h19.55v4.92h-4.8v4.97H93.6v4.83h9.6v-9.83h5v4.95h4.92v5h-5.03v4.95h-9.62v4.72h-4.9v9.87h-4.9v4.85h4.86v-4.89h9.73v-9.81h4.92v4.93h4.88v4.92h-4.93v4.96h-4.84v9.8h14.7V83.6h-4.8v-4.9H123v19.8h-4.97v-4.9h-9.9v4.91h-4.92v19.5h-4.72l.03.04v-4.95h-4.98l.04.03v-5.01h4.87v-4.85H78.68v4.8h-4.92V93.52l-.04.03h4.89v-9.92h-4.89l.04.03-.04-4.98h4.98v-4.94l-.03.03h5.02v-5h4.82v-9.65h-4.9l.05.03zm.03 39.26h14.7V83.7h-14.7v14.71z" fill="#126408"/><path d="M83.65 54.18H63.93V44.3h4.8v-4.88H54.15v9.83l.04-.03H44.3v-4.9h-4.88v-24.5h9.74V9.95h-9.81V0h4.94v4.93h9.9v4.89h4.87V4.96h-4.9L54.2 0h29.46v4.97h-9.9v4.84H68.8v-4.8h-4.9v9.84h-9.6v4.98h4.9v9.63l-4.94-.04v-4.85h-9.9v14.7h4.95V29.4h4.94v4.92h4.88v-4.88h4.75v4.88h4.91v-4.88h5.01v19.82h9.86l-.03-.03v4.98l.03-.03zM34.4 0v34.4H0V0h34.4zm-5.02 29.4V5.04H5V29.4h24.37zm93.61 5h-34.4V0h34.4v34.4zm-29.4-5.02h24.37V5H93.6v24.37zM0 88.6h34.4V123H0V88.6zm5 29.38h24.36V93.6H5v24.38zm58.87-19.51v9.67h4.87v4.92h-4.81v4.97h9.83V123H59.14v-4.96h-4.96l.03.03v-4.97l-.03.03h4.88v-9.93h-9.83l.03.03v-4.75l-.03.03 14.64-.04zM14.86 59.12H9.88l.03.03v-9.9H.01v-9.9h14.8v9.9h5l-.03-.03v4.98l.04-.03h-4.98v4.97l.02-.02z" fill="#126408"/><path d="M39.35 123v-14.8h4.9v-4.98h5l-.03-.03v5h4.95v4.92l.03-.03h-4.98v4.98l.04-.04h-4.97V123h-4.94zm39.35 0v-9.86h4.93v-4.93h4.92v4.91h5l-.03-.03v4.98l.03-.03H88.6V123h-9.9zm44.29-68.8h-4.91v-4.94h-5v-9.9h9.9v14.83zM9.88 59.12v14.63H0v-4.94h4.87v-4.95H0v-4.72l9.9.01-.02-.03zm113.11 53.98h-9.81v-4.94h9.8v4.94zm-4.96-49.22l4.96-.02v9.9h-4.93v-9.9l-.03.02zM0 78.7h9.82v4.95H0V78.7zM49.24 123l.02-4.97-.03.04h4.98l-.04-.03c0 1.65 0 3.3.02 4.96h-4.95z" fill="#126408"/><path d="M93.53 123l.02-4.97-.03.04h4.98l-.03-.04V123h-4.94zm24.51 0v-4.95H123V123h-4.95zM24.52 78.68h-4.7v4.9h-4.96V59.12l-.04.03h4.98v-4.97l-.03.03h9.7l-.03-.03v4.92h4.9v4.69h-9.78v5h-4.7v4.91h4.64v5.01l.02-.03zm39.35 0h-9.66v-4.94l-.04.03h4.89v-9.9h-4.8v-4.64h9.56v4.65h5.01l-.03-.04v5.01h-4.95v9.87l.02-.04z" fill="#126408"/><path d="M68.82 63.88v-4.73h14.84l-.04-.03v4.78h-4.94v9.87l.03-.03-4.98.03v-9.92h-4.95l.04.03zm4.94 29.65h-4.93v4.97h-5v-9.86h4.98v-5l-.03.02h4.98l-.04-.03v9.93l.04-.03zM19.8 49.26v-4.93h4.7v-4.92h9.81v4.84h-4.87v5.01l.03-.03h-9.7l.03.03zm19.53 4.94h9.83v9.59h-9.8v-9.6l-.03.02zm9.97 34.33h-9.9V83.7h4.87v-4.94h4.99v9.8l.03-.03zm4.9-14.79h-9.82v-4.86h9.8v4.9l.03-.04zm-29.71 4.97h9.83v4.86h-9.8v-4.89l-.03.03zm24.77 19.77h-9.83v-4.92h9.82l-.03-.03v4.98l.04-.03zm0-4.92l.03-5.02-.03.03h9.8v4.96h-9.84l.04.03z" fill="#126408"/><path d="M39.37 54.18h-9.93l.03.03v-4.98l-.03.03h9.9v4.95l.03-.03zM34.33 73.7H29.5v-4.8h4.82v4.8zm34.49 9.93h-4.95v-4.95l-.03.04 4.98-.03-.03 4.97.03-.03zM54.17 49.26h4.89v4.86H54.2v-4.9l-.04.04zm14.65-19.79h-4.98V14.83h9.83v9.64h-4.85v5zM83.56 14.8h-4.8V9.95h4.8v4.85zm34.5 49.05h-4.88V59.2h4.85v4.67l.03-.03zM93.45 93.5h-4.8v-4.8h4.8v4.8z" fill="#126408"/><path d="M68.79 78.72v-4.98h4.97v4.98h-4.97zM24.46 9.97v14.48H9.98V9.97h14.48zm88.59 0v14.48H98.58V9.97h14.47zM9.95 113.04V98.58h14.48v14.46H9.95z" fill="#126408"/></svg>